<svg width="343" height="367" viewBox="0 0 343 367" fill="none" xmlns="http://www.w3.org/2000/svg">
<g clip-path="url(#clip0_4_330)">
<path d="M181.756 209.991C205.668 209.991 233.15 183.301 257.464 195.982C331.081 234.377 320.947 170.129 342.097 146.235L341.402 144.834C318.066 165.88 288.93 183.004 257.144 194.353C228.42 204.61 199.48 209.362 173.463 208.108L173.418 209.792C176.166 209.925 178.945 209.992 181.756 209.991Z" fill="#F2F2F2"/>
<path d="M7.20435 54.8643C26.2664 69.3857 64.195 64.7982 75.9652 89.6725C111.602 164.985 142.091 107.615 173.294 101.411L173.581 99.8726C142.345 102.478 108.84 98.4353 76.6885 88.1795C47.6331 78.9123 21.7104 65.1263 1.72406 48.3275L0.677383 49.6423C2.78755 51.4171 4.96321 53.1577 7.20435 54.8643Z" fill="#F2F2F2"/>
<path d="M289.113 97.9791C286.352 97.9791 284.114 94.9608 284.114 91.2376C284.114 87.5144 286.352 84.4961 289.113 84.4961C291.873 84.4961 294.111 87.5144 294.111 91.2376C294.111 94.9608 291.873 97.9791 289.113 97.9791Z" fill="#E6E6E6"/>
<path d="M79.0571 161.065C76.2966 161.065 74.0587 158.046 74.0587 154.323C74.0587 150.6 76.2966 147.582 79.0571 147.582C81.8176 147.582 84.0554 150.6 84.0554 154.323C84.0554 158.046 81.8176 161.065 79.0571 161.065Z" fill="#E6E6E6"/>
<path d="M216.333 14.0637C213.572 14.0637 211.334 11.0454 211.334 7.32218C211.334 3.59896 213.572 0.580688 216.333 0.580688C219.093 0.580688 221.331 3.59896 221.331 7.32218C221.331 11.0454 219.093 14.0637 216.333 14.0637Z" fill="#E6E6E6"/>
<path d="M126.722 249.429L132.535 214.271C132.652 213.559 132.483 212.83 132.066 212.243C131.649 211.656 131.018 211.26 130.31 211.14L103.911 206.725C103.203 206.608 102.478 206.777 101.895 207.197C101.311 207.616 100.917 208.251 100.799 208.963L94.9862 244.121C94.8694 244.833 95.038 245.562 95.4551 246.149C95.8721 246.736 96.5036 247.133 97.211 247.252L123.61 251.667C124.318 251.785 125.043 251.615 125.626 251.196C126.21 250.776 126.604 250.141 126.722 249.429Z" fill="#3F3D56"/>
<path d="M126.453 238.471L130.19 215.868C130.299 215.202 130.141 214.519 129.751 213.969C129.36 213.42 128.769 213.048 128.106 212.937L105.419 209.142C104.756 209.032 104.077 209.191 103.53 209.584C102.984 209.977 102.615 210.571 102.504 211.238L97.3312 242.524C97.2218 243.191 97.3797 243.874 97.7704 244.423C98.161 244.973 98.7525 245.344 99.415 245.456L113.47 247.806C116.422 248.297 119.446 247.589 121.88 245.839C124.314 244.089 125.959 241.439 126.453 238.471Z" fill="white"/>
<path d="M125.474 221.561C125.581 220.909 125.427 220.242 125.045 219.705C124.663 219.168 124.085 218.805 123.438 218.696L107.699 216.063C107.379 216.01 107.051 216.02 106.734 216.094C106.417 216.168 106.118 216.304 105.854 216.494C105.589 216.684 105.364 216.925 105.192 217.202C105.02 217.48 104.904 217.789 104.851 218.111C104.798 218.434 104.808 218.764 104.882 219.082C104.955 219.401 105.09 219.702 105.279 219.968C105.468 220.234 105.708 220.46 105.984 220.633C106.259 220.806 106.567 220.922 106.887 220.976L122.626 223.608C123.273 223.716 123.937 223.561 124.471 223.177C125.005 222.793 125.366 222.212 125.474 221.561Z" fill="#00C9A7"/>
<path d="M124.21 229.203C124.317 228.551 124.163 227.884 123.781 227.347C123.4 226.81 122.822 226.447 122.174 226.338L106.436 223.705C106.115 223.652 105.787 223.662 105.47 223.736C105.154 223.81 104.855 223.946 104.59 224.136C104.326 224.326 104.101 224.567 103.929 224.844C103.757 225.122 103.641 225.431 103.588 225.753C103.534 226.076 103.545 226.406 103.618 226.724C103.692 227.043 103.827 227.344 104.016 227.61C104.205 227.876 104.444 228.102 104.72 228.275C104.996 228.448 105.303 228.565 105.624 228.618L121.362 231.251C122.01 231.358 122.673 231.203 123.207 230.819C123.741 230.435 124.102 229.854 124.21 229.203Z" fill="#00C9A7"/>
<path d="M122.947 236.845C123.054 236.193 122.9 235.526 122.518 234.989C122.136 234.452 121.558 234.089 120.911 233.98L105.172 231.347C104.525 231.239 103.861 231.394 103.327 231.778C102.792 232.162 102.432 232.744 102.324 233.395C102.217 234.047 102.371 234.715 102.752 235.252C103.134 235.789 103.713 236.152 104.36 236.26L120.099 238.893C120.746 239 121.41 238.845 121.944 238.461C122.478 238.077 122.839 237.496 122.947 236.845Z" fill="#00C9A7"/>
<path d="M138.642 216.291C139.33 215.513 139.839 214.593 140.135 213.595C140.43 212.597 140.505 211.546 140.353 210.516C140.201 209.486 139.827 208.502 139.256 207.634C138.685 206.765 137.932 206.033 137.05 205.489L146.258 161.388L134.053 166.108L126.988 208.24C126.177 209.791 125.961 211.588 126.379 213.29C126.798 214.992 127.823 216.48 129.259 217.472C130.696 218.465 132.444 218.893 134.174 218.675C135.903 218.457 137.493 217.609 138.642 216.291Z" fill="#FFB8B8"/>
<path d="M142.705 355.773L132.66 355.772L127.88 316.799L142.707 316.799L142.705 355.773Z" fill="#FFB6B6"/>
<path d="M145.268 352.474L142.44 352.474L131.401 347.958L125.484 352.473H125.483C122.139 352.473 118.932 353.809 116.568 356.187C114.204 358.565 112.875 361.791 112.875 365.154V365.566L145.267 365.567L145.268 352.474Z" fill="#324844"/>
<path d="M233.476 342.636L224.485 347.143L202.922 314.407L216.192 307.755L233.476 342.636Z" fill="#FFB6B6"/>
<path d="M234.306 338.534L231.775 339.802L219.892 340.714L216.599 347.41L216.599 347.41C213.606 348.91 211.329 351.545 210.267 354.734C209.206 357.923 209.448 361.406 210.939 364.416L211.122 364.785L240.113 350.252L234.306 338.534Z" fill="#324844"/>
<path d="M138.254 178.769L202.128 180.445L201.017 211.73C201.017 211.73 202.128 220.109 199.907 222.344C197.685 224.579 196.574 224.579 197.685 228.489C198.796 232.4 201.668 269.764 201.668 269.764C201.668 269.764 227.883 316.388 226.773 317.505C225.662 318.622 224.551 317.505 225.662 320.298C226.773 323.092 227.883 321.974 226.773 323.091C225.789 324.159 224.862 325.278 223.995 326.443H205.89C205.89 326.443 204.878 320.857 204.878 320.298C204.878 319.74 203.767 316.388 203.767 315.829C203.767 315.27 172.135 281.562 172.135 281.562L165.47 225.696L149.363 280.444C149.363 280.444 149.363 328.489 148.252 329.606C147.141 330.723 147.141 330.165 147.697 332.399C148.252 334.634 150.474 334.075 148.807 335.751C147.141 337.427 146.586 334.634 147.141 337.427L147.697 340.22L126.357 340.46C126.357 340.46 124.136 335.751 125.247 334.075C126.357 332.399 126.291 332.857 124.936 330.114C123.58 327.371 123.025 326.813 123.58 326.254C124.136 325.695 124.136 322.724 124.136 322.724C124.136 322.724 132.145 212.847 132.145 211.171C132.186 210.309 132.028 209.448 131.683 208.658V206.383L133.811 198.322L138.254 178.769Z" fill="#324844"/>
<path d="M80.6749 334.777L80.1238 322.312C74.3784 319.223 67.9703 317.592 61.4557 317.559C70.4217 324.932 69.3012 339.145 75.3799 349.06C77.2993 352.137 79.8828 354.741 82.9388 356.678C85.9947 358.615 89.4449 359.836 93.0336 360.249L100.537 364.87C101.566 359.097 101.339 353.168 99.8713 347.492C98.4034 341.816 95.7296 336.527 92.0339 331.99C89.9356 329.466 87.5296 327.217 84.8726 325.298C83.0756 330.064 80.6749 334.777 80.6749 334.777Z" fill="#F2F2F2"/>
<path d="M171.328 69.0533L139.334 134.134L145.594 213.117L186.477 209.359L193.808 78.5578L171.328 69.0533Z" fill="#324844"/>
<path d="M126.403 204.397L145.098 202.678L145.127 202.44L157.673 97.9561L154.865 90.1265C154.194 88.2676 153.055 86.6151 151.561 85.3296C150.066 84.0442 148.266 83.1694 146.336 82.7903C144.866 82.5055 143.354 82.5158 141.888 82.8212C140.422 83.1266 139.03 83.7208 137.793 84.5696C136.557 85.4184 135.499 86.5049 134.681 87.7666C133.864 89.0284 133.303 90.4403 133.03 91.9212L129.673 110.162L124.909 171.82L126.403 204.397Z" fill="#324844"/>
<path d="M175.078 78.7045L171.307 69.6312L159.638 69.8373L147.469 87.1498L134.698 141.173C134.698 141.173 130.11 180.637 134.698 182.72C139.285 184.803 154.833 182.231 154.833 182.231L175.078 78.7045Z" fill="#00C9A7"/>
<path d="M159.638 69.8373C159.638 69.8373 134.5 84.4527 133.517 92.082C132.534 99.7112 129.242 193.089 129.242 193.089L138.131 187.312L140.561 153.279L151.41 83.5999L159.638 69.8373Z" fill="#324844"/>
<path d="M165.572 65.5862C156.11 65.5862 148.44 57.8713 148.44 48.3546C148.44 38.8378 156.11 31.1229 165.572 31.1229C175.033 31.1229 182.704 38.8378 182.704 48.3546C182.704 57.8713 175.033 65.5862 165.572 65.5862Z" fill="#FFB8B8"/>
<path d="M185.004 37.0323C183.08 34.0388 179.47 32.0438 175.971 32.6044C175.645 30.358 174.713 28.2445 173.276 26.4941C171.838 24.7437 169.951 23.4235 167.82 22.6771C165.688 21.9308 163.394 21.787 161.186 22.2613C158.979 22.7357 156.944 23.81 155.301 25.3674C154.761 24.9849 154.132 24.7492 153.475 24.6831C152.818 24.6169 152.155 24.7226 151.55 24.9898C150.346 25.5406 149.298 26.3866 148.503 27.4503C146.494 29.9692 145.203 32.9886 144.765 36.1871C144.328 39.3857 144.761 42.6437 146.019 45.6143C145.591 44.0504 147.149 42.5791 148.723 42.2282C150.298 41.8773 151.949 42.2093 153.546 41.9807C155.592 41.6879 157.431 40.4939 159.481 40.2252C161.203 39.9994 162.936 40.4436 164.615 40.8888C166.295 41.334 168.023 41.788 169.747 41.582C171.472 41.376 173.694 47.951 173.664 52.5821C173.659 53.4597 173.839 54.5865 174.691 54.7727C175.741 55.002 176.35 53.5442 177.349 53.147C177.81 53.0142 178.304 53.0665 178.727 53.2928C179.15 53.5191 179.469 53.9017 179.617 54.3601C179.743 54.8261 179.757 55.3156 179.657 55.788C179.557 56.2603 179.346 56.7017 179.042 57.0755C178.427 57.8165 177.698 58.4529 176.882 58.96L177.294 59.3043C177.978 60.2142 179.399 60.2536 180.386 59.6907C181.329 59.0478 182.094 58.1725 182.606 57.1482C184.432 54.0936 186.033 50.8389 186.678 47.3341C187.322 43.8292 186.928 40.0257 185.004 37.0323Z" fill="#324844"/>
<path d="M222.32 164.649L188.093 127.714C187.399 126.967 186.44 126.528 185.424 126.492C184.409 126.456 183.421 126.826 182.677 127.522L154.944 153.522C154.202 154.22 153.765 155.185 153.729 156.206C153.693 157.228 154.062 158.221 154.754 158.97L188.981 195.904C189.675 196.651 190.634 197.091 191.65 197.127C192.665 197.163 193.653 196.792 194.397 196.096L222.13 170.096C222.872 169.399 223.309 168.433 223.345 167.412C223.381 166.391 223.012 165.397 222.32 164.649Z" fill="#E6E6E6"/>
<path d="M209.855 155.487L187.851 131.742C187.201 131.043 186.302 130.631 185.351 130.597C184.4 130.564 183.475 130.911 182.778 131.563L158.944 153.907C158.249 154.561 157.839 155.465 157.806 156.421C157.772 157.378 158.118 158.309 158.766 159.009L189.223 191.876C189.873 192.576 190.772 192.987 191.723 193.021C192.674 193.054 193.599 192.707 194.296 192.055L209.061 178.213C212.158 175.303 213.981 171.276 214.13 167.015C214.279 162.755 212.741 158.609 209.855 155.487Z" fill="white"/>
<path d="M190.131 141.985C189.496 141.302 188.618 140.9 187.689 140.867C186.759 140.834 185.855 141.173 185.174 141.81L168.641 157.31C167.96 157.948 167.56 158.832 167.527 159.767C167.494 160.702 167.832 161.612 168.466 162.296C169.101 162.98 169.979 163.383 170.909 163.416C171.838 163.449 172.743 163.109 173.423 162.471L189.957 146.971C190.636 146.333 191.036 145.449 191.069 144.514C191.102 143.58 190.764 142.67 190.131 141.985Z" fill="#E6E6E6"/>
<path d="M197.571 150.013C196.936 149.33 196.058 148.928 195.128 148.895C194.199 148.862 193.295 149.201 192.614 149.838L176.08 165.338C175.744 165.654 175.472 166.034 175.281 166.455C175.09 166.877 174.983 167.332 174.967 167.795C174.951 168.258 175.025 168.72 175.186 169.153C175.348 169.587 175.592 169.985 175.906 170.324C176.22 170.663 176.598 170.936 177.017 171.128C177.436 171.321 177.888 171.428 178.349 171.444C178.809 171.461 179.268 171.385 179.699 171.223C180.131 171.061 180.526 170.815 180.863 170.499L197.397 154.999C198.076 154.361 198.476 153.477 198.509 152.542C198.541 151.608 198.204 150.698 197.571 150.013Z" fill="#E6E6E6"/>
<path d="M205.01 158.041C204.376 157.358 203.497 156.956 202.568 156.923C201.639 156.89 200.734 157.229 200.054 157.866L183.52 173.366C182.84 174.004 182.439 174.888 182.406 175.823C182.374 176.758 182.712 177.668 183.346 178.352C183.98 179.037 184.859 179.439 185.788 179.472C186.718 179.505 187.622 179.165 188.303 178.527L204.836 163.027C205.516 162.389 205.916 161.505 205.948 160.57C205.981 159.636 205.644 158.726 205.01 158.041Z" fill="#E6E6E6"/>
<path d="M164.782 202.065L176.616 219.107L177.167 219.775C178.126 220.935 179.45 221.729 180.919 222.028C181.127 222.07 181.336 222.101 181.546 222.122C181.805 222.149 182.066 222.16 182.326 222.155C182.475 222.152 182.624 222.144 182.773 222.131C183.636 222.056 184.476 221.81 185.244 221.406L190.293 217.86C190.695 217.578 190.982 217.159 191.1 216.681C191.159 216.444 191.176 216.199 191.149 215.957C191.112 215.617 190.991 215.292 190.796 215.012L176.225 194.027C175.915 193.583 175.444 193.28 174.913 193.185C174.382 193.09 173.835 193.211 173.393 193.521L165.285 199.216C165.266 199.23 165.247 199.244 165.228 199.258C165.216 199.267 165.204 199.276 165.193 199.286C165.176 199.298 165.161 199.311 165.146 199.324C165.126 199.34 165.107 199.356 165.088 199.373C165.071 199.389 165.054 199.405 165.037 199.421L165.027 199.431C165.006 199.451 164.985 199.472 164.965 199.494C164.945 199.515 164.925 199.537 164.906 199.56C164.893 199.576 164.879 199.592 164.866 199.609L164.864 199.61C164.825 199.659 164.788 199.71 164.754 199.763C164.743 199.779 164.732 199.796 164.722 199.813L164.718 199.82C164.709 199.833 164.701 199.847 164.694 199.86C164.67 199.9 164.648 199.942 164.627 199.984C164.593 200.054 164.563 200.125 164.537 200.198C164.528 200.222 164.521 200.245 164.514 200.269C164.507 200.288 164.501 200.308 164.496 200.328L164.495 200.332L164.492 200.34C164.487 200.357 164.483 200.374 164.479 200.391C164.47 200.424 164.463 200.457 164.456 200.491C164.454 200.5 164.452 200.509 164.451 200.518C164.449 200.527 164.447 200.536 164.446 200.546C164.444 200.555 164.442 200.564 164.441 200.573L164.438 200.587C164.434 200.614 164.431 200.642 164.428 200.669C164.424 200.703 164.421 200.737 164.42 200.77C164.418 200.798 164.417 200.826 164.416 200.854C164.416 200.879 164.416 200.904 164.416 200.929C164.416 200.936 164.416 200.942 164.417 200.948C164.417 200.974 164.418 201 164.42 201.026C164.424 201.091 164.431 201.156 164.441 201.22C164.445 201.244 164.449 201.267 164.454 201.29C164.46 201.319 164.466 201.347 164.473 201.375C164.475 201.386 164.478 201.396 164.48 201.407C164.484 201.422 164.489 201.438 164.493 201.453C164.498 201.47 164.503 201.488 164.508 201.504L164.521 201.545C164.529 201.569 164.538 201.593 164.547 201.617C164.552 201.631 164.558 201.645 164.564 201.659C164.605 201.761 164.653 201.859 164.71 201.953C164.717 201.964 164.724 201.975 164.731 201.987C164.747 202.013 164.765 202.039 164.782 202.065Z" fill="white"/>
<path d="M172.796 202.712C171.837 202.712 171.059 201.929 171.059 200.965C171.059 200 171.837 199.217 172.796 199.217C173.756 199.217 174.533 200 174.533 200.965C174.533 201.929 173.756 202.712 172.796 202.712Z" fill="#00C9A7"/>
<path d="M192.419 219.427C193.107 218.649 193.616 217.728 193.912 216.73C194.207 215.733 194.282 214.682 194.13 213.652C193.978 212.622 193.604 211.638 193.033 210.769C192.462 209.901 191.709 209.169 190.827 208.625L200.035 164.524L187.83 169.244L180.765 211.375C179.954 212.927 179.738 214.724 180.156 216.426C180.575 218.127 181.6 219.615 183.036 220.608C184.473 221.6 186.221 222.028 187.951 221.811C189.68 221.593 191.27 220.745 192.419 219.427Z" fill="#FFB8B8"/>
<path d="M199.181 201.532L204.148 169.342L206.014 107.521L204.627 88.9913C204.515 87.4896 204.108 86.0251 203.43 84.6822C202.752 83.3393 201.817 82.1446 200.678 81.1669C199.539 80.1892 198.219 79.4478 196.794 78.9855C195.369 78.5232 193.867 78.3491 192.375 78.4731C190.416 78.6411 188.533 79.316 186.91 80.4322C185.286 81.5484 183.978 83.068 183.111 84.8433L179.482 92.3236L180.778 197.799L199.181 201.532Z" fill="#324844"/>
<path d="M178.987 55.3391C178.976 55.144 178.918 54.9545 178.817 54.7874C178.716 54.6204 178.576 54.4808 178.409 54.3812C178.242 54.2815 178.053 54.2247 177.859 54.2159C177.665 54.2071 177.472 54.2465 177.296 54.3306C177.121 54.4147 176.969 54.541 176.853 54.6983C176.738 54.8555 176.663 55.0389 176.635 55.2323C176.606 55.4256 176.626 55.623 176.692 55.8069C176.757 55.9909 176.867 56.1558 177.011 56.287L175.022 59.5745C174.94 59.7094 174.915 59.8713 174.952 60.0246C174.989 60.178 175.086 60.3103 175.22 60.3923C175.354 60.4744 175.515 60.4995 175.667 60.4622C175.82 60.4249 175.951 60.3281 176.033 60.1933L178.269 56.4969C178.493 56.4016 178.682 56.2393 178.81 56.0321C178.939 55.8249 179 55.5829 178.987 55.3391Z" fill="white"/>
<path d="M177.592 57.5741C177.518 57.7208 177.34 57.7798 177.194 57.7058C177.048 57.6318 176.99 57.4528 177.063 57.3061L177.596 56.2433C177.67 56.0966 177.848 56.0376 177.993 56.1116C178.139 56.1856 178.198 56.3646 178.124 56.5113L177.592 57.5741Z" fill="#324844"/>
</g>
<defs>
<clipPath id="clip0_4_330">
<rect width="341.419" height="365.806" fill="white" transform="matrix(-1 0 0 1 342.097 0.580688)"/>
</clipPath>
</defs>
</svg>
