<svg width="843" height="648" viewBox="0 0 843 648" fill="none" xmlns="http://www.w3.org/2000/svg">
<g clip-path="url(#clip0_2_85)">
<path d="M779.417 588.284C751.851 609.506 718.266 631.003 685.247 641.139C675.728 644.148 665.906 646.069 655.964 646.866C646.669 647.621 637.314 646.887 628.246 644.692C604.415 638.7 582.312 628.206 560.925 615.947C553.938 611.935 547.031 607.74 540.164 603.452C528.956 596.45 517.859 589.203 506.731 582.129C505.065 581.057 503.409 580.005 501.743 578.964H501.733C499.047 577.26 496.354 575.579 493.655 573.922C493.18 573.626 492.706 573.34 492.221 573.044C487.122 569.92 481.935 566.868 476.661 563.888C476.014 563.53 475.368 563.163 474.722 562.806C464.517 557.083 454.029 551.895 443.298 547.259C436.25 544.258 429.111 541.553 421.901 539.246H421.891C419.135 538.368 416.368 537.542 413.591 536.786C405.264 534.477 396.779 532.798 388.206 531.764C376.391 530.318 364.442 530.414 352.652 532.05C351.854 532.162 351.067 532.274 350.269 532.407C318.36 537.572 289.239 554.986 257.189 559.09C256.149 559.223 255.119 559.345 254.079 559.437C253.635 559.478 253.19 559.529 252.746 559.559C243.432 560.365 234.059 560.132 224.796 558.865C198.916 555.415 173.712 544.707 151.023 531.213C97.9802 499.661 54.9644 451.164 28.8116 395.002C24.3206 385.376 20.3333 375.519 16.8662 365.471C7.17239 337.607 1.83399 308.385 1.04319 278.859C-1.41053 176.415 56.1761 73.6335 146.59 27.3009C237.014 -19.0318 355.964 -3.71004 428.889 67.4681C473.126 110.647 498.724 169.157 532.016 221.43C565.307 273.694 612.625 323.619 673.655 331.234C704.745 335.113 737.28 327.611 767.078 337.369C783.577 342.779 797.653 353.13 808.993 366.318C816.617 375.268 822.997 385.227 827.956 395.92C831.591 403.651 834.541 411.692 836.772 419.949C837.186 421.47 837.569 422.991 837.943 424.512C852.786 485.799 829.067 550.046 779.417 588.284Z" fill="#00C9A7"/>
<path d="M282.857 477.337H187.94C173.719 477.337 162.191 488.991 162.191 503.366V503.366C162.191 517.742 173.719 529.396 187.94 529.396H282.857C297.078 529.396 308.606 517.742 308.606 503.366C308.606 488.991 297.078 477.337 282.857 477.337Z" fill="#3F3D56"/>
<path d="M254.079 516.126V559.437C244.329 560.391 234.502 560.199 224.796 558.865V516.126H254.079Z" fill="#3F3D56"/>
<path d="M352.652 532.05C351.854 532.162 351.067 532.274 350.269 532.407C318.361 537.572 289.239 554.987 257.189 559.09C256.149 559.223 255.119 559.345 254.079 559.437C253.635 559.478 253.191 559.529 252.746 559.56C244.921 551.812 237.095 543.564 229.744 535.02C225.755 530.396 221.898 525.68 218.273 520.903C208.862 508.572 200.885 495.894 195.614 483.441C196.149 477.469 192.474 463.658 190.717 453.083L190.707 453.073C189.959 448.633 189.555 444.774 189.929 442.294C192.07 427.983 203.631 429.626 207.186 415.601C210.392 412.911 213.806 410.484 217.395 408.343C217.99 407.986 218.596 407.629 219.222 407.271L257.795 380.323L272.538 394.94L294.974 417.193L319.289 441.294L298.65 462.372C298.65 462.372 315.897 482.471 336.062 509.266C341.474 516.463 347.098 524.149 352.652 532.05Z" fill="#324844"/>
<path d="M685.247 516.126V641.139C675.728 644.148 665.906 646.069 655.964 646.866V516.126H685.247Z" fill="#3F3D56"/>
<path d="M723.113 505.918H628.196C613.975 505.918 602.447 517.572 602.447 531.948V531.948C602.447 546.324 613.975 557.977 628.196 557.977H723.113C737.334 557.977 748.862 546.324 748.862 531.948C748.862 517.572 737.334 505.918 723.113 505.918Z" fill="#3F3D56"/>
<path d="M492.221 573.044C487.122 569.92 481.935 566.868 476.66 563.888C476.014 563.53 475.368 563.163 474.722 562.806L478.195 561.305L487.566 557.232L487.657 557.191L487.758 557.538L492.221 573.044Z" fill="#FFB6B6"/>
<path d="M506.731 582.129C505.065 581.057 503.409 580.006 501.743 578.964H501.733C499.047 577.26 496.354 575.579 493.655 573.922C493.18 573.626 492.706 573.34 492.221 573.044C487.122 569.92 481.935 566.868 476.661 563.888C476.014 563.53 475.368 563.163 474.722 562.806C464.517 557.083 454.029 551.895 443.298 547.259C436.25 544.258 429.111 541.553 421.901 539.246H421.891L416.226 529.661L390.73 486.493L385.126 477.01C385.126 477.01 366.011 482.726 338.96 488.208C329.114 490.209 318.229 492.168 306.809 493.822C294.601 495.578 281.797 496.976 269.074 497.65C263.005 497.977 256.957 498.14 250.999 498.089C235.6 497.987 220.807 496.527 207.852 493.057C203.53 488.953 190.505 483.369 181.174 478.255H181.164C177.246 476.112 173.995 474.06 172.288 472.233C162.453 461.719 170.855 453.522 162.11 442.049C161.992 437.84 162.205 433.628 162.746 429.453C162.837 428.758 162.928 428.054 163.039 427.34L165.796 380.017L186.274 377.281L217.435 373.116L251.191 368.605L254.907 398.023C254.907 398.023 281.191 396.676 314.493 397.125C367.98 397.86 439.552 403.249 449.246 426.38C450.154 428.554 451.063 430.749 451.972 432.944C454.133 438.19 456.274 443.464 458.394 448.765C466.078 467.956 473.409 487.33 480.104 505.643C484.264 517.034 488.182 528.018 491.787 538.297C494.685 546.565 497.371 554.384 499.825 561.581C502.066 568.154 504.096 574.208 505.903 579.638C506.186 580.485 506.459 581.322 506.731 582.129Z" fill="#324844"/>
<path d="M318.355 295.408L253.674 239.877L295.756 196.824L325.115 245.436L433.941 267.247C437.213 264.757 441.131 263.284 445.217 263.007C449.304 262.729 453.381 263.66 456.953 265.685C460.526 267.71 463.438 270.742 465.335 274.411C467.232 278.08 468.032 282.228 467.637 286.348C467.243 290.469 465.671 294.385 463.113 297.618C460.555 300.851 457.121 303.262 453.231 304.557C449.341 305.852 445.163 305.974 441.205 304.91C437.247 303.845 433.681 301.64 430.942 298.562L318.355 295.408Z" fill="#A0616A"/>
<path d="M196.511 166.896C189.036 191.478 260.227 250.109 260.227 250.109C261.018 244.207 301.381 295.097 304.127 290.488C311.931 277.39 320.519 245.011 329.529 240.873C334.682 238.506 305.122 205.612 305.122 205.612C305.122 205.612 290.044 185.446 270.135 159.888C264.64 152.556 257.398 146.75 249.086 143.009C240.773 139.268 231.659 137.714 222.592 138.491C222.592 138.491 203.986 142.313 196.511 166.896Z" fill="#3F3D56"/>
<path d="M227.987 112.475C252.148 112.475 271.734 92.675 271.734 68.2509C271.734 43.8268 252.148 24.0272 227.987 24.0272C203.827 24.0272 184.24 43.8268 184.24 68.2509C184.24 92.675 203.827 112.475 227.987 112.475Z" fill="#A0616A"/>
<path d="M249.861 141.703C259.286 147.368 264.923 157.775 268.16 168.365C274.152 187.971 277.758 208.242 278.9 228.73L282.318 290.067L324.654 420.671C287.963 452.056 150.047 427.804 150.047 427.804C150.047 427.804 145.814 426.378 150.047 422.098C154.281 417.818 158.402 421.61 154.169 417.33C149.935 413.05 152.854 417.818 154.265 413.538C155.676 409.259 154.265 412.112 152.854 410.685C151.442 409.259 163.778 396.42 163.778 396.42L152.489 321.451L138.377 170.235C155.311 148.836 189.368 136.222 189.368 136.222L198.168 120.209L242.168 123.768L249.861 141.703Z" fill="#3F3D56"/>
<path d="M264.05 44.7555C267.45 47.3191 269.969 50.8962 271.252 54.9831C271.745 48.3042 271.776 41.5987 271.346 34.9154C270.83 30.219 267.559 29.1626 263.772 27.9386C260.352 26.8327 256.484 25.5835 255.443 21.0244C241.692 7.50079 217.753 8.18272 201.37 12.8999C192.355 15.4958 187.168 18.8308 186.704 20.7846L186.608 21.1868L186.242 21.3718C179.293 24.8841 177.94 35.9752 178.03 44.6608C178.199 61.0251 183.788 79.6109 186.937 81.1207C187.104 81.2006 187.146 81.1693 187.218 81.1085C191.959 77.2783 197.744 81.3996 200.286 83.64C201.785 73.4693 206.612 64.0999 213.997 57.0281C221.382 49.9564 230.898 45.5902 241.025 44.627C244.333 44.3039 247.614 43.7477 250.845 42.9626C252.483 42.534 254.168 42.3105 255.861 42.2971C258.775 42.2524 261.632 43.1103 264.05 44.7555Z" fill="#324844"/>
<path d="M208.927 362.036L195.544 355.108C194.827 354.591 194.318 353.831 194.11 352.967C193.901 352.102 194.007 351.19 194.408 350.398C194.81 349.606 195.48 348.986 196.296 348.652C197.112 348.318 198.019 348.291 198.853 348.578L212.235 355.506C212.952 356.023 213.461 356.783 213.67 357.647C213.878 358.512 213.772 359.424 213.371 360.216C212.97 361.008 212.3 361.628 211.484 361.962C210.668 362.296 209.76 362.323 208.927 362.036Z" fill="#6C63FF"/>
<path d="M163.888 343.474L141.874 260.627L200.702 249.369L197.538 306.235L274.832 386.69C278.924 386.521 282.977 387.559 286.495 389.678C290.014 391.797 292.846 394.905 294.648 398.623C296.449 402.341 297.141 406.509 296.64 410.618C296.139 414.726 294.466 418.599 291.825 421.764C289.184 424.928 285.69 427.247 281.767 428.439C277.845 429.63 273.665 429.642 269.736 428.473C265.807 427.304 262.3 425.005 259.641 421.856C256.983 418.707 255.288 414.843 254.764 410.737L163.888 343.474Z" fill="#A0616A"/>
<path d="M135.855 167.737C115.887 183.673 141.516 272.81 141.516 272.81C145.484 268.408 150.095 333.469 154.945 331.254C168.73 324.957 193.995 303.246 203.736 305.015C209.306 306.027 203.47 261.981 203.47 261.981C203.47 261.981 202.397 236.725 200.379 204.258C199.977 195.069 197.282 186.131 192.544 178.278C187.806 170.425 181.18 163.911 173.282 159.343C173.282 159.343 155.823 151.801 135.855 167.737Z" fill="#3F3D56"/>
<path d="M827.956 395.92L28.8116 395.002C24.3206 385.376 20.3333 375.519 16.8661 365.471L808.993 366.318C816.617 375.268 822.997 385.227 827.956 395.92Z" fill="#3F3D56"/>
<path d="M573.426 610.098C569.296 612.119 565.129 614.069 560.925 615.947C553.938 611.935 547.031 607.74 540.165 603.453L565.631 592.143L573.426 610.098Z" fill="#FFB6B6"/>
<path d="M759.101 469.436C754.961 475.05 750.69 480.552 746.287 485.942C742.228 490.913 738.061 495.789 733.786 500.569C732.019 502.55 730.232 504.52 728.404 506.469C725.042 510.114 721.605 513.696 718.094 517.218C711.773 519.229 698.97 522.771 685.247 526.078C675.26 528.477 664.789 530.754 655.964 532.203C651.023 533.1 646.026 533.639 641.009 533.816C635.052 533.867 629.003 533.704 622.935 533.377C616.088 533.009 609.232 532.438 602.457 531.703C584.836 529.835 567.771 526.926 553.049 523.935C547.657 522.853 542.588 521.75 537.923 520.679C529.087 518.668 521.696 516.789 516.344 515.36C510.316 513.768 506.883 512.737 506.883 512.737L491.787 538.297L483.951 551.557L478.196 561.305L476.661 563.888C476.015 563.53 475.368 563.163 474.722 562.806C464.517 557.083 454.029 551.895 443.298 547.259C436.25 544.258 429.111 541.553 421.901 539.246H421.891C419.135 538.368 416.368 537.542 413.591 536.786C414.46 534.428 415.338 532.053 416.227 529.661C417.883 525.201 419.572 520.699 421.296 516.157C425.022 506.316 428.879 496.333 432.847 486.401C436.099 478.245 439.411 470.12 442.763 462.107C444.308 458.412 447.448 455.166 451.841 452.318C453.94 450.98 456.13 449.793 458.394 448.765C470.966 442.978 489.485 439.211 509.892 436.792C511.578 436.598 513.275 436.404 514.981 436.22C531.875 434.424 549.798 433.495 566.56 433.066C574.951 432.852 583.049 432.77 590.582 432.76C593.016 432.76 595.382 432.767 597.681 432.78H597.691C603.901 432.811 609.616 432.903 614.645 433.005C615.624 433.025 616.573 433.056 617.502 433.076H617.512C618.138 433.087 618.754 433.107 619.36 433.117C630.356 433.403 637.102 433.75 637.102 433.75L639.717 413.008L640.252 408.823L640.757 404.842V404.832L640.818 404.332L641.232 404.321L648.502 404.178L709.613 402.974L742.995 402.31L737.704 425.237L728.97 463.066C729.858 469.048 759.404 464.363 759.101 469.436Z" fill="#324844"/>
<path d="M580.959 606.321C578.465 607.607 575.95 608.873 573.426 610.098C569.296 612.119 565.129 614.069 560.925 615.947C553.937 611.935 547.031 607.74 540.164 603.453C528.956 596.45 517.859 589.203 506.731 582.129C505.065 581.057 503.409 580.006 501.743 578.964H501.733C497.149 572.084 492.473 564.919 487.758 557.538C487.687 557.436 487.626 557.334 487.566 557.232C486.354 555.354 485.149 553.462 483.951 551.557C476.408 539.614 468.825 527.16 461.464 514.442L480.104 505.643L514.759 489.29L520.736 486.473L537.923 520.679L553.251 551.189L556.664 557.977L580.959 606.321Z" fill="#324844"/>
<path d="M586.182 442.097L674.536 355.961L699.025 285.866L662.903 269.987C644.35 287.954 624.294 343.915 624.294 343.915L563.493 422.111C563.019 422.275 562.547 422.449 562.08 422.657C559.342 423.878 556.961 425.792 555.168 428.215C553.375 430.638 552.231 433.487 551.846 436.487C551.46 439.488 551.847 442.538 552.969 445.343C554.091 448.148 555.909 450.613 558.249 452.5C560.588 454.387 563.369 455.632 566.324 456.115C569.279 456.597 572.306 456.302 575.115 455.256C577.923 454.21 580.417 452.449 582.356 450.144C584.295 447.839 585.612 445.068 586.182 442.097Z" fill="#FFB8B8"/>
<path d="M652.739 277.814L698.557 292.518L698.73 292.489C715.784 289.601 729.934 261.445 738.802 238.333C741.72 230.71 741.665 222.251 738.65 214.667C735.634 207.083 729.882 200.939 722.557 197.477C717.137 194.961 711.128 194.027 705.21 194.782C699.292 195.537 693.701 197.95 689.069 201.749L665.541 221.183L652.739 277.814Z" fill="#6C63FF"/>
<path d="M758.917 470.47L759.184 470.11C773.48 450.944 753.928 403.481 750.972 396.598L764.264 392.618L761.947 367.033L760.831 355.625L771.166 345.703L771.201 345.45L778.309 294.318L787.608 260.475C791.113 247.681 791.188 234.175 787.823 221.343C784.458 208.51 777.776 196.814 768.463 187.455L749.451 168.374L726.675 132.334L688.486 131.338L674.754 155.998C661.983 158.633 650.532 165.713 642.394 176.005C634.256 186.298 629.948 199.15 630.22 212.323L631.513 277.974L617.811 359.316L617.426 374.091L603.977 388.439L606.463 402.943L596.403 406.994L591.48 427.605C589.6 429.983 577.186 445.846 577.073 450.268C577.056 450.932 577.524 451.587 578.546 452.326C586.582 458.138 631.496 470.731 651.71 463.16C673.241 455.102 757.628 470.236 758.478 470.39L758.917 470.47Z" fill="#4B31A1"/>
<path d="M704.245 120.29C732.187 120.29 754.838 97.3915 754.838 69.1454C754.838 40.8993 732.187 18.0013 704.245 18.0013C676.304 18.0013 653.653 40.8993 653.653 69.1454C653.653 97.3915 676.304 120.29 704.245 120.29Z" fill="#FFB8B8"/>
<path d="M698.074 120.974C705.908 121.097 713.739 120.544 721.481 119.32C729.154 117.743 746.32 105.026 751.105 97.3739C754.661 91.6883 756.934 82.8099 758.216 76.3634C759.941 67.8327 759.876 59.0307 758.022 50.5273C756.169 42.024 752.57 34.0089 747.458 27.0011C745.493 24.0699 742.781 21.73 739.609 20.2289C739.328 20.1178 739.038 20.0193 738.746 19.9351C734.124 18.7056 729.97 16.1075 726.819 12.4744C726.208 11.7396 725.545 11.0502 724.836 10.4116C721.275 7.37316 717.052 5.22992 712.514 4.15706C705.19 2.17533 694.589 4.14246 681.008 10.0095C674.185 12.9572 666.723 11.8904 660.982 10.6316C660.66 10.5687 660.328 10.5922 660.017 10.6996C659.707 10.8071 659.43 10.9948 659.214 11.244C656.771 13.5619 653.552 14.8593 650.202 14.8756C648.15 14.9667 645.997 17.8386 643.395 21.5838C642.805 22.4339 642.116 23.4261 641.619 24.0296L641.552 22.8702L640.392 24.1636C638.567 26.1965 637.281 28.663 636.654 31.3335C636.026 34.004 636.077 36.7916 636.803 39.4367C637.528 42.0818 638.903 44.4984 640.801 46.4615C642.699 48.4245 645.057 49.8702 647.656 50.6639C649.72 51.219 651.835 51.5596 653.967 51.6805C655.259 51.798 656.595 51.9195 657.875 52.1441C661.985 52.9948 665.806 54.9081 668.965 57.6973C672.125 60.4865 674.515 64.0562 675.902 68.058C676.23 68.983 676.764 69.8195 677.463 70.5027C678.162 71.186 679.006 71.6978 679.932 71.9987C680.857 72.2996 681.838 72.3815 682.8 72.2381C683.762 72.0947 684.678 71.7299 685.478 71.1717C686.812 70.1217 688.377 69.4135 690.04 69.1074C691.703 68.8012 693.415 68.9062 695.029 69.4135C696.424 70.1977 697.51 71.4428 698.105 72.9402C698.828 74.6085 700.026 76.0213 701.546 76.9985C706.746 79.7087 707.104 91.715 705.237 101.724C703.436 111.371 699.878 118.35 696.583 118.695C694.046 118.961 693.756 119.143 693.573 119.596L693.409 120.002L693.694 120.382C695.095 120.895 696.588 121.097 698.074 120.974Z" fill="#324844"/>
<path d="M665.303 262.351L645.796 223.035C617.481 224.991 561.284 258.086 561.284 258.086L454.958 280.875C451.808 279.651 448.394 279.287 445.061 279.821C441.728 280.354 438.593 281.766 435.972 283.914C433.35 286.061 431.334 288.869 430.127 292.055C428.92 295.24 428.564 298.691 429.096 302.06C429.628 305.429 431.028 308.596 433.155 311.244C435.283 313.892 438.063 315.926 441.216 317.143C444.369 318.359 447.783 318.714 451.114 318.173C454.446 317.631 457.578 316.212 460.195 314.058L595.448 304.258L665.303 262.351Z" fill="#FFB8B8"/>
<path d="M657.435 268.806L708.381 230.533L717.355 197.841C719.094 191.416 719.02 184.628 717.143 178.244C715.265 171.859 711.659 166.133 706.731 161.712C700.011 155.764 691.308 152.617 682.381 152.908C673.454 153.2 664.969 156.907 658.642 163.28C639.47 182.625 617.604 209.613 622.301 228.327L622.349 228.516L657.435 268.806Z" fill="#4B31A1"/>
<path d="M594.369 371.177H458.051V389.551H594.369V371.177Z" fill="#F5F5F5"/>
<path d="M246.001 371.177H109.683V389.551H246.001V371.177Z" fill="#F5F5F5"/>
<path d="M261.919 282.818V370.301C261.92 371.416 262.358 372.485 263.138 373.273C263.918 374.062 264.975 374.505 266.078 374.506H394.322C395.425 374.505 396.483 374.062 397.262 373.273C398.042 372.485 398.481 371.416 398.482 370.301V282.818C398.479 281.704 398.04 280.636 397.26 279.849C396.481 279.062 395.424 278.619 394.322 278.618H266.078C264.976 278.619 263.92 279.062 263.14 279.849C262.361 280.636 261.922 281.704 261.919 282.818Z" fill="#3F3D56"/>
<path d="M264.927 283.906V369.222C264.928 369.818 265.163 370.389 265.58 370.81C265.996 371.231 266.561 371.468 267.15 371.469H393.255C393.844 371.468 394.409 371.231 394.825 370.81C395.242 370.389 395.477 369.818 395.478 369.222V283.906C395.478 283.31 395.244 282.738 394.827 282.315C394.41 281.893 393.845 281.656 393.255 281.654H267.15C266.56 281.656 265.995 281.893 265.578 282.315C265.162 282.738 264.928 283.31 264.927 283.906Z" fill="#F5F5F5"/>
<path d="M259.237 387.363C259.472 387.661 259.77 387.901 260.11 388.065C260.45 388.23 260.822 388.314 261.199 388.312H398.518C398.894 388.312 399.265 388.227 399.604 388.063C399.943 387.9 400.241 387.662 400.478 387.367C400.714 387.072 400.883 386.728 400.971 386.359C401.059 385.99 401.065 385.605 400.988 385.234L398.857 374.998C398.768 374.581 398.578 374.192 398.303 373.868C398.029 373.544 397.678 373.295 397.283 373.143C396.998 373.029 396.694 372.971 396.387 372.972H263.322C263.015 372.971 262.711 373.029 262.426 373.143C262.031 373.295 261.68 373.544 261.406 373.868C261.131 374.192 260.941 374.581 260.852 374.998L258.721 385.234C258.645 385.605 258.652 385.989 258.741 386.357C258.83 386.726 259 387.069 259.237 387.363Z" fill="#324844"/>
<path d="M391.675 377.38H394.919C395.191 377.38 395.412 377.157 395.412 376.882V375.314C395.412 375.038 395.191 374.815 394.919 374.815H391.675C391.403 374.815 391.182 375.038 391.182 375.314V376.882C391.182 377.157 391.403 377.38 391.675 377.38Z" fill="#3F3D56"/>
<path d="M383.217 377.38H386.46C386.732 377.38 386.953 377.157 386.953 376.882V375.314C386.953 375.038 386.732 374.815 386.46 374.815H383.217C382.944 374.815 382.724 375.038 382.724 375.314V376.882C382.724 377.157 382.944 377.38 383.217 377.38Z" fill="#3F3D56"/>
<path d="M374.758 377.38H378.001C378.273 377.38 378.494 377.157 378.494 376.882V375.314C378.494 375.038 378.273 374.815 378.001 374.815H374.758C374.485 374.815 374.265 375.038 374.265 375.314V376.882C374.265 377.157 374.485 377.38 374.758 377.38Z" fill="#3F3D56"/>
<path d="M366.299 377.38H369.542C369.815 377.38 370.035 377.157 370.035 376.882V375.314C370.035 375.038 369.815 374.815 369.542 374.815H366.299C366.027 374.815 365.806 375.038 365.806 375.314V376.882C365.806 377.157 366.027 377.38 366.299 377.38Z" fill="#3F3D56"/>
<path d="M357.84 377.38H361.084C361.356 377.38 361.576 377.157 361.576 376.882V375.314C361.576 375.038 361.356 374.815 361.084 374.815H357.84C357.568 374.815 357.347 375.038 357.347 375.314V376.882C357.347 377.157 357.568 377.38 357.84 377.38Z" fill="#3F3D56"/>
<path d="M349.381 377.38H352.625C352.897 377.38 353.118 377.157 353.118 376.882V375.314C353.118 375.038 352.897 374.815 352.625 374.815H349.381C349.109 374.815 348.888 375.038 348.888 375.314V376.882C348.888 377.157 349.109 377.38 349.381 377.38Z" fill="#3F3D56"/>
<path d="M340.923 377.38H344.166C344.439 377.38 344.659 377.157 344.659 376.882V375.314C344.659 375.038 344.439 374.815 344.166 374.815H340.923C340.651 374.815 340.43 375.038 340.43 375.314V376.882C340.43 377.157 340.651 377.38 340.923 377.38Z" fill="#3F3D56"/>
<path d="M332.464 377.38H335.707C335.98 377.38 336.2 377.157 336.2 376.882V375.314C336.2 375.038 335.98 374.815 335.707 374.815H332.464C332.192 374.815 331.971 375.038 331.971 375.314V376.882C331.971 377.157 332.192 377.38 332.464 377.38Z" fill="#3F3D56"/>
<path d="M324.005 377.38H327.249C327.521 377.38 327.742 377.157 327.742 376.882V375.314C327.742 375.038 327.521 374.815 327.249 374.815H324.005C323.733 374.815 323.512 375.038 323.512 375.314V376.882C323.512 377.157 323.733 377.38 324.005 377.38Z" fill="#3F3D56"/>
<path d="M315.546 377.38H318.79C319.062 377.38 319.283 377.157 319.283 376.882V375.314C319.283 375.038 319.062 374.815 318.79 374.815H315.546C315.274 374.815 315.053 375.038 315.053 375.314V376.882C315.053 377.157 315.274 377.38 315.546 377.38Z" fill="#3F3D56"/>
<path d="M307.088 377.38H310.331C310.603 377.38 310.824 377.157 310.824 376.882V375.314C310.824 375.038 310.603 374.815 310.331 374.815H307.088C306.815 374.815 306.595 375.038 306.595 375.314V376.882C306.595 377.157 306.815 377.38 307.088 377.38Z" fill="#3F3D56"/>
<path d="M298.629 377.38H301.873C302.145 377.38 302.365 377.157 302.365 376.882V375.314C302.365 375.038 302.145 374.815 301.873 374.815H298.629C298.357 374.815 298.136 375.038 298.136 375.314V376.882C298.136 377.157 298.357 377.38 298.629 377.38Z" fill="#3F3D56"/>
<path d="M290.17 377.38H293.414C293.686 377.38 293.907 377.157 293.907 376.882V375.314C293.907 375.038 293.686 374.815 293.414 374.815H290.17C289.898 374.815 289.677 375.038 289.677 375.314V376.882C289.677 377.157 289.898 377.38 290.17 377.38Z" fill="#3F3D56"/>
<path d="M281.712 377.38H284.955C285.227 377.38 285.448 377.157 285.448 376.882V375.314C285.448 375.038 285.227 374.815 284.955 374.815H281.712C281.439 374.815 281.219 375.038 281.219 375.314V376.882C281.219 377.157 281.439 377.38 281.712 377.38Z" fill="#3F3D56"/>
<path d="M273.253 377.38H276.496C276.769 377.38 276.989 377.157 276.989 376.882V375.314C276.989 375.038 276.769 374.815 276.496 374.815H273.253C272.981 374.815 272.76 375.038 272.76 375.314V376.882C272.76 377.157 272.981 377.38 273.253 377.38Z" fill="#3F3D56"/>
<path d="M264.794 377.38H268.037C268.31 377.38 268.53 377.157 268.53 376.882V375.314C268.53 375.038 268.31 374.815 268.037 374.815H264.794C264.522 374.815 264.301 375.038 264.301 375.314V376.882C264.301 377.157 264.522 377.38 264.794 377.38Z" fill="#3F3D56"/>
<path d="M391.775 381.656H395.019C395.291 381.656 395.512 381.433 395.512 381.158V379.589C395.512 379.314 395.291 379.091 395.019 379.091H391.775C391.503 379.091 391.282 379.314 391.282 379.589V381.158C391.282 381.433 391.503 381.656 391.775 381.656Z" fill="#3F3D56"/>
<path d="M383.316 381.656H386.56C386.832 381.656 387.053 381.433 387.053 381.158V379.589C387.053 379.314 386.832 379.091 386.56 379.091H383.316C383.044 379.091 382.823 379.314 382.823 379.589V381.158C382.823 381.433 383.044 381.656 383.316 381.656Z" fill="#3F3D56"/>
<path d="M374.858 381.656H378.101C378.373 381.656 378.594 381.433 378.594 381.158V379.589C378.594 379.314 378.373 379.091 378.101 379.091H374.858C374.585 379.091 374.365 379.314 374.365 379.589V381.158C374.365 381.433 374.585 381.656 374.858 381.656Z" fill="#3F3D56"/>
<path d="M366.399 381.656H369.642C369.914 381.656 370.135 381.433 370.135 381.158V379.589C370.135 379.314 369.914 379.091 369.642 379.091H366.399C366.126 379.091 365.906 379.314 365.906 379.589V381.158C365.906 381.433 366.126 381.656 366.399 381.656Z" fill="#3F3D56"/>
<path d="M357.94 381.656H361.184C361.456 381.656 361.677 381.433 361.677 381.158V379.589C361.677 379.314 361.456 379.091 361.184 379.091H357.94C357.668 379.091 357.447 379.314 357.447 379.589V381.158C357.447 381.433 357.668 381.656 357.94 381.656Z" fill="#3F3D56"/>
<path d="M349.482 381.656H352.725C352.997 381.656 353.218 381.433 353.218 381.158V379.589C353.218 379.314 352.997 379.091 352.725 379.091H349.482C349.209 379.091 348.989 379.314 348.989 379.589V381.158C348.989 381.433 349.209 381.656 349.482 381.656Z" fill="#3F3D56"/>
<path d="M341.023 381.656H344.266C344.538 381.656 344.759 381.433 344.759 381.158V379.589C344.759 379.314 344.538 379.091 344.266 379.091H341.023C340.75 379.091 340.53 379.314 340.53 379.589V381.158C340.53 381.433 340.75 381.656 341.023 381.656Z" fill="#3F3D56"/>
<path d="M332.564 381.656H335.807C336.08 381.656 336.3 381.433 336.3 381.158V379.589C336.3 379.314 336.08 379.091 335.807 379.091H332.564C332.292 379.091 332.071 379.314 332.071 379.589V381.158C332.071 381.433 332.292 381.656 332.564 381.656Z" fill="#3F3D56"/>
<path d="M324.105 381.656H327.348C327.621 381.656 327.841 381.433 327.841 381.158V379.589C327.841 379.314 327.621 379.091 327.348 379.091H324.105C323.833 379.091 323.612 379.314 323.612 379.589V381.158C323.612 381.433 323.833 381.656 324.105 381.656Z" fill="#3F3D56"/>
<path d="M315.646 381.656H318.89C319.162 381.656 319.383 381.433 319.383 381.158V379.589C319.383 379.314 319.162 379.091 318.89 379.091H315.646C315.374 379.091 315.153 379.314 315.153 379.589V381.158C315.153 381.433 315.374 381.656 315.646 381.656Z" fill="#3F3D56"/>
<path d="M307.188 381.656H310.431C310.703 381.656 310.924 381.433 310.924 381.158V379.589C310.924 379.314 310.703 379.091 310.431 379.091H307.188C306.916 379.091 306.695 379.314 306.695 379.589V381.158C306.695 381.433 306.916 381.656 307.188 381.656Z" fill="#3F3D56"/>
<path d="M298.729 381.656H301.972C302.245 381.656 302.465 381.433 302.465 381.158V379.589C302.465 379.314 302.245 379.091 301.972 379.091H298.729C298.457 379.091 298.236 379.314 298.236 379.589V381.158C298.236 381.433 298.457 381.656 298.729 381.656Z" fill="#3F3D56"/>
<path d="M290.27 381.656H293.514C293.786 381.656 294.007 381.433 294.007 381.158V379.589C294.007 379.314 293.786 379.091 293.514 379.091H290.27C289.998 379.091 289.777 379.314 289.777 379.589V381.158C289.777 381.433 289.998 381.656 290.27 381.656Z" fill="#3F3D56"/>
<path d="M281.811 381.656H285.055C285.327 381.656 285.548 381.433 285.548 381.158V379.589C285.548 379.314 285.327 379.091 285.055 379.091H281.811C281.539 379.091 281.318 379.314 281.318 379.589V381.158C281.318 381.433 281.539 381.656 281.811 381.656Z" fill="#3F3D56"/>
<path d="M273.353 381.656H276.596C276.868 381.656 277.089 381.433 277.089 381.158V379.589C277.089 379.314 276.868 379.091 276.596 379.091H273.353C273.08 379.091 272.86 379.314 272.86 379.589V381.158C272.86 381.433 273.08 381.656 273.353 381.656Z" fill="#3F3D56"/>
<path d="M264.894 381.656H268.137C268.41 381.656 268.63 381.433 268.63 381.158V379.589C268.63 379.314 268.41 379.091 268.137 379.091H264.894C264.622 379.091 264.401 379.314 264.401 379.589V381.158C264.401 381.433 264.622 381.656 264.894 381.656Z" fill="#3F3D56"/>
<path d="M321.568 386.786H354.417C354.689 386.786 354.91 386.563 354.91 386.288V384.719C354.91 384.444 354.689 384.221 354.417 384.221H321.568C321.295 384.221 321.075 384.444 321.075 384.719V386.288C321.075 386.563 321.295 386.786 321.568 386.786Z" fill="#3F3D56"/>
</g>
<defs>
<clipPath id="clip0_2_85">
<rect width="841.355" height="646.258" fill="white" transform="translate(0.967712 0.870956)"/>
</clipPath>
</defs>
</svg>
