<svg width="403" height="343" viewBox="0 0 403 343" fill="none" xmlns="http://www.w3.org/2000/svg">
<g clip-path="url(#clip0_4_236)">
<path d="M130.315 328.131C129.933 328.148 129.554 328.051 129.23 327.851C128.907 327.652 128.654 327.36 128.506 327.016C128.359 326.672 128.323 326.292 128.405 325.927C128.486 325.563 128.681 325.232 128.962 324.979C129.009 324.796 129.043 324.665 129.09 324.483C129.073 324.443 129.056 324.404 129.039 324.364C128.653 323.478 128.008 322.722 127.183 322.191C126.358 321.661 125.391 321.38 124.402 321.384C123.414 321.387 122.449 321.675 121.628 322.212C120.807 322.748 120.167 323.508 119.789 324.398C118.276 327.947 116.35 331.502 115.875 335.255C115.666 336.914 115.755 338.596 116.136 340.225C112.582 332.675 110.737 324.468 110.725 316.162C110.725 314.078 110.843 311.995 111.081 309.924C111.278 308.226 111.551 306.54 111.9 304.866C113.804 295.783 117.894 287.27 123.831 280.026C126.705 278.499 129.03 276.15 130.491 273.296C131.02 272.27 131.394 271.175 131.602 270.045C131.277 270.086 130.948 270.112 130.624 270.133C130.523 270.138 130.416 270.143 130.315 270.148L130.277 270.15C129.921 270.165 129.568 270.08 129.26 269.905C128.952 269.729 128.703 269.471 128.542 269.161C128.382 268.85 128.317 268.502 128.355 268.156C128.393 267.811 128.533 267.483 128.758 267.214C128.898 267.046 129.038 266.878 129.178 266.711C129.391 266.452 129.609 266.198 129.821 265.939C129.846 265.915 129.869 265.889 129.89 265.861C130.135 265.566 130.379 265.276 130.624 264.981C130.177 264.307 129.577 263.741 128.87 263.33C126.42 261.932 123.04 262.9 121.27 265.059C119.495 267.218 119.16 270.246 119.776 272.944C120.383 275.239 121.385 277.417 122.742 279.384C122.609 279.55 122.471 279.71 122.338 279.876C119.909 282.918 117.792 286.185 116.018 289.63C116.449 285.771 115.934 281.867 114.515 278.24C113.076 274.86 110.38 272.013 108.006 269.09C105.153 265.58 99.3051 267.112 98.8026 271.562C98.7978 271.605 98.793 271.648 98.7884 271.691C99.1411 271.885 99.4863 272.09 99.8241 272.308C100.248 272.584 100.577 272.979 100.767 273.44C100.958 273.901 101 274.408 100.89 274.893C100.78 275.379 100.521 275.82 100.149 276.16C99.7764 276.5 99.3073 276.722 98.8029 276.798L98.7512 276.806C98.8769 278.044 99.0989 279.271 99.4156 280.476C100.333 283.841 101.954 286.985 104.177 289.712C106.401 292.438 109.178 294.687 112.336 296.318C112.543 296.422 112.745 296.525 112.952 296.624C111.169 301.546 110.051 306.673 109.625 311.876C109.384 314.945 109.398 318.029 109.668 321.096L109.652 320.987C108.971 317.576 107.104 314.499 104.364 312.274C100.294 309.018 94.5445 307.819 90.1542 305.201C89.6876 304.909 89.1451 304.754 88.5906 304.752C88.0361 304.751 87.4928 304.904 87.0248 305.194C86.5568 305.483 86.1835 305.897 85.949 306.387C85.7146 306.876 85.6287 307.421 85.7015 307.956C85.7074 307.994 85.7134 308.032 85.7195 308.07C86.3739 308.33 87.0112 308.629 87.6275 308.966C87.9801 309.16 88.3254 309.366 88.6631 309.583C89.0875 309.859 89.4163 310.254 89.6065 310.715C89.7966 311.176 89.8393 311.683 89.729 312.168C89.6186 312.654 89.3603 313.095 88.9878 313.435C88.6154 313.775 88.1463 313.997 87.6419 314.073L87.5902 314.081C87.553 314.086 87.5212 314.091 87.484 314.097C88.6023 316.697 90.1717 319.091 92.1237 321.174C94.5351 323.694 97.4496 325.708 100.688 327.092C103.927 328.477 107.422 329.202 110.959 329.224H110.965C111.925 333.288 113.316 337.244 115.115 341.028H129.943C129.997 340.867 130.044 340.702 130.092 340.541C128.72 340.625 127.342 340.545 125.989 340.303C127.089 338.988 128.19 337.663 129.29 336.348C129.314 336.323 129.337 336.297 129.359 336.27C129.917 335.597 130.48 334.929 131.038 334.256L131.039 334.255C131.068 332.192 130.825 330.134 130.315 328.131Z" fill="#F2F2F2"/>
<path d="M180.009 50.3822C180.009 60.1134 175.011 70.0157 165.022 70.0157C155.032 70.0157 141.248 62.9678 144.349 47.8651C146.308 38.3229 151.931 32.7623 161.921 32.7623C166.718 32.7623 171.319 34.6187 174.711 37.9231C178.103 41.2274 180.009 45.7091 180.009 50.3822Z" fill="#324844"/>
<path d="M138.103 189.415C138.647 188.827 139.052 188.13 139.29 187.372C139.528 186.615 139.592 185.816 139.479 185.032C139.366 184.248 139.077 183.497 138.634 182.833C138.19 182.17 137.603 181.608 136.913 181.19L141.286 162.416L131.673 165.938L128.994 183.227C128.349 184.403 128.169 185.768 128.488 187.065C128.808 188.361 129.604 189.499 130.727 190.262C131.849 191.025 133.22 191.36 134.58 191.204C135.939 191.048 137.193 190.411 138.103 189.415Z" fill="#FFB8B8"/>
<path d="M158.506 122.871L151.797 123.536C151.797 123.536 153.551 133.217 150.808 135.398C148.064 137.578 149.17 137.568 149.186 139.184C149.202 140.8 148.122 143.504 145.926 145.141C143.73 146.778 139.162 175.928 139.162 175.928L129.208 176.021C129.505 173.514 129.48 170.98 129.133 168.479C128.543 164.713 125.56 155.228 126.65 153.601C127.74 151.975 127.166 148.984 127.134 145.752C127.103 142.519 131.849 146.091 131.796 140.704C131.743 135.317 137.832 101.514 137.231 96.6705C136.63 91.8273 142.671 87.4609 142.671 87.4609L148.201 87.4092L158.506 122.871Z" fill="#00C9A7"/>
<path d="M229.728 77.4085C229.895 78.141 229.896 78.9003 229.729 79.633C229.563 80.3656 229.233 81.0538 228.764 81.6491C228.295 82.2443 227.698 82.7321 227.014 83.0782C226.331 83.4242 225.578 83.6201 224.808 83.6519L219.426 101.123L213.185 93.8503L219.253 78.3747C219.283 77.1117 219.789 75.9035 220.673 74.9792C221.557 74.0548 222.758 73.4785 224.05 73.3594C225.341 73.2403 226.632 73.5867 227.679 74.333C228.725 75.0793 229.454 76.1736 229.728 77.4085Z" fill="#FFB8B8"/>
<path d="M172.907 83.099C172.907 83.099 185.918 78.3469 192.972 104.371L202.336 113.818L210.203 99.9706L209.163 96.6857L215.243 83.2589L225.667 89.0865L223.101 98.3048L223.535 102.862L221.044 105.696L216.966 120.345L214.415 125.131C214.415 125.131 211.198 131.258 205.582 132.268C204.085 132.541 202.554 132.583 201.043 132.393C198.086 132.017 194.845 130.689 191.515 127.759C179.159 116.888 171.851 108.502 171.851 108.502L172.907 83.099Z" fill="#00C9A7"/>
<path d="M235.633 88.6339L212.471 66.8596C212.345 66.7409 212.27 66.5795 212.262 66.4088C212.255 66.238 212.315 66.0709 212.43 65.9418C212.545 65.8127 212.706 65.7315 212.881 65.7149C213.055 65.6984 213.23 65.7477 213.368 65.8527L237.927 84.4902L235.633 88.6339Z" fill="#3F3D56"/>
<path d="M245.172 91.0474C244.01 91.4449 242.805 91.7073 241.58 91.8292C240.956 91.8889 240.331 91.9103 239.711 91.9175C239.493 91.9249 239.272 91.9258 239.056 91.9285C238.541 91.9359 238.026 91.9433 237.506 91.9489C237.067 91.9572 236.624 91.9637 236.187 91.9673C235.544 91.977 234.838 91.9639 234.377 91.5239C234.182 91.302 234.04 91.0407 233.961 90.7589C233.883 90.4771 233.869 90.1817 233.922 89.8942C234.024 89.293 234.211 88.7083 234.478 88.1567C235.033 86.854 235.594 85.5531 236.15 84.2504L236.063 83.5213C237.083 83.3775 238.122 83.4085 239.131 83.6131C239.543 83.7156 239.93 83.8984 240.268 84.1503C240.606 84.4023 240.888 84.7183 241.098 85.0793C241.185 85.2416 241.255 85.4126 241.306 85.5893C241.523 86.3656 241.367 87.2271 241.46 88.0392C241.482 88.2082 241.514 88.3757 241.556 88.5409C241.676 89.0292 241.904 89.486 242.226 89.8784C242.547 90.2708 242.954 90.5893 243.416 90.8112C243.967 91.0477 244.576 91.1295 245.172 91.0474Z" fill="#CCCCCC"/>
<path d="M246.801 90.4161C246.318 90.7501 245.759 90.9665 245.172 91.0474C245.726 90.8637 246.269 90.653 246.801 90.4161Z" fill="#E6E6E6"/>
<path d="M245.172 91.0474C244.01 91.4449 242.804 91.7074 241.579 91.8292C240.956 91.8889 240.331 91.9103 239.711 91.9176C239.493 91.925 239.272 91.9258 239.056 91.9285C238.541 91.9359 238.026 91.9433 237.506 91.949C237.531 91.6946 237.57 91.4417 237.623 91.1913C238.109 88.8543 239.52 86.867 241.097 85.0793C241.185 85.2417 241.255 85.4126 241.306 85.5893C241.523 86.3656 241.367 87.2271 241.46 88.0393C241.482 88.2082 241.514 88.3757 241.556 88.5409C241.676 89.0293 241.904 89.486 242.226 89.8784C242.547 90.2709 242.953 90.5894 243.416 90.8112C243.967 91.0477 244.576 91.1296 245.172 91.0474Z" fill="#00C9A7"/>
<path d="M155.455 126.675L154.535 130.948L153.752 146.707L185.193 142.56L187.607 124.312L184.27 118.971L155.455 126.675Z" fill="#FFB6B6"/>
<path d="M178.71 62.2189C182.652 55.1947 180.002 46.3877 172.791 42.5479C165.58 38.7081 156.539 41.2896 152.597 48.3138C148.655 55.338 151.305 64.145 158.516 67.9848C165.727 71.8246 174.768 69.2431 178.71 62.2189Z" fill="#FFB7B7"/>
<path d="M143.236 107.036L139.144 96.6807C139.142 92.3454 140.648 88.1374 143.417 84.7431C146.185 81.3488 150.053 78.9686 154.389 77.9906L154.445 77.9778L157.387 74.116L169.342 75.2808L171.533 79.6429L180.195 84.6672L190.047 95.9041C193.149 98.0743 194.992 100.857 195.525 104.176C196.658 111.221 191.594 118.27 190.991 119.078L189.439 127.593L153.554 132.602L153.28 132.636L143.236 107.036Z" fill="#00C9A7"/>
<path d="M150.081 59.0662C150.216 59.0454 150.351 59.0177 150.486 58.997C152.807 58.596 155.128 58.2019 157.442 57.7939L157.655 52.6844L160.458 57.2615C166.854 59.3288 172.837 58.1604 178.466 55.5814C180.323 54.7228 182.124 53.7554 183.861 52.6844C185.072 45.4871 182.017 39.815 174.172 39.091C173.928 39.0685 173.753 38.8697 173.54 38.7659L173.537 38.7654L173.535 38.7639L173.534 38.7617L173.533 38.759C173.171 38.5931 172.802 38.4341 172.433 38.2889C169.543 37.1889 166.392 36.9103 163.347 37.4855C160.301 38.0608 157.485 39.4662 155.227 41.5385C150.684 45.7632 148.64 52.7396 150.081 59.0662Z" fill="#324844"/>
<path d="M177.372 305.119L185.909 308.94L205.101 278.683L192.502 273.044L177.372 305.119Z" fill="#FFB6B6"/>
<path d="M177.191 300.069L191.055 305.325L188.399 310.957L197.156 325.331C197.589 326.041 197.778 326.867 197.694 327.689C197.611 328.51 197.26 329.284 196.693 329.898C196.126 330.511 195.372 330.932 194.542 331.099C193.712 331.266 192.849 331.17 192.079 330.825L176.013 323.634L175.872 316.823L172.163 321.91L166.105 319.199L177.191 300.069Z" fill="#324844"/>
<path d="M140.055 323.891H149.45L153.919 288.592L140.054 288.593L140.055 323.891Z" fill="#FFB6B6"/>
<path d="M134.946 251.459L134.946 251.365L138.475 245.441L134.871 237.73L134.615 190.866C133.196 157 153.366 140.72 153.525 140.56L153.962 140.117L186.309 139.346C186.309 139.346 203.311 187.963 216.817 231.77C217.615 234.359 219.873 236.913 219.171 239.476C213.602 259.807 206.991 282.818 202.749 283.467L189.311 276.42L191.809 241.184L190.273 237.349C187.523 236.856 180.373 209.825 180.373 209.825C179.174 208.438 179.236 204.67 179.236 204.67L169.87 195.091L161.238 239.243L163.372 252.411L161.606 256.939L154.041 294.321L153.96 294.923L139.698 293.536L134.946 251.459Z" fill="#324844"/>
<path d="M136.873 319.377L151.725 318.514V324.712L165.844 334.211C166.542 334.68 167.067 335.354 167.344 336.134C167.62 336.915 167.633 337.761 167.381 338.549C167.128 339.337 166.624 340.026 165.942 340.515C165.259 341.005 164.434 341.268 163.586 341.268H145.905L142.857 335.137L141.667 341.268H135.001L136.873 319.377Z" fill="#324844"/>
<path d="M155.782 38.399V38.4113C155.784 39.1699 155.685 39.9256 155.487 40.6594C155.455 40.788 155.417 40.9228 155.373 41.0514V41.0575C154.951 42.3679 154.224 43.5652 153.247 44.5557C152.271 45.5462 151.072 46.303 149.745 46.7666C149.55 46.8401 149.349 46.9014 149.148 46.9565C148.724 47.0763 148.291 47.1623 147.852 47.2138C147.459 47.2681 147.061 47.2947 146.664 47.2934C146.353 47.2947 146.042 47.2804 145.733 47.2505C145.009 47.1792 144.298 47.0207 143.614 46.7788C143.507 46.7485 143.402 46.7117 143.299 46.6686C143.248 46.6508 143.198 46.6304 143.149 46.6074C142.008 46.1422 140.976 45.456 140.116 44.5906C139.255 43.7251 138.585 42.6983 138.144 41.5726C137.704 40.4469 137.503 39.2458 137.553 38.0421C137.604 36.8384 137.905 35.6573 138.438 34.5705L138.445 34.5643C138.892 33.6525 139.498 32.8234 140.237 32.1141C141.885 30.5153 142.611 26.5086 145.113 26.5086C145.233 26.5065 145.353 26.5106 145.472 26.5208C147.151 26.5759 150.254 30.1049 151.575 30.938C152.556 31.5416 153.406 32.3261 154.078 33.2474C154.779 34.1951 155.28 35.2697 155.549 36.4082C155.704 37.0611 155.782 37.729 155.782 38.399Z" fill="#324844"/>
<path d="M144.641 35.3061C143.225 36.9121 141.008 37.5363 139.008 38.372C135.478 39.8804 132.379 42.2048 129.98 45.1436C127.581 48.0824 125.954 51.5469 125.24 55.2367C124.687 58.2421 124.76 61.3533 123.886 64.2832C123.018 67.2132 120.868 70.0877 117.783 70.5962C115.695 70.9435 113.602 70.1582 111.638 69.3829C110.558 68.96 109.478 68.5355 108.398 68.1092C109.524 65.3555 110.649 62.6018 111.772 59.8481C109.967 62.4468 107.868 64.8397 105.514 66.9816C101.643 65.4612 97.7686 63.9409 93.8908 62.4205C103.431 62.4558 101.803 53.4344 103.938 44.3829C105.111 39.409 115.101 36.0411 117.059 31.3089C118.118 28.7422 119.909 26.5246 122.221 24.9185C124.533 23.3124 127.268 22.3851 130.104 22.2464C132.94 22.1076 135.758 22.7632 138.223 24.1355C140.689 25.5078 142.699 27.5395 144.016 29.99C145.975 30.7501 146.032 33.7203 144.641 35.3061Z" fill="#324844"/>
<path d="M185.162 141.565C187.357 142.122 189.382 143.188 191.063 144.672C192.744 146.156 194.033 148.013 194.819 150.086C195.244 151.278 195.509 152.691 194.779 153.825C194.556 154.231 194.189 154.545 193.747 154.709C193.304 154.872 192.816 154.874 192.373 154.714C191.42 154.331 190.764 153.382 190.279 152.541C189.637 151.353 189.085 150.12 188.628 148.853C187.879 146.941 186.283 143.749 188.563 142.255C190.48 140.997 193.019 141.486 195.176 141.4C197.508 141.306 200.099 140.437 200.927 138.083C201.733 135.794 199.844 133.641 197.808 132.77C196.584 132.276 195.255 132.081 193.936 132.204C192.617 132.326 191.348 132.761 190.242 133.472C188.056 134.948 186.495 137.148 185.849 139.662C185.803 139.852 185.834 140.053 185.936 140.222C186.038 140.39 186.204 140.514 186.398 140.566C186.592 140.618 186.799 140.595 186.975 140.501C187.152 140.407 187.284 140.25 187.344 140.063C187.985 137.787 189.369 135.645 191.53 134.478C193.553 133.386 196.327 133.319 198.215 134.733C199.148 135.432 199.881 136.596 199.403 137.751C198.964 138.812 197.822 139.443 196.734 139.699C194.274 140.278 191.701 139.528 189.25 140.294C186.911 141.024 185.564 142.887 185.901 145.304C186.156 146.662 186.57 147.988 187.133 149.255C187.611 150.557 188.171 151.83 188.808 153.067C189.782 154.859 191.537 156.799 193.853 156.274C196.493 155.675 197.12 152.672 196.554 150.464C195.264 145.429 190.633 141.395 185.574 140.109C185.379 140.063 185.173 140.093 184.999 140.193C184.826 140.293 184.7 140.454 184.646 140.643C184.593 140.832 184.617 141.033 184.713 141.205C184.809 141.377 184.97 141.506 185.162 141.565Z" fill="#324844"/>
<path d="M208.364 279.109C207.268 277.847 205.704 277.076 204.185 276.339L191.438 270.154L191.075 272.358C190.594 270.909 188.228 270.802 187.269 272.006C186.31 273.209 186.617 275.028 187.552 276.249C188.487 277.47 189.908 278.232 191.283 278.958C194.333 280.565 197.383 282.173 200.433 283.781C201.853 284.53 203.32 285.294 204.926 285.465C206.532 285.636 208.331 285.072 209.132 283.705C209.973 282.268 209.46 280.372 208.364 279.109Z" fill="#324844"/>
<path d="M158.778 290.626C157.218 289.973 155.466 289.964 153.769 289.965C149.022 289.969 144.275 289.973 139.528 289.976L140.214 292.106C139.118 291.019 136.953 291.953 136.646 293.447C136.34 294.941 137.449 296.435 138.845 297.12C140.242 297.806 141.862 297.87 143.425 297.921C146.891 298.032 150.357 298.144 153.823 298.256C155.438 298.308 157.1 298.353 158.616 297.808C160.131 297.262 161.482 295.975 161.572 294.404C161.665 292.753 160.337 291.279 158.778 290.626Z" fill="#324844"/>
<path d="M238.815 193.23C217.93 193.23 195.234 189.176 172.69 181.38C144.812 171.74 119.251 157.189 98.7701 139.299L99.3766 138.115C119.759 155.917 145.207 170.402 172.969 180.002C198.058 188.678 223.335 192.698 246.058 191.637L246.098 193.062C243.698 193.174 241.27 193.231 238.815 193.23Z" fill="#F0F0F0"/>
<path d="M51.7078 118.985C34.9734 97.4661 41.6098 72.9064 31.8057 55.773C-5.76966 -9.89333 40.4992 -3.84338 92.8108 8.92658L92.9355 10.3432C59.6412 15.3483 37.7448 32.0399 32.8609 56.1378C29.0652 74.8659 36.0304 96.8246 52.4736 117.969L51.7078 118.985Z" fill="#F0F0F0"/>
<path d="M213.167 195.369C192.281 195.369 168.279 172.792 147.042 183.519C82.7433 215.996 91.5944 161.65 73.1219 141.438L73.7283 140.253C94.1106 158.056 119.559 172.54 147.321 182.14C172.41 190.817 197.687 194.837 220.41 193.776L220.449 195.2C218.05 195.313 215.622 195.369 213.167 195.369Z" fill="#F0F0F0"/>
<path d="M261.081 186.403L260.731 185.053C279.411 176.803 277.806 152.232 294.518 146.621C421.825 103.879 296.159 99.0585 267.893 76.4496C242.616 56.2316 215.068 32.7253 180.058 20.6189L180.337 19.2406C215.5 31.4002 246.845 51.3309 268.597 75.3612C290.459 99.512 300.039 124.949 295.573 146.986C292.051 164.364 280.124 177.994 261.081 186.403Z" fill="#F0F0F0"/>
<path d="M89.5612 195.964C67.0796 160.159 37.2106 128.177 0.516098 109.111L1.42521 108.322C17.6944 140.333 49.1521 170.995 90.0035 194.661L89.5612 195.964Z" fill="#F0F0F0"/>
<path d="M233.851 237.153C229.618 237.153 225.313 237.029 220.935 236.782L220.982 235.358C253.27 253.252 282.074 248.997 304.344 220.587L304.752 221.91C285.675 231.951 261.36 237.153 233.851 237.153Z" fill="#F0F0F0"/>
<path d="M240.469 223.522C242.88 223.522 244.834 220.969 244.834 217.82C244.834 214.671 242.88 212.117 240.469 212.117C238.058 212.117 236.103 214.671 236.103 217.82C236.103 220.969 238.058 223.522 240.469 223.522Z" fill="#FD6584"/>
<path d="M92.9845 119.199C93.3464 116.877 91.0485 114.612 87.852 114.139C84.6555 113.666 81.7708 115.165 81.4089 117.487C81.047 119.81 83.3449 122.075 86.5414 122.548C89.7379 123.021 92.6226 121.521 92.9845 119.199Z" fill="#E6E6E6"/>
<path d="M72.8866 57.3248C75.2977 57.3248 77.2523 54.7717 77.2523 51.6223C77.2523 48.4729 75.2977 45.9198 72.8866 45.9198C70.4755 45.9198 68.521 48.4729 68.521 51.6223C68.521 54.7717 70.4755 57.3248 72.8866 57.3248Z" fill="#E6E6E6"/>
<path d="M82.8072 89.9845C77.1137 82.255 66.3677 78.2606 58.8053 81.0629C51.243 83.8652 49.728 92.403 55.4215 100.133C61.1151 107.862 77.8747 120.021 85.437 117.218C92.9994 114.416 88.5007 97.7141 82.8072 89.9845ZM82.8422 113.759C81.9113 115.088 79.6275 115.15 77.7411 113.897C75.8547 112.643 75.0802 110.549 76.011 109.22C76.9419 107.891 79.2258 107.829 81.1121 109.082C82.9985 110.336 83.7731 112.429 82.8422 113.759Z" fill="#3F3D56"/>
<path d="M76.3798 97.5454C75.6707 98.1037 74.9617 98.662 74.2526 99.2203C73.3824 100.002 72.3521 100.595 71.2294 100.961C69.6881 101.308 68.0768 101.215 66.5887 100.692C64.4192 100.009 62.5178 98.693 61.1424 96.9218L62.675 97.2548C61.8619 96.3379 61.2007 95.3029 60.7154 94.1872C60.356 93.1518 60.5566 92.101 61.5268 91.8174C62.6373 91.4928 64.4253 92.2226 65.3577 91.698C66.9702 90.7908 64.3194 87.4125 65.7887 86.3704C66.6449 85.7631 68.3579 86.3639 69.7859 86.9596C71.5621 87.6188 73.2454 88.4944 74.7957 89.5655C77.3323 91.4736 78.7366 94.4813 77.7009 96.2221C77.3466 96.7376 76.899 97.1861 76.3798 97.5454Z" fill="#00C9A7"/>
<path d="M75.8574 103.341C74.6174 103.507 73.1828 102.578 71.9863 101.722L71.6817 101.333C71.4325 100.59 71.3277 99.8077 71.3726 99.0269C71.4009 98.6651 71.5545 98.3234 71.8083 98.0578C72.0621 97.7922 72.4009 97.6185 72.7693 97.5651C73.4967 97.4718 74.4674 97.7773 74.9478 97.3674C75.8767 96.5749 73.7226 94.3902 74.7075 93.6485C75.2602 93.2323 76.4348 93.7659 76.9413 94.4814C77.3548 95.1485 77.5457 95.9241 77.4876 96.7013C77.5041 97.8426 77.5205 98.9839 77.5369 100.125C77.5893 100.799 77.5192 101.477 77.33 102.127C77.2261 102.443 77.0329 102.725 76.7725 102.94C76.5122 103.155 76.1951 103.294 75.8574 103.341Z" fill="#324844"/>
<path d="M76.168 107.145C74.4493 106.65 71.8283 104.925 69.5958 103.401L68.9312 102.838C68.2352 102.069 67.6453 101.215 67.1765 100.297C66.9189 99.6097 67.2505 99.2082 68.3918 99.5402C69.402 99.834 70.9931 100.669 71.4636 100.505C72.3733 100.186 67.991 96.7814 69.0113 96.5456C69.5839 96.4133 71.6019 97.5926 72.7462 98.6009C73.5889 99.329 74.285 100.204 74.7988 101.18C75.4676 102.364 76.1364 103.548 76.8052 104.733C77.2091 105.324 77.4906 105.987 77.6338 106.683C77.6476 107.187 77.2109 107.445 76.168 107.145Z" fill="#FF6584"/>
<path d="M319.457 14.7379C320.131 6.42283 325.78 16.2345 334.316 16.8914C336.346 17.0468 338.325 17.5903 340.14 18.491C341.955 19.3916 343.569 20.6316 344.892 22.1403C346.214 23.6489 347.219 25.3966 347.848 27.2834C348.477 29.1703 348.718 31.1594 348.558 33.1371C348.397 35.1147 347.838 37.0423 346.913 38.8095C345.988 40.5768 344.714 42.1491 343.165 43.4368C341.616 44.7244 339.821 45.7021 337.884 46.314C335.946 46.9259 333.904 47.1601 331.874 47.003C323.338 46.3462 318.782 23.053 319.457 14.7379Z" fill="#00C9A7"/>
<path d="M372.6 94.5764C372.761 92.5992 373.319 90.6722 374.244 88.9053C375.169 87.1384 376.442 85.5663 377.991 84.2786C379.539 82.991 381.333 82.0131 383.27 81.4008C385.206 80.7885 387.248 80.5537 389.277 80.7099C397.814 81.3668 403.524 64.8543 402.849 73.1694C402.175 81.4845 395.372 111.478 386.835 110.822C384.806 110.665 382.827 110.121 381.014 109.22C379.2 108.319 377.586 107.079 376.264 105.571C374.942 104.062 373.938 102.315 373.31 100.429C372.681 98.5421 372.44 96.5535 372.6 94.5764Z" fill="#00C9A7"/>
<path d="M392.058 112.776C389.725 113.872 387.028 113.226 385.014 111.779C382.722 110.133 381.592 107.514 381.219 104.828C380.86 101.946 381.107 99.0216 381.945 96.2347C382.742 93.5464 384.449 90.7564 387.499 90.2019C389.532 89.8323 391.701 90.6771 392.265 92.7334C392.479 93.5582 392.471 94.4228 392.243 95.2438C392.014 96.0649 391.572 96.8147 390.959 97.421C389.135 99.1285 386.207 98.9985 384.088 97.9133C381.595 96.637 380.22 94.0833 379.766 91.4576C379.227 88.336 379.98 85.1992 381.053 82.2626C382.218 79.0708 383.67 75.9745 385.003 72.8471C387.603 66.7483 390.046 60.5181 391.081 53.9596C392.663 43.9408 390.2 32.0505 381.183 25.9173C376.315 22.6065 370.21 21.6686 364.403 22.3812C358.278 23.1327 352.65 25.7504 347.666 29.2167C345.074 31.0521 342.612 33.0562 340.297 35.2153C339.596 35.9181 338.695 36.4019 337.711 36.6051C336.726 36.8083 335.702 36.7218 334.768 36.3565C329.975 34.4565 331.503 26.8597 336.443 26.2937C338.688 26.0365 340.999 27.2564 342.522 28.7808C344.183 30.5107 345.267 32.6903 345.631 35.0323C346.476 39.9617 344.6 45.1723 341.341 48.9403C337.659 53.1972 332.064 55.5936 326.617 56.8559C320.416 58.293 314.037 58.3663 307.699 58.5029C301.212 58.6426 294.648 58.8828 288.387 60.6957C283.348 62.1699 278.593 64.4457 274.316 67.4311C265.699 73.3936 259.251 81.8697 255.902 91.6354C255.115 93.9977 254.533 96.42 254.161 98.8769C254.014 99.8388 255.561 99.9536 255.707 98.9958C257.337 88.2859 263.289 78.437 271.657 71.3865C275.831 67.8531 280.61 65.0606 285.775 63.1361C291.997 60.8368 298.605 60.2538 305.208 60.0661C311.952 59.8744 318.756 59.9788 325.399 58.6636C331.272 57.501 337.219 55.2204 341.498 50.9969C345.27 47.2729 347.605 41.9452 347.354 36.6798C347.121 31.7805 344.351 26.5418 339.219 25.0859C336.812 24.4028 334.227 24.8374 332.438 26.6281C331.444 27.649 330.759 28.9182 330.461 30.295C330.162 31.6717 330.261 33.1021 330.746 34.4276C331.385 35.8677 332.552 37.0245 334.019 37.673C335.485 38.3214 337.147 38.4151 338.681 37.9357C339.807 37.5328 340.824 36.885 341.655 36.0418C346.501 31.6221 351.923 27.5661 358.233 25.3652C364.118 23.3123 370.887 22.8913 376.743 25.2588C387.829 29.7408 391.16 42.7486 389.611 53.3443C388.597 60.2785 385.902 66.8442 383.145 73.2675C381.737 76.5475 380.173 79.8064 379.095 83.2081C378.13 86.2538 377.646 89.522 378.437 92.6599C379.128 95.3987 380.762 97.9158 383.377 99.2425C385.753 100.448 388.767 100.656 391.094 99.2224C394.459 97.1503 395.216 91.4291 391.437 89.3442C388.929 87.9608 385.718 88.6404 383.639 90.4573C381.307 92.4942 380.355 95.5445 379.874 98.4637C378.966 103.98 379.68 110.772 385.273 113.723C387.577 114.939 390.324 115.267 392.733 114.136C392.911 114.045 393.046 113.89 393.109 113.704C393.172 113.518 393.158 113.315 393.07 113.139C392.983 112.962 392.828 112.826 392.639 112.758C392.451 112.69 392.242 112.697 392.058 112.776Z" fill="#3F3D56"/>
<path d="M253.845 95.0329C254.561 86.2152 242.175 62.6384 247.503 56.2563C248.164 55.4588 248.857 54.6873 249.583 53.9419C251.932 51.5017 254.575 49.3465 257.455 47.5232C257.942 47.2072 258.433 46.9066 258.928 46.6165C260.687 45.5939 262.519 44.6936 264.408 43.9224C264.751 43.7871 265.099 43.6524 265.447 43.5175C274.976 39.9259 285.504 39.744 295.157 43.0041C304.811 46.2642 312.964 52.7549 318.166 61.3211C323.367 69.8873 325.28 79.9735 323.564 89.7847C321.848 99.596 316.614 108.496 308.794 114.901C308.382 115.243 307.961 115.574 307.531 115.899C303.256 119.151 298.389 121.584 293.185 123.072C293.18 123.072 293.179 123.077 293.174 123.077C285.371 125.296 277.085 125.332 269.262 123.181L269.251 123.18C269.079 123.131 268.907 123.083 268.735 123.029C249.601 117.522 252.211 115.183 253.845 95.0329Z" fill="#00C9A7"/>
<path d="M264.388 44.1127C264.387 44.0487 264.394 43.9848 264.408 43.9224C264.751 43.7872 265.099 43.6524 265.447 43.5176C265.593 43.5746 265.717 43.6734 265.804 43.8009C265.891 43.9284 265.936 44.0787 265.933 44.2317C265.936 44.9949 266.026 45.7555 266.201 46.4995C267.699 52.9575 274.485 56.7217 280.544 58.3343C287.958 60.3137 295.924 60.3409 302.84 63.9183C305.682 65.3081 308.133 67.3514 309.983 69.8713C311.908 72.6383 312.715 76.0007 312.25 79.3124C311.193 87.1039 305.034 92.7909 302.499 100.024C301.453 103.004 301.196 106.176 302.385 109.156C303.393 111.688 305.383 113.997 308.244 114.52C308.36 114.537 308.47 114.581 308.565 114.647C308.661 114.713 308.739 114.8 308.794 114.901C308.382 115.243 307.961 115.574 307.531 115.899C307.014 115.783 306.512 115.614 306.032 115.395C303.294 114.124 301.524 111.589 300.639 108.829C299.617 105.635 300.006 102.312 301.15 99.2033C303.817 91.9548 310.407 85.993 310.818 77.9901C311.173 71.0536 305.32 66.2603 299.213 63.9522C291.658 61.0984 283.189 61.5223 275.745 58.3185C269.889 55.7974 264.415 50.7454 264.388 44.1127Z" fill="#3F3D56"/>
<path d="M257.455 47.5232C257.942 47.2072 258.433 46.9066 258.928 46.6165C258.986 46.6867 259.027 46.7681 259.049 46.8552C259.072 46.9423 259.075 47.033 259.058 47.1214C258.274 53.5935 260.058 60.113 264.045 65.3465C265.769 67.6427 267.878 69.6388 270.285 71.2503C272.803 72.9237 275.635 73.9344 278.43 75.0686C281.181 76.1842 283.962 77.4941 285.955 79.7128C287.985 81.9748 288.837 84.8936 288.929 87.8498C289.143 94.8555 285.055 100.964 284.212 107.783C283.836 110.824 284.286 113.843 286.029 116.447C287.537 118.694 289.898 120.33 292.732 120.225C293.668 120.186 293.607 121.514 292.782 121.708C292.726 121.721 292.668 121.729 292.61 121.73C289.313 121.85 286.492 119.876 284.749 117.277C282.718 114.258 282.216 110.73 282.73 107.199C283.73 100.368 287.975 94.0535 287.335 86.9849C287.247 85.5015 286.84 84.0527 286.141 82.7323C285.441 81.4119 284.465 80.2493 283.275 79.3198C280.823 77.4596 277.829 76.4767 274.988 75.3289C272.148 74.2398 269.505 72.717 267.157 70.8177C264.865 68.8957 262.903 66.6291 261.346 64.1036C258.233 59.1357 256.867 53.3151 257.455 47.5232Z" fill="#3F3D56"/>
<path d="M247.503 56.2563C248.164 55.4588 248.857 54.6873 249.583 53.9419C248.578 57.7879 248.406 61.7958 249.08 65.7099C249.891 70.6346 251.964 75.2805 255.107 79.2177C256.683 81.1782 258.54 82.9079 260.621 84.3536C263.002 86.0013 265.633 87.441 267.21 89.9257C270.629 95.3195 267.503 101.775 265.822 107.16C264.941 109.971 264.344 112.99 265.32 115.853C266.078 118.073 267.759 120.227 270.243 120.666C271.219 120.837 271.102 122.348 270.121 122.171C269.937 122.137 269.754 122.098 269.571 122.053C266.874 121.361 264.928 119.211 263.983 116.674C262.758 113.363 263.332 109.933 264.361 106.644C266.054 101.234 269.536 94.1648 264.733 89.2705C262.707 87.2057 259.964 85.9392 257.751 84.0772C255.768 82.4163 254.025 80.5001 252.573 78.3813C248.123 71.8744 246.316 63.9886 247.503 56.2563Z" fill="#3F3D56"/>
<path d="M277.124 164.057V163.087H260.435V140.464H259.442V163.087H240.314V145.616C239.98 145.872 239.65 146.136 239.324 146.407V163.087H226.691C226.55 163.408 226.415 163.731 226.287 164.057H239.324V183.067H223.137C223.153 183.393 223.176 183.713 223.204 184.037H239.324V199.202H227.247C227.395 199.528 227.551 199.849 227.714 200.167H239.324V212.916H240.314V200.167H259.442V212.916H260.435V200.167H277.124V199.202H260.435C260.434 197.211 260.837 195.238 261.619 193.398C262.401 191.558 263.548 189.886 264.994 188.478C266.44 187.069 268.156 185.952 270.045 185.19C271.934 184.428 273.959 184.036 276.004 184.037H277.124V183.067H260.435V164.057H277.124ZM259.442 199.202H240.314V184.037H259.442V199.202ZM259.442 183.067H240.314V182.686C240.315 180.24 240.81 177.817 241.771 175.557C242.732 173.296 244.141 171.243 245.917 169.513C247.693 167.783 249.802 166.411 252.122 165.475C254.443 164.538 256.93 164.057 259.442 164.057V183.067Z" fill="#3F3D56"/>
</g>
<defs>
<clipPath id="clip0_4_236">
<rect width="402.387" height="341.419" fill="white" transform="translate(0.516098 0.77417)"/>
</clipPath>
</defs>
</svg>
