<svg width="58" height="55" viewBox="0 0 58 55" fill="none" xmlns="http://www.w3.org/2000/svg">
<path d="M28.9731 37.5653C23.3941 37.5653 18.8662 33.0374 18.8662 27.4584C18.8662 21.8794 23.3941 17.3516 28.9731 17.3516C34.5521 17.3516 39.08 21.8794 39.08 27.4584C39.08 33.0374 34.5521 37.5653 28.9731 37.5653ZM28.9731 21.3943C25.6311 21.3943 22.909 24.1164 22.909 27.4584C22.909 30.8004 25.6311 33.5226 28.9731 33.5226C32.3151 33.5226 35.0372 30.8004 35.0372 27.4584C35.0372 24.1164 32.3151 21.3943 28.9731 21.3943Z" fill="#4B31A1"/>
<path d="M37.6245 54.9215C37.0586 54.9215 36.4926 54.8407 35.9266 54.7059C34.2556 54.2478 32.8541 53.1966 31.9647 51.7143L31.6413 51.1753C30.0511 48.4262 27.868 48.4262 26.2779 51.1753L25.9814 51.6873C25.092 53.1966 23.6905 54.2747 22.0195 54.7059C20.3216 55.1641 18.5697 54.9215 17.0874 54.0321L12.4517 51.3639C10.8076 50.4206 9.62175 48.8844 9.10967 47.0247C8.62454 45.165 8.8671 43.2515 9.81041 41.6074C10.592 40.2329 10.8076 38.9931 10.3494 38.2115C9.89126 37.4299 8.73234 36.9717 7.14219 36.9717C3.20725 36.9717 0 33.7645 0 29.8295V25.086C0 21.1511 3.20725 17.9438 7.14219 17.9438C8.73234 17.9438 9.89126 17.4857 10.3494 16.7041C10.8076 15.9225 10.619 14.6827 9.81041 13.3082C8.8671 11.6641 8.62454 9.72359 9.10967 7.89087C9.5948 6.03121 10.7807 4.49496 12.4517 3.55166L17.1143 0.883439C20.1599 -0.922323 24.1756 0.128792 26.0084 3.22823L26.3318 3.76727C27.9219 6.51634 30.105 6.51634 31.6952 3.76727L31.9916 3.25519C33.8243 0.128792 37.8401 -0.922323 40.9126 0.910391L45.5483 3.57861C47.1924 4.52191 48.3783 6.05816 48.8903 7.91783C49.3755 9.77749 49.1329 11.6911 48.1896 13.3351C47.408 14.7096 47.1924 15.9494 47.6506 16.731C48.1087 17.5126 49.2677 17.9708 50.8578 17.9708C54.7928 17.9708 58 21.178 58 25.113V29.8565C58 33.7914 54.7928 36.9987 50.8578 36.9987C49.2677 36.9987 48.1087 37.4569 47.6506 38.2385C47.1924 39.0201 47.381 40.2598 48.1896 41.6344C49.1329 43.2784 49.4024 45.2189 48.8903 47.0517C48.4052 48.9113 47.2193 50.4476 45.5483 51.3909L40.8857 54.0591C39.8615 54.6251 38.7565 54.9215 37.6245 54.9215ZM28.973 44.9494C31.3717 44.9494 33.6087 46.4587 35.145 49.1269L35.4414 49.639C35.7649 50.205 36.3039 50.6093 36.9507 50.771C37.5976 50.9327 38.2444 50.8518 38.7835 50.5284L43.4461 47.8333C44.1468 47.429 44.6859 46.7552 44.9015 45.9466C45.1171 45.1381 45.0093 44.3026 44.605 43.6018C43.0688 40.9606 42.8801 38.2385 44.066 36.1632C45.2519 34.0879 47.7045 32.902 50.777 32.902C52.5019 32.902 53.8764 31.5275 53.8764 29.8026V25.0591C53.8764 23.3611 52.5019 21.9596 50.777 21.9596C47.7045 21.9596 45.2519 20.7738 44.066 18.6985C42.8801 16.6232 43.0688 13.9011 44.605 11.2598C45.0093 10.5591 45.1171 9.72359 44.9015 8.91504C44.6859 8.10649 44.1738 7.45965 43.473 7.02842L38.8104 4.36021C37.6515 3.65946 36.1152 4.06374 35.4145 5.24961L35.118 5.76169C33.5818 8.42991 31.3448 9.9392 28.9461 9.9392C26.5474 9.9392 24.3104 8.42991 22.7742 5.76169L22.4777 5.22266C21.8039 4.09069 20.2946 3.68641 19.1357 4.36021L14.473 7.05537C13.7723 7.45965 13.2333 8.13344 13.0177 8.94199C12.802 9.75054 12.9099 10.586 13.3141 11.2868C14.8504 13.928 15.039 16.6502 13.8532 18.7254C12.6673 20.8007 10.2147 21.9866 7.14219 21.9866C5.41729 21.9866 4.04275 23.3611 4.04275 25.086V29.8295C4.04275 31.5275 5.41729 32.929 7.14219 32.929C10.2147 32.929 12.6673 34.1149 13.8532 36.1901C15.039 38.2654 14.8504 40.9875 13.3141 43.6288C12.9099 44.3295 12.802 45.165 13.0177 45.9736C13.2333 46.7821 13.7454 47.429 14.4461 47.8602L19.1087 50.5284C19.6747 50.8788 20.3485 50.9596 20.9684 50.7979C21.6152 50.6362 22.1543 50.205 22.5046 49.639L22.8011 49.1269C24.3374 46.4857 26.5744 44.9494 28.973 44.9494Z" fill="#4B31A1"/>
</svg>
