<svg width="64" height="67" viewBox="0 0 64 67" fill="none" xmlns="http://www.w3.org/2000/svg">
<path d="M63.7521 47.5365C63.7521 59.7305 56.835 67 45.2321 67H41.4389C39.6857 67 38.2513 65.4925 38.2513 63.65V44.3205C38.2513 43.416 38.9526 42.6455 39.8132 42.6455L45.4234 42.545C45.8697 42.5115 46.2522 42.1765 46.3478 41.7075L47.4635 35.309C47.5591 34.706 47.1128 34.1365 46.5072 34.1365L39.7176 34.237C38.825 34.237 38.1238 33.5 38.0919 32.5955L37.9644 24.388C37.9644 23.852 38.3788 23.383 38.9207 23.383L46.5709 23.249C47.1128 23.249 47.5272 22.8135 47.5272 22.244L47.3997 14.204C47.3997 13.6345 46.9853 13.199 46.4434 13.199L37.8369 13.333C32.5455 13.4335 28.3378 17.9895 28.4335 23.5505L28.5928 32.763C28.6247 33.701 27.9234 34.438 27.0309 34.4715L23.2058 34.5385C22.6639 34.5385 22.2495 34.974 22.2495 35.5435L22.3452 41.9085C22.3452 42.478 22.7595 42.9135 23.3014 42.9135L27.1265 42.8465C28.0191 42.8465 28.7203 43.5835 28.7522 44.488L29.0391 63.583C29.071 65.459 27.6365 67 25.8515 67H18.52C6.91711 67 0 59.7305 0 47.503V19.4635C0 7.2695 6.91711 0 18.52 0H45.2321C56.835 0 63.7521 7.2695 63.7521 19.4635V47.5365Z" fill="#324844"/>
</svg>
