<svg width="46" height="46" viewBox="0 0 46 46" fill="none" xmlns="http://www.w3.org/2000/svg">
<path d="M35.3879 45.9499H10.6121C4.74977 45.9499 0 41.1787 0 35.3164V19.4624C0 16.5526 1.79721 12.894 4.10791 11.0968L15.64 2.11072C19.106 -0.585083 24.6474 -0.713454 28.2419 1.81119L41.4642 11.0754C44.0102 12.8512 46 16.6596 46 19.762V35.3378C46 41.1787 41.2502 45.9499 35.3879 45.9499ZM17.6084 4.63537L6.07628 13.6214C4.55721 14.8196 3.2093 17.5368 3.2093 19.4624V35.3164C3.2093 39.4029 6.52558 42.7406 10.6121 42.7406H35.3879C39.4744 42.7406 42.7907 39.4243 42.7907 35.3378V19.762C42.7907 17.7079 41.3144 14.8624 39.6242 13.707L26.4019 4.44282C23.9628 2.73119 19.9405 2.81677 17.6084 4.63537Z" fill="#4B31A1"/>
<path d="M23.0004 37.3916C22.1232 37.3916 21.3958 36.6641 21.3958 35.7869V29.3683C21.3958 28.4911 22.1232 27.7637 23.0004 27.7637C23.8776 27.7637 24.6051 28.4911 24.6051 29.3683V35.7869C24.6051 36.6641 23.8776 37.3916 23.0004 37.3916Z" fill="#4B31A1"/>
</svg>
