<svg width="647" height="429" viewBox="0 0 647 429" fill="none" xmlns="http://www.w3.org/2000/svg">
<g clip-path="url(#clip0_176_69)">
<path d="M400.506 152.614C401.763 152.518 403.024 152.715 404.2 153.193C405.377 153.671 406.441 154.418 407.317 155.38C408.193 156.343 408.86 157.498 409.271 158.765C409.682 160.031 409.827 161.378 409.696 162.711L437.418 176.536L423.849 185.374L399.604 170.891C397.515 170.508 395.629 169.323 394.306 167.56C392.983 165.797 392.313 163.579 392.425 161.326C392.536 159.074 393.42 156.942 394.909 155.337C396.399 153.731 398.39 152.762 400.506 152.614Z" fill="#FFB6B6"/>
<path d="M515.22 418.613L505.646 418.612L501.091 379.328L515.222 379.329L515.22 418.613Z" fill="#FFB6B6"/>
<path d="M517.661 415.287L498.807 415.287H498.806C495.619 415.287 492.563 416.634 490.31 419.031C488.057 421.428 486.791 424.679 486.79 428.068V428.484L517.661 428.485L517.661 415.287Z" fill="#324844"/>
<path d="M466.367 418.613L456.793 418.612L452.238 379.328L466.368 379.329L466.367 418.613Z" fill="#FFB6B6"/>
<path d="M468.809 415.287L449.954 415.287H449.953C446.767 415.287 443.711 416.634 441.457 419.031C439.204 421.428 437.938 424.679 437.938 428.068V428.484L468.808 428.485L468.809 415.287Z" fill="#324844"/>
<path d="M459.972 214.858L455.113 225.987L446.352 325.514L453.162 411.06H469.089L487.883 276.22L496.71 407.953L518.201 407.031L522.326 228.429L459.972 214.858Z" fill="#324844"/>
<path d="M537.408 123.013L517.262 114.294L488.826 115.99L463.547 125.791L455.112 225.987C477.105 238.763 499.383 242.25 522.048 233.115L543.084 167.854L537.408 123.013Z" fill="#E4E4E4"/>
<path d="M471.411 128.439L462.471 125.791C462.471 125.791 455.709 121.113 453.485 135.017C451.26 148.92 439.812 170.547 439.812 170.547L420.215 159.437L411.142 180.515L442.09 200.458L474.682 165.524L471.411 128.439Z" fill="#E4E4E4"/>
<path d="M520.451 95.7302C521.536 93.1095 522.126 90.287 522.186 87.4238C522.247 84.5607 521.776 81.7129 520.802 79.0432C519.828 76.3734 518.369 73.934 516.508 71.8641C514.647 69.7942 512.422 68.1344 509.958 66.9794C507.495 65.8245 504.842 65.197 502.15 65.1329C499.459 65.0688 496.782 65.5692 494.272 66.6057C491.762 67.6421 489.469 69.1942 487.523 71.1734C485.578 73.1527 484.017 75.5202 482.932 78.1409L482.814 78.4293C480.657 83.7397 480.572 89.7441 482.576 95.1216C483.569 97.7843 485.045 100.213 486.919 102.269C488.794 104.325 491.031 105.968 493.503 107.104C498.495 109.399 504.139 109.49 509.194 107.358C514.249 105.225 518.301 101.044 520.458 95.7337L520.451 95.7302Z" fill="#FFB6B6"/>
<path d="M492.618 75.7709C488.356 76.5936 481.759 79.4485 478.098 76.0993C479.906 73.8519 482.18 72.0822 484.741 70.93C485.246 70.752 485.713 70.4712 486.117 70.1033C487.365 68.7614 486.4 66.4493 486.971 64.6351C487.249 63.9721 487.667 63.3867 488.193 62.9251C488.72 62.4634 489.34 62.1381 490.004 61.9748C491.275 61.5704 492.606 61.5047 493.855 61.0143C496.809 59.8333 498.909 56.4535 501.936 55.5351C504.575 54.7233 507.229 55.985 509.506 57.4572C511.783 58.9295 514.035 60.6764 516.698 60.9558C518.689 61.1489 519.949 64.6317 521.947 64.7338C526.135 64.9505 525.902 62.0145 526.212 66.6942C526.39 69.4867 530.141 75.0422 530.08 77.859C530.018 79.7047 530.325 81.5328 530.276 83.3843C530.163 86.9105 528.834 90.2691 526.541 92.8188C524.635 94.9043 522.155 96.311 520.55 98.6881C519.716 99.9501 519.137 101.423 518.166 102.565C517.194 103.707 515.549 104.394 514.464 103.579C513.38 102.764 513.36 100.999 512.822 99.6569C512.492 98.8338 511.928 98.1411 511.21 97.6758C510.491 97.2105 509.654 96.996 508.815 97.0622C507.944 97.1833 507.122 97.5606 506.441 98.1517C505.76 98.7429 505.248 99.5243 504.962 100.408C505.47 97.4412 506.809 94.6612 507.317 91.6921C507.826 88.7229 507.163 85.1759 504.76 84.0167C503.728 83.5059 502.334 83.3686 501.919 82.1916C501.665 81.4826 501.897 80.6449 501.799 79.8781C501.271 76.1204 495.398 75.1906 492.618 75.7709Z" fill="#324844"/>
<path d="M519.633 231.956C519.817 230.63 520.272 229.364 520.965 228.245C521.659 227.127 522.575 226.184 523.648 225.483C524.721 224.782 525.926 224.339 527.177 224.187C528.429 224.035 529.696 224.176 530.891 224.601L549.588 198.81L554.757 214.817L536.209 236.855C535.405 238.942 533.909 240.643 532.004 241.635C530.099 242.627 527.919 242.842 525.876 242.238C523.833 241.634 522.069 240.254 520.918 238.359C519.767 236.464 519.31 234.186 519.633 231.956Z" fill="#FFB6B6"/>
<path d="M530.951 127.878L537.409 123.013C537.409 123.013 552.183 122.113 554.332 135.017L581.423 182.425L547.834 231.72L531.549 213.484L552.097 187.94L534.845 154.243L530.951 127.878Z" fill="#E4E4E4"/>
<path d="M373.611 135.39H373.95V125.516C373.95 124.766 374.089 124.023 374.359 123.33C374.629 122.636 375.025 122.006 375.523 121.476C376.022 120.945 376.614 120.524 377.266 120.237C377.918 119.95 378.616 119.802 379.322 119.802H398.986C399.691 119.802 400.39 119.95 401.041 120.237C401.693 120.524 402.285 120.945 402.784 121.476C403.283 122.006 403.679 122.636 403.949 123.33C404.218 124.023 404.357 124.766 404.357 125.516V179.683C404.357 180.433 404.218 181.176 403.949 181.87C403.679 182.563 403.283 183.193 402.784 183.724C402.285 184.254 401.693 184.675 401.041 184.962C400.39 185.25 399.691 185.397 398.986 185.397H379.322C378.616 185.397 377.918 185.25 377.266 184.962C376.614 184.675 376.022 184.254 375.523 183.724C375.025 183.193 374.629 182.563 374.359 181.87C374.089 181.176 373.95 180.433 373.95 179.683V142.418H373.611V135.39Z" fill="#3F3D56"/>
<path d="M379.106 121.289H381.673C381.555 121.596 381.51 121.93 381.541 122.261C381.573 122.592 381.681 122.909 381.856 123.185C382.03 123.461 382.265 123.687 382.541 123.844C382.817 124 383.125 124.082 383.437 124.082H394.702C395.015 124.082 395.323 124 395.599 123.844C395.874 123.687 396.11 123.461 396.284 123.185C396.458 122.909 396.566 122.592 396.598 122.261C396.63 121.93 396.585 121.596 396.467 121.289H398.864C399.928 121.289 400.949 121.738 401.701 122.538C402.453 123.339 402.876 124.424 402.876 125.556V179.643C402.876 180.775 402.453 181.86 401.701 182.661C400.949 183.461 399.928 183.911 398.864 183.911H379.106C378.042 183.911 377.022 183.461 376.269 182.661C375.517 181.86 375.094 180.775 375.094 179.643V125.556C375.094 124.424 375.517 123.339 376.269 122.538C377.022 121.738 378.042 121.289 379.106 121.289Z" fill="#7E7193"/>
<path d="M352.698 429H646.23C646.434 429 646.63 428.914 646.774 428.76C646.919 428.606 647 428.398 647 428.18C647 427.963 646.919 427.755 646.774 427.601C646.63 427.447 646.434 427.361 646.23 427.361H352.698C352.494 427.361 352.298 427.447 352.153 427.601C352.009 427.755 351.927 427.963 351.927 428.18C351.927 428.398 352.009 428.606 352.153 428.76C352.298 428.914 352.494 429 352.698 429Z" fill="#CACACA"/>
</g>
<defs>
<clipPath id="clip0_176_69">
<rect width="647" height="429" fill="white" transform="matrix(-1 0 0 1 647 0)"/>
</clipPath>
</defs>
</svg>
