<svg width="63" height="63" viewBox="0 0 63 63" fill="none" xmlns="http://www.w3.org/2000/svg">
<path d="M46.9947 62.3696C43.7167 62.3696 40.2646 61.5863 36.6965 60.0778C33.2154 58.5984 29.7053 56.5677 26.2822 54.102C22.8882 51.6072 19.6101 48.8223 16.5062 45.7764C13.4312 42.6724 10.6463 39.3944 8.18057 36.0293C5.68578 32.5482 3.68416 29.0671 2.26271 25.7021C0.754236 22.1049 0 18.6238 0 15.3458C0 13.0831 0.406127 10.9364 1.18937 8.9348C2.00163 6.87516 3.30704 4.96056 5.07659 3.30704C7.31029 1.10235 9.86309 0 12.5899 0C13.7213 0 14.8817 0.261082 15.868 0.725227C16.9993 1.24739 17.9566 2.03064 18.6528 3.07496L25.383 12.5609C25.9922 13.4022 26.4563 14.2145 26.7754 15.0267C27.1525 15.897 27.3556 16.7673 27.3556 17.6085C27.3556 18.7109 27.0365 19.7842 26.4273 20.7995C25.9921 21.5828 25.3249 22.424 24.4837 23.2653L22.5111 25.3249C22.5401 25.412 22.5691 25.47 22.5981 25.528C22.9462 26.1372 23.6424 27.1815 24.9768 28.748C26.3983 30.3725 27.7327 31.852 29.0671 33.2154C30.7787 34.8979 32.2001 36.2324 33.5345 37.3347C35.188 38.7271 36.2614 39.4234 36.8996 39.7425L36.8416 39.8875L38.9592 37.7989C39.8585 36.8996 40.7288 36.2324 41.57 35.7972C43.1655 34.8109 45.1962 34.6369 47.2268 35.4781C47.981 35.7972 48.7933 36.2324 49.6636 36.8416L59.2946 43.6877C60.3679 44.4129 61.1512 45.3412 61.6153 46.4436C62.0505 47.5459 62.2535 48.5612 62.2535 49.5765C62.2535 50.969 61.9344 52.3614 61.3252 53.6668C60.716 54.9722 59.9618 56.1036 59.0045 57.1479C57.351 58.9755 55.5524 60.2809 53.4638 61.1222C51.4621 61.9344 49.2865 62.3696 46.9947 62.3696ZM12.5899 4.35137C10.9944 4.35137 9.51498 5.04758 8.09354 6.44002C6.75912 7.68741 5.83083 9.05084 5.25065 10.5303C4.64146 12.0388 4.35136 13.6343 4.35136 15.3458C4.35136 18.0437 4.98956 20.9736 6.26596 23.9905C7.57137 27.0655 9.39895 30.2565 11.7197 33.4475C14.0404 36.6385 16.6802 39.7425 19.5811 42.6724C22.482 45.5443 25.615 48.2131 28.835 50.5629C31.968 52.8546 35.188 54.7112 38.379 56.0456C43.3396 58.1632 47.981 58.6564 51.8102 57.0609C53.2897 56.4517 54.5951 55.5234 55.7845 54.189C56.4517 53.4638 56.9739 52.6805 57.409 51.7522C57.7571 51.027 57.9312 50.2728 57.9312 49.5185C57.9312 49.0544 57.8441 48.5902 57.6121 48.0681C57.525 47.894 57.351 47.5749 56.7998 47.1978L47.1688 40.3517C46.5886 39.9455 46.0664 39.6554 45.5733 39.4524C44.9351 39.1913 44.674 38.9302 43.6877 39.5394C43.1075 39.8295 42.5854 40.2646 42.0052 40.8448L39.8005 43.0205C38.6691 44.1228 36.9286 44.3839 35.5942 43.8908L34.8109 43.5427C33.6215 42.9045 32.2291 41.9181 30.6916 40.6127C29.2992 39.4234 27.7907 38.0309 25.9631 36.2324C24.5417 34.7819 23.1203 33.2444 21.6408 31.5329C20.2774 29.9374 19.291 28.574 18.6819 27.4426L18.3337 26.5723C18.1597 25.9051 18.1017 25.528 18.1017 25.1219C18.1017 24.0776 18.4788 23.1493 19.204 22.424L21.3797 20.1613C21.9599 19.5811 22.395 19.03 22.6851 18.5368C22.9172 18.1597 23.0042 17.8406 23.0042 17.5505C23.0042 17.3184 22.9172 16.9703 22.7721 16.6222C22.5691 16.1581 22.25 15.6359 21.8438 15.0847L15.1137 5.56975C14.8236 5.16362 14.4755 4.87353 14.0404 4.67046C13.5763 4.4674 13.0831 4.35137 12.5899 4.35137ZM36.8416 39.9165L36.3774 41.8891L37.1607 39.8585C37.0156 39.8295 36.8996 39.8585 36.8416 39.9165Z" fill="#324844"/>
</svg>
