<svg width="41" height="41" viewBox="0 0 41 41" fill="none" xmlns="http://www.w3.org/2000/svg">
<path d="M19.3285 38.6569C8.67423 38.6569 0 29.9827 0 19.3285C0 8.67423 8.67423 0 19.3285 0C29.9827 0 38.6569 8.67423 38.6569 19.3285C38.6569 29.9827 29.9827 38.6569 19.3285 38.6569ZM19.3285 2.82855C10.2205 2.82855 2.82855 10.2394 2.82855 19.3285C2.82855 28.4175 10.2205 35.8284 19.3285 35.8284C28.4364 35.8284 35.8284 28.4175 35.8284 19.3285C35.8284 10.2394 28.4364 2.82855 19.3285 2.82855Z" fill="#4B31A1"/>
<path d="M39.1292 40.5425C38.7709 40.5425 38.4126 40.4105 38.1298 40.1277L34.3584 36.3563C33.8115 35.8094 33.8115 34.9043 34.3584 34.3574C34.9052 33.8106 35.8104 33.8106 36.3572 34.3574L40.1286 38.1288C40.6755 38.6757 40.6755 39.5808 40.1286 40.1277C39.8458 40.4105 39.4875 40.5425 39.1292 40.5425Z" fill="#4B31A1"/>
</svg>
