<svg width="28" height="30" viewBox="0 0 28 30" fill="none" xmlns="http://www.w3.org/2000/svg">
<g clip-path="url(#clip0_4_366)">
<path d="M14.8503 17.1739C16.8114 17.1739 19.0652 14.985 21.0592 16.025C27.0966 19.1738 26.2655 13.9048 28 11.9452L27.9431 11.8303C26.0292 13.5563 23.6398 14.9606 21.033 15.8914C18.6773 16.7326 16.3039 17.1223 14.1703 17.0195L14.1666 17.1575C14.3919 17.1685 14.6198 17.1739 14.8503 17.1739Z" fill="#F2F2F2"/>
<path d="M0.53529 4.45183C2.09858 5.64274 5.20912 5.26651 6.17441 7.30647C9.09704 13.4829 11.5974 8.77795 14.1564 8.26914L14.1799 8.14299C11.6182 8.35669 8.87047 8.02511 6.23372 7.18403C3.85088 6.42402 1.72494 5.29342 0.0858489 3.91574L1.00303e-05 4.02357C0.173067 4.16912 0.351494 4.31187 0.53529 4.45183Z" fill="#F2F2F2"/>
<path d="M23.6547 7.9877C23.4283 7.9877 23.2448 7.74018 23.2448 7.43483C23.2448 7.12949 23.4283 6.88196 23.6547 6.88196C23.8811 6.88196 24.0646 7.12949 24.0646 7.43483C24.0646 7.74018 23.8811 7.9877 23.6547 7.9877Z" fill="#E6E6E6"/>
<path d="M6.42794 13.1614C6.20155 13.1614 6.01802 12.9138 6.01802 12.6085C6.01802 12.3032 6.20155 12.0556 6.42794 12.0556C6.65433 12.0556 6.83786 12.3032 6.83786 12.6085C6.83786 12.9138 6.65433 13.1614 6.42794 13.1614Z" fill="#E6E6E6"/>
<path d="M17.686 1.10575C17.4596 1.10575 17.2761 0.858217 17.2761 0.552873C17.2761 0.24753 17.4596 0 17.686 0C17.9124 0 18.0959 0.24753 18.0959 0.552873C18.0959 0.858217 17.9124 1.10575 17.686 1.10575Z" fill="#E6E6E6"/>
<path d="M10.337 20.4082L10.8137 17.5249C10.8233 17.4665 10.8095 17.4067 10.7753 17.3585C10.7411 17.3104 10.6893 17.2779 10.6313 17.2681L8.46625 16.906C8.40822 16.8964 8.34875 16.9103 8.3009 16.9447C8.25305 16.9791 8.22073 17.0312 8.21101 17.0895L7.73432 19.9729C7.72473 20.0313 7.73856 20.0911 7.77277 20.1392C7.80697 20.1874 7.85876 20.2199 7.91677 20.2296L10.0818 20.5918C10.1398 20.6014 10.1993 20.5875 10.2471 20.5531C10.295 20.5187 10.3273 20.4666 10.337 20.4082Z" fill="#3F3D56"/>
<path d="M10.3149 19.5096L10.6214 17.6559C10.6304 17.6012 10.6174 17.5452 10.5854 17.5001C10.5534 17.455 10.5049 17.4246 10.4505 17.4154L8.58988 17.1042C8.53553 17.0952 8.47984 17.1082 8.43502 17.1405C8.39021 17.1727 8.35993 17.2215 8.35083 17.2761L7.92663 19.8419C7.91766 19.8966 7.93061 19.9526 7.96265 19.9977C7.99469 20.0427 8.04319 20.0732 8.09752 20.0823L9.25015 20.2751C9.49224 20.3153 9.74031 20.2573 9.93993 20.1138C10.1395 19.9703 10.2744 19.753 10.3149 19.5096Z" fill="white"/>
<path d="M10.2346 18.1227C10.2434 18.0693 10.2307 18.0145 10.1994 17.9705C10.1681 17.9264 10.1207 17.8967 10.0676 17.8877L8.77692 17.6719C8.75062 17.6675 8.72371 17.6683 8.69774 17.6744C8.67177 17.6804 8.64723 17.6916 8.62554 17.7072C8.60385 17.7228 8.58543 17.7425 8.57132 17.7653C8.55721 17.788 8.5477 17.8134 8.54333 17.8398C8.53896 17.8663 8.53981 17.8933 8.54583 17.9195C8.55186 17.9456 8.56294 17.9703 8.57844 17.9921C8.59395 18.0139 8.61357 18.0324 8.6362 18.0466C8.65882 18.0608 8.68401 18.0704 8.71031 18.0748L10.001 18.2906C10.0541 18.2995 10.1086 18.2867 10.1524 18.2552C10.1961 18.2238 10.2257 18.1761 10.2346 18.1227Z" fill="#608080"/>
<path d="M10.131 18.7494C10.1398 18.696 10.1271 18.6413 10.0958 18.5972C10.0645 18.5532 10.0171 18.5234 9.96403 18.5145L8.67331 18.2986C8.64701 18.2942 8.6201 18.2951 8.59413 18.3011C8.56816 18.3072 8.54362 18.3183 8.52193 18.3339C8.50024 18.3495 8.48182 18.3692 8.46771 18.392C8.45361 18.4148 8.4441 18.4401 8.43972 18.4665C8.43535 18.493 8.4362 18.5201 8.44222 18.5462C8.44825 18.5723 8.45933 18.597 8.47483 18.6188C8.49034 18.6406 8.50997 18.6591 8.53259 18.6733C8.55522 18.6875 8.5804 18.6971 8.6067 18.7015L9.89742 18.9174C9.95053 18.9262 10.005 18.9135 10.0487 18.882C10.0925 18.8505 10.1221 18.8028 10.131 18.7494Z" fill="#608080"/>
<path d="M10.0274 19.3761C10.0362 19.3227 10.0235 19.268 9.99222 19.2239C9.96091 19.1799 9.91351 19.1501 9.86042 19.1412L8.5697 18.9253C8.51658 18.9164 8.46213 18.9291 8.41833 18.9606C8.37452 18.9921 8.34495 19.0398 8.33611 19.0933C8.32728 19.1467 8.33991 19.2015 8.37123 19.2455C8.40254 19.2896 8.44998 19.3193 8.50309 19.3282L9.79381 19.5441C9.84693 19.5529 9.90134 19.5402 9.94514 19.5087C9.98893 19.4772 10.0185 19.4295 10.0274 19.3761Z" fill="#608080"/>
<path d="M11.3145 17.6906C11.3709 17.6267 11.4127 17.5513 11.437 17.4694C11.4612 17.3876 11.4673 17.3014 11.4549 17.2169C11.4424 17.1325 11.4117 17.0518 11.3649 16.9806C11.3181 16.9093 11.2563 16.8493 11.1839 16.8047L11.9391 13.1879L10.9382 13.575L10.3588 17.0302C10.2923 17.1575 10.2745 17.3049 10.3089 17.4444C10.3432 17.584 10.4272 17.706 10.545 17.7874C10.6629 17.8688 10.8063 17.9039 10.9481 17.886C11.0899 17.8682 11.2203 17.7986 11.3145 17.6906Z" fill="#FFB8B8"/>
<path d="M11.6478 29.1295L10.8239 29.1295L10.432 25.9332L11.6479 25.9333L11.6478 29.1295Z" fill="#FFB6B6"/>
<path d="M11.8579 28.859L11.626 28.8589L10.7207 28.4886L10.2355 28.8589H10.2354C9.96117 28.8589 9.69819 28.9685 9.50428 29.1635C9.31038 29.3585 9.20144 29.623 9.20142 29.8989V29.9327L11.8579 29.9327L11.8579 28.859Z" fill="#2F2E41"/>
<path d="M19.0919 28.0521L18.3546 28.4218L16.5862 25.7371L17.6745 25.1915L19.0919 28.0521Z" fill="#FFB6B6"/>
<path d="M19.16 27.7157L18.9525 27.8198L17.978 27.8945L17.7079 28.4436L17.7078 28.4437C17.4624 28.5667 17.2757 28.7828 17.1886 29.0443C17.1016 29.3059 17.1214 29.5915 17.2437 29.8384L17.2587 29.8686L19.6362 28.6768L19.16 27.7157Z" fill="#2F2E41"/>
<path d="M11.2828 14.6133L16.5211 14.7508L16.43 17.3165C16.43 17.3165 16.5211 18.0037 16.3389 18.1869C16.1567 18.3702 16.0656 18.3702 16.1567 18.6909C16.2478 19.0116 16.4833 22.0759 16.4833 22.0759C16.4833 22.0759 18.6333 25.8995 18.5422 25.9911C18.4511 26.0828 18.36 25.9912 18.4511 26.2202C18.5422 26.4493 18.6333 26.3577 18.5422 26.4493C18.4615 26.5368 18.3855 26.6286 18.3144 26.7242H16.8296C16.8296 26.7242 16.7466 26.266 16.7466 26.2202C16.7466 26.1744 16.6555 25.8995 16.6555 25.8537C16.6555 25.8079 14.0614 23.0434 14.0614 23.0434L13.5147 18.4618L12.1938 22.9518C12.1938 22.9518 12.1938 26.8919 12.1027 26.9836C12.0116 27.0752 12.0116 27.0294 12.0571 27.2126C12.1027 27.3959 12.2849 27.3501 12.1482 27.4875C12.0116 27.625 11.966 27.3959 12.0116 27.625L12.0571 27.8541L10.3071 27.8737C10.3071 27.8737 10.1249 27.4875 10.216 27.3501C10.3071 27.2126 10.3016 27.2502 10.1905 27.0252C10.0793 26.8003 10.0338 26.7545 10.0793 26.7087C10.1249 26.6628 10.1249 26.4192 10.1249 26.4192C10.1249 26.4192 10.7817 17.4081 10.7817 17.2706C10.7851 17.1999 10.7722 17.1293 10.7439 17.0645V16.878L10.9183 16.2169L11.2828 14.6133Z" fill="#2F2E41"/>
<path d="M6.56064 27.4076L6.51544 26.3854C6.04426 26.1321 5.51872 25.9983 4.98446 25.9956C5.71976 26.6003 5.62787 27.7658 6.12639 28.579C6.28381 28.8314 6.49568 29.0449 6.7463 29.2038C6.99692 29.3626 7.27987 29.4627 7.57418 29.4966L8.18951 29.8756C8.27395 29.4021 8.25533 28.9159 8.13495 28.4504C8.01456 27.9849 7.79528 27.5512 7.4922 27.1791C7.32011 26.9721 7.12279 26.7877 6.9049 26.6302C6.75752 27.0211 6.56064 27.4076 6.56064 27.4076Z" fill="#F2F2F2"/>
<path d="M13.9952 5.61548L11.3713 10.9528L11.8847 17.4302L15.2375 17.1221L15.8388 6.39495L13.9952 5.61548Z" fill="#2F2E41"/>
<path d="M10.3108 16.7151L11.844 16.5741L11.8464 16.5546L12.8753 7.98582L12.645 7.34371C12.5899 7.19126 12.4966 7.05574 12.374 6.95032C12.2515 6.84489 12.1039 6.77315 11.9456 6.74206C11.825 6.71871 11.701 6.71955 11.5808 6.7446C11.4605 6.76965 11.3464 6.81838 11.245 6.88799C11.1435 6.95759 11.0568 7.0467 10.9897 7.15018C10.9227 7.25365 10.8767 7.36945 10.8543 7.49089L10.579 8.98681L10.1883 14.0435L10.3108 16.7151Z" fill="#2F2E41"/>
<path d="M14.3026 6.40699L13.9934 5.66288L13.0364 5.67978L12.0385 7.09959L10.9911 11.5301C10.9911 11.5301 10.6148 14.7665 10.9911 14.9374C11.3673 15.1082 12.6424 14.8972 12.6424 14.8972L14.3026 6.40699Z" fill="#608080"/>
<path d="M13.0364 5.67978C13.0364 5.67978 10.9749 6.8784 10.8942 7.50408C10.8136 8.12976 10.5436 15.7877 10.5436 15.7877L11.2727 15.3139L11.4719 12.5229L12.3616 6.80846L13.0364 5.67978Z" fill="#2F2E41"/>
<path d="M13.5231 5.33115C12.7471 5.33115 12.1181 4.69845 12.1181 3.91797C12.1181 3.1375 12.7471 2.5048 13.5231 2.5048C14.299 2.5048 14.9281 3.1375 14.9281 3.91797C14.9281 4.69845 14.299 5.33115 13.5231 5.33115Z" fill="#FFB8B8"/>
<path d="M15.1167 2.98942C14.959 2.74392 14.6629 2.58031 14.3759 2.62629C14.3492 2.44206 14.2727 2.26873 14.1549 2.12518C14.037 1.98163 13.8822 1.87335 13.7074 1.81214C13.5326 1.75094 13.3445 1.73914 13.1634 1.77804C12.9824 1.81694 12.8155 1.90505 12.6808 2.03277C12.6365 2.00141 12.5849 1.98208 12.531 1.97665C12.4771 1.97123 12.4228 1.97989 12.3732 2.00181C12.2744 2.04698 12.1884 2.11636 12.1232 2.20359C11.9585 2.41017 11.8526 2.65779 11.8167 2.92011C11.7809 3.18242 11.8164 3.44961 11.9195 3.69324C11.8844 3.56498 12.0122 3.44432 12.1413 3.41554C12.2705 3.38676 12.4059 3.41399 12.5368 3.39524C12.7046 3.37123 12.8555 3.27331 13.0236 3.25127C13.1648 3.23275 13.3069 3.26918 13.4446 3.30569C13.5824 3.3422 13.7241 3.37944 13.8655 3.36254C14.007 3.34565 14.1892 3.88487 14.1868 4.26466C14.1863 4.33664 14.201 4.42905 14.271 4.44432C14.3571 4.46313 14.407 4.34357 14.489 4.311C14.5268 4.30011 14.5673 4.30439 14.602 4.32295C14.6367 4.34151 14.6628 4.37289 14.675 4.41048C14.6853 4.4487 14.6864 4.48885 14.6782 4.52758C14.67 4.56632 14.6527 4.60252 14.6278 4.63317C14.5774 4.69395 14.5176 4.74613 14.4506 4.78772L14.4844 4.81596C14.5406 4.89058 14.657 4.89381 14.738 4.84765C14.8154 4.79493 14.8781 4.72314 14.92 4.63914C15.0698 4.38863 15.2011 4.12171 15.254 3.83427C15.3068 3.54684 15.2745 3.23491 15.1167 2.98942Z" fill="#2F2E41"/>
<path d="M18.1771 13.4553L15.37 10.4263C15.3132 10.365 15.2344 10.329 15.1512 10.326C15.0679 10.3231 14.9869 10.3535 14.9258 10.4106L12.6515 12.5428C12.5906 12.6 12.5547 12.6792 12.5518 12.7629C12.5489 12.8467 12.5791 12.9282 12.6359 12.9896L15.4429 16.0186C15.4998 16.0799 15.5785 16.1159 15.6617 16.1189C15.745 16.1218 15.8261 16.0914 15.8871 16.0343L18.1614 13.9021C18.2223 13.8449 18.2582 13.7657 18.2611 13.6819C18.264 13.5982 18.2338 13.5167 18.1771 13.4553Z" fill="#E6E6E6"/>
<path d="M17.1548 12.704L15.3502 10.7566C15.2969 10.6993 15.2232 10.6655 15.1452 10.6628C15.0672 10.66 14.9913 10.6885 14.9342 10.7419L12.9795 12.5744C12.9225 12.628 12.8889 12.7021 12.8862 12.7806C12.8834 12.859 12.9117 12.9354 12.9649 12.9928L15.4627 15.6883C15.516 15.7456 15.5897 15.7794 15.6677 15.7821C15.7457 15.7849 15.8216 15.7564 15.8788 15.703L17.0896 14.5678C17.3436 14.3291 17.4931 13.9988 17.5054 13.6494C17.5176 13.3 17.3915 12.96 17.1548 12.704Z" fill="white"/>
<path d="M15.5372 11.5967C15.4851 11.5406 15.4131 11.5076 15.3369 11.5049C15.2607 11.5022 15.1865 11.5301 15.1307 11.5823L13.7748 12.8535C13.719 12.9058 13.6861 12.9783 13.6834 13.055C13.6807 13.1316 13.7085 13.2062 13.7605 13.2624C13.8125 13.3185 13.8845 13.3515 13.9608 13.3542C14.037 13.3569 14.1112 13.3291 14.167 13.2767L15.5229 12.0056C15.5786 11.9532 15.6114 11.8807 15.6141 11.8041C15.6168 11.7274 15.5891 11.6528 15.5372 11.5967Z" fill="#E6E6E6"/>
<path d="M16.1473 12.2551C16.0953 12.199 16.0232 12.166 15.947 12.1633C15.8708 12.1606 15.7967 12.1885 15.7408 12.2407L14.3849 13.5119C14.3573 13.5378 14.335 13.5689 14.3193 13.6035C14.3036 13.638 14.2949 13.6754 14.2936 13.7133C14.2922 13.7513 14.2983 13.7892 14.3116 13.8248C14.3248 13.8603 14.3448 13.893 14.3706 13.9208C14.3964 13.9485 14.4273 13.971 14.4617 13.9867C14.496 14.0025 14.5331 14.0113 14.5709 14.0126C14.6086 14.014 14.6463 14.0078 14.6817 13.9945C14.7171 13.9812 14.7495 13.961 14.7771 13.9351L16.133 12.6639C16.1888 12.6116 16.2216 12.5391 16.2242 12.4625C16.2269 12.3858 16.1993 12.3112 16.1473 12.2551Z" fill="#E6E6E6"/>
<path d="M16.7575 12.9134C16.7054 12.8574 16.6334 12.8244 16.5572 12.8217C16.481 12.819 16.4068 12.8468 16.3509 12.8991L14.995 14.1703C14.9392 14.2226 14.9064 14.2951 14.9037 14.3717C14.901 14.4484 14.9287 14.523 14.9807 14.5791C15.0328 14.6353 15.1048 14.6683 15.181 14.671C15.2573 14.6737 15.3314 14.6458 15.3873 14.5935L16.7432 13.3223C16.7989 13.27 16.8317 13.1975 16.8344 13.1209C16.8371 13.0442 16.8094 12.9696 16.7575 12.9134Z" fill="#E6E6E6"/>
<path d="M13.4583 16.5238L14.4288 17.9215L14.474 17.9763C14.5527 18.0714 14.6612 18.1365 14.7817 18.161C14.7988 18.1645 14.8159 18.1671 14.8331 18.1688C14.8544 18.1709 14.8758 18.1718 14.8971 18.1714C14.9094 18.1712 14.9216 18.1705 14.9338 18.1694C15.0046 18.1633 15.0734 18.1431 15.1364 18.11L15.5505 17.8192C15.5834 17.7961 15.607 17.7617 15.6167 17.7225C15.6215 17.7031 15.6229 17.683 15.6207 17.6631C15.6177 17.6353 15.6077 17.6086 15.5917 17.5857L14.3967 15.8646C14.3714 15.8282 14.3327 15.8034 14.2891 15.7956C14.2456 15.7878 14.2008 15.7977 14.1645 15.8232L13.4996 16.2902C13.498 16.2913 13.4965 16.2925 13.4949 16.2936C13.4939 16.2944 13.4929 16.2951 13.492 16.2959C13.4907 16.2969 13.4894 16.298 13.4881 16.299C13.4865 16.3004 13.4849 16.3017 13.4834 16.3031C13.482 16.3044 13.4806 16.3057 13.4793 16.307L13.4784 16.3078C13.4767 16.3095 13.475 16.3112 13.4734 16.313C13.4717 16.3147 13.4701 16.3166 13.4685 16.3184C13.4674 16.3197 13.4663 16.3211 13.4652 16.3224L13.465 16.3225C13.4619 16.3266 13.4588 16.3307 13.456 16.3351C13.4551 16.3364 13.4542 16.3378 13.4534 16.3391L13.453 16.3397C13.4524 16.3408 13.4517 16.3419 13.4511 16.343C13.4491 16.3463 13.4473 16.3497 13.4456 16.3532C13.4428 16.3589 13.4404 16.3648 13.4382 16.3708C13.4375 16.3727 13.4369 16.3746 13.4363 16.3766C13.4358 16.3781 13.4353 16.3797 13.4349 16.3814L13.4347 16.3817L13.4346 16.3824C13.4341 16.3838 13.4338 16.3852 13.4334 16.3866C13.4327 16.3893 13.4321 16.392 13.4316 16.3947C13.4314 16.3955 13.4313 16.3962 13.4311 16.397C13.431 16.3977 13.4309 16.3985 13.4307 16.3993C13.4306 16.4 13.4305 16.4008 13.4303 16.4015L13.4301 16.4027C13.4298 16.4049 13.4295 16.4071 13.4293 16.4093C13.429 16.4121 13.4287 16.4149 13.4286 16.4177C13.4285 16.42 13.4284 16.4222 13.4283 16.4245C13.4283 16.4266 13.4283 16.4286 13.4283 16.4307C13.4283 16.4312 13.4283 16.4318 13.4284 16.4323C13.4284 16.4344 13.4285 16.4365 13.4286 16.4386C13.4289 16.444 13.4296 16.4493 13.4304 16.4545C13.4307 16.4565 13.431 16.4584 13.4314 16.4603C13.4319 16.4627 13.4324 16.465 13.4329 16.4673C13.4331 16.4681 13.4334 16.469 13.4336 16.4699C13.4339 16.4711 13.4343 16.4724 13.4346 16.4737C13.435 16.4751 13.4354 16.4765 13.4359 16.4779L13.4369 16.4812C13.4376 16.4832 13.4383 16.4851 13.439 16.4871C13.4395 16.4882 13.4399 16.4894 13.4404 16.4906C13.4438 16.4989 13.4478 16.5069 13.4524 16.5146C13.453 16.5156 13.4535 16.5165 13.4541 16.5174C13.4555 16.5196 13.4569 16.5217 13.4583 16.5238Z" fill="white"/>
<path d="M14.1155 16.5769C14.0369 16.5769 13.9731 16.5127 13.9731 16.4336C13.9731 16.3545 14.0369 16.2903 14.1155 16.2903C14.1942 16.2903 14.258 16.3545 14.258 16.4336C14.258 16.5127 14.1942 16.5769 14.1155 16.5769Z" fill="#608080"/>
<path d="M15.7249 17.9477C15.7812 17.8839 15.823 17.8084 15.8473 17.7266C15.8715 17.6447 15.8776 17.5586 15.8652 17.4741C15.8527 17.3896 15.822 17.3089 15.7752 17.2377C15.7284 17.1665 15.6666 17.1064 15.5943 17.0618L16.3494 13.4451L15.3485 13.8321L14.7691 17.2874C14.7026 17.4147 14.6848 17.562 14.7192 17.7016C14.7535 17.8411 14.8375 17.9632 14.9554 18.0446C15.0732 18.1259 15.2166 18.161 15.3584 18.1432C15.5002 18.1254 15.6306 18.0558 15.7249 17.9477Z" fill="#FFB8B8"/>
<path d="M16.2794 16.4801L16.6867 13.8402L16.8398 8.77023L16.726 7.25062C16.7168 7.12746 16.6834 7.00735 16.6278 6.89722C16.5723 6.78709 16.4956 6.68912 16.4022 6.60893C16.3088 6.52875 16.2005 6.46795 16.0836 6.43003C15.9668 6.39212 15.8436 6.37784 15.7212 6.38801C15.5606 6.40179 15.4061 6.45713 15.273 6.54868C15.1399 6.64022 15.0325 6.76484 14.9615 6.91044L14.6638 7.5239L14.7701 16.174L16.2794 16.4801Z" fill="#2F2E41"/>
<path d="M14.6233 4.49077C14.6224 4.47477 14.6176 4.45923 14.6094 4.44553C14.6011 4.43183 14.5896 4.42039 14.5759 4.41222C14.5622 4.40404 14.5467 4.39939 14.5308 4.39866C14.5149 4.39794 14.499 4.40117 14.4846 4.40807C14.4702 4.41497 14.4578 4.42532 14.4483 4.43822C14.4388 4.45112 14.4327 4.46616 14.4304 4.48201C14.4281 4.49787 14.4297 4.51406 14.435 4.52914C14.4404 4.54423 14.4494 4.55775 14.4612 4.56851L14.2981 4.83813C14.2914 4.84918 14.2894 4.86246 14.2924 4.87504C14.2955 4.88762 14.3033 4.89846 14.3143 4.90519C14.3253 4.91192 14.3385 4.91398 14.351 4.91092C14.3635 4.90786 14.3743 4.89993 14.381 4.88887L14.5644 4.58572C14.5827 4.57791 14.5982 4.5646 14.6088 4.54761C14.6193 4.53062 14.6244 4.51077 14.6233 4.49077Z" fill="white"/>
<path d="M14.5088 4.67406C14.5028 4.6861 14.4882 4.69093 14.4763 4.68486C14.4643 4.67879 14.4595 4.66412 14.4655 4.65208L14.5092 4.56492C14.5153 4.55289 14.5298 4.54805 14.5418 4.55412C14.5538 4.56019 14.5586 4.57487 14.5525 4.5869L14.5088 4.67406Z" fill="#2F2E41"/>
</g>
<defs>
<clipPath id="clip0_4_366">
<rect width="28" height="30" fill="white" transform="matrix(-1 0 0 1 28 0)"/>
</clipPath>
</defs>
</svg>
