<svg width="69" height="53" viewBox="0 0 69 53" fill="none" xmlns="http://www.w3.org/2000/svg">
<g clip-path="url(#clip0_3_158)">
<path d="M63.8411 48.1741C61.5804 49.9145 58.8261 51.6775 56.1182 52.5088C55.3375 52.7555 54.532 52.9131 53.7166 52.9784C52.9544 53.0404 52.1872 52.9802 51.4435 52.8001C49.4891 52.3087 47.6764 51.4481 45.9225 50.4427C45.3494 50.1137 44.783 49.7697 44.2199 49.4181C43.3007 48.8438 42.3906 48.2494 41.478 47.6693C41.3413 47.5814 41.2055 47.4952 41.0689 47.4098H41.0681C40.8478 47.27 40.627 47.1321 40.4056 46.9962C40.3667 46.972 40.3277 46.9485 40.288 46.9242C39.8698 46.6681 39.4444 46.4178 39.0119 46.1733C38.9589 46.144 38.9059 46.1139 38.8529 46.0846C38.016 45.6153 37.1558 45.1898 36.2758 44.8096C35.6978 44.5635 35.1123 44.3417 34.521 44.1525H34.5202C34.2941 44.0805 34.0672 44.0127 33.8395 43.9507C33.1566 43.7613 32.4607 43.6237 31.7576 43.5389C30.7887 43.4203 29.8088 43.4282 28.8419 43.5623C28.7764 43.5715 28.7118 43.5807 28.6464 43.5916C26.0296 44.0152 23.6413 45.4433 21.0129 45.7799C20.9276 45.7908 20.8431 45.8008 20.7578 45.8083C20.7214 45.8117 20.685 45.8159 20.6485 45.8184C19.8847 45.8845 19.116 45.8654 18.3563 45.7615C16.2339 45.4785 14.1669 44.6003 12.3061 43.4937C7.95608 40.9061 4.42833 36.9288 2.28352 32.3229C1.91521 31.5335 1.58821 30.7251 1.30387 29.901C0.508877 27.6159 0.0710723 25.2194 0.00621759 22.7979C-0.195013 14.3964 4.5277 5.9673 11.9426 2.16753C19.3583 -1.63223 29.1135 -0.37569 35.0941 5.46167C38.722 9.00276 40.8213 13.8012 43.5516 18.0882C46.2819 22.3743 50.1624 26.4688 55.1675 27.0933C57.7172 27.4114 60.3854 26.7961 62.8292 27.5964C64.1823 28.0401 65.3367 28.889 66.2667 29.9705C66.8919 30.7045 67.4151 31.5213 67.8218 32.3982C68.1199 33.0322 68.3619 33.6917 68.5448 34.3689C68.5787 34.4936 68.6102 34.6183 68.6408 34.7431C69.8582 39.7692 67.9129 45.0382 63.8411 48.1741Z" fill="#608080"/>
<path d="M23.1179 39.0752H15.3337C14.1674 39.0752 13.222 40.031 13.222 41.2099V41.2099C13.222 42.3889 14.1674 43.3446 15.3337 43.3446H23.1179C24.2842 43.3446 25.2296 42.3889 25.2296 41.2099C25.2296 40.031 24.2842 39.0752 23.1179 39.0752Z" fill="#3F3D56"/>
<path d="M20.7578 42.2564V45.8083C19.9582 45.8865 19.1523 45.8708 18.3563 45.7614V42.2564H20.7578Z" fill="#3F3D56"/>
<path d="M28.8418 43.5623C28.7764 43.5715 28.7118 43.5807 28.6464 43.5916C26.0296 44.0152 23.6413 45.4433 21.0129 45.7799C20.9276 45.7907 20.8431 45.8008 20.7578 45.8083C20.7214 45.8117 20.6849 45.8159 20.6485 45.8184C20.0067 45.183 19.3649 44.5066 18.7621 43.8059C18.435 43.4267 18.1186 43.0399 17.8213 42.6481C17.0495 41.6369 16.3953 40.5971 15.963 39.5758C16.0069 39.0861 15.7055 37.9535 15.5614 37.0862L15.5606 37.0854C15.4993 36.7212 15.4662 36.4048 15.4968 36.2013C15.6724 35.0277 16.6206 35.1624 16.9121 34.0122C17.175 33.7916 17.455 33.5926 17.7493 33.417C17.7981 33.3877 17.8478 33.3584 17.8992 33.3291L21.0626 31.1191L22.2716 32.3179L24.1117 34.1428L26.1057 36.1193L24.4131 37.848C24.4131 37.848 25.8275 39.4963 27.4812 41.6938C27.9251 42.284 28.3864 42.9143 28.8418 43.5623Z" fill="#2F2E41"/>
<path d="M56.1181 42.2564V52.5088C55.3375 52.7556 54.532 52.9131 53.7166 52.9784V42.2564H56.1181Z" fill="#3F3D56"/>
<path d="M59.2236 41.4192H51.4393C50.2731 41.4192 49.3276 42.375 49.3276 43.5539V43.5539C49.3276 44.7329 50.2731 45.6886 51.4393 45.6886H59.2236C60.3898 45.6886 61.3352 44.7329 61.3352 43.5539C61.3352 42.375 60.3898 41.4192 59.2236 41.4192Z" fill="#3F3D56"/>
<path d="M40.288 46.9242C39.8698 46.6681 39.4444 46.4178 39.0118 46.1733C38.9588 46.144 38.9058 46.1139 38.8528 46.0846L39.1377 45.9615L39.9062 45.6275L39.9137 45.6242L39.9219 45.6526L40.288 46.9242Z" fill="#FFB6B6"/>
<path d="M41.478 47.6693C41.3413 47.5814 41.2055 47.4952 41.0689 47.4098H41.0681C40.8478 47.27 40.6269 47.1321 40.4056 46.9962C40.3666 46.972 40.3277 46.9485 40.288 46.9242C39.8698 46.6681 39.4444 46.4178 39.0119 46.1733C38.9589 46.144 38.9059 46.1139 38.8529 46.0846C38.016 45.6153 37.1558 45.1898 36.2758 44.8096C35.6978 44.5635 35.1123 44.3417 34.521 44.1525H34.5202L34.0556 43.3664L31.9646 39.8261L31.505 39.0484C31.505 39.0484 29.9374 39.5172 27.7189 39.9668C26.9115 40.1309 26.0188 40.2916 25.0822 40.4272C24.081 40.5712 23.031 40.6859 21.9876 40.7411C21.4899 40.7679 20.9938 40.7813 20.5052 40.7771C19.2424 40.7688 18.0292 40.6491 16.9667 40.3644C16.6123 40.0279 15.544 39.57 14.7789 39.1506H14.778C14.4567 38.9748 14.1901 38.8065 14.0501 38.6567C13.2435 37.7944 13.9325 37.1222 13.2154 36.1813C13.2057 35.8361 13.2232 35.4906 13.2676 35.1482C13.275 35.0913 13.2825 35.0335 13.2916 34.9749L13.5176 31.094L15.197 30.8696L17.7526 30.5281L20.521 30.1581L20.8257 32.5707C20.8257 32.5707 22.9813 32.4602 25.7124 32.497C30.0989 32.5573 35.9685 32.9993 36.7635 34.8963C36.8381 35.0746 36.9126 35.2545 36.9871 35.4345C37.1643 35.8648 37.3399 36.2973 37.5138 36.7321C38.144 38.3059 38.7452 39.8948 39.2942 41.3966C39.6354 42.3309 39.9567 43.2316 40.2524 44.0746C40.49 44.7527 40.7103 45.3939 40.9115 45.9841C41.0954 46.5232 41.2618 47.0197 41.4101 47.465C41.4332 47.5345 41.4556 47.6032 41.478 47.6693Z" fill="#2F2E41"/>
<path d="M26.0291 24.1552L20.7246 19.601L24.1758 16.0702L26.5835 20.0569L35.5084 21.8456C35.7767 21.6415 36.0981 21.5207 36.4332 21.4979C36.7683 21.4752 37.1027 21.5515 37.3957 21.7175C37.6886 21.8836 37.9274 22.1322 38.083 22.4332C38.2386 22.7341 38.3042 23.0742 38.2718 23.4122C38.2395 23.7501 38.1105 24.0713 37.9008 24.3364C37.691 24.6016 37.4094 24.7993 37.0904 24.9055C36.7714 25.0117 36.4287 25.0217 36.1041 24.9344C35.7795 24.8471 35.4871 24.6662 35.2625 24.4138L26.0291 24.1552Z" fill="#A0616A"/>
<path d="M16.0367 13.6158C15.4236 15.6318 21.262 20.4401 21.262 20.4401C21.3269 19.9561 24.637 24.1297 24.8622 23.7517C25.5023 22.6775 26.2066 20.0221 26.9455 19.6827C27.3681 19.4886 24.9439 16.791 24.9439 16.791C24.9439 16.791 23.7073 15.1371 22.0746 13.0411C21.6239 12.4398 21.03 11.9636 20.3483 11.6568C19.6665 11.35 18.9191 11.2225 18.1755 11.2863C18.1755 11.2863 16.6497 11.5997 16.0367 13.6158Z" fill="#3F3D56"/>
<path d="M18.618 9.15269C20.5994 9.15269 22.2057 7.52891 22.2057 5.52587C22.2057 3.52284 20.5994 1.89906 18.618 1.89906C16.6366 1.89906 15.0303 3.52284 15.0303 5.52587C15.0303 7.52891 16.6366 9.15269 18.618 9.15269Z" fill="#A0616A"/>
<path d="M20.4119 11.5498C21.1848 12.0143 21.6472 12.8678 21.9126 13.7362C22.404 15.3442 22.6997 17.0066 22.7934 18.6868L23.0737 23.7171L26.5457 34.4281C23.5367 37.0019 12.2261 35.013 12.2261 35.013C12.2261 35.013 11.8789 34.8961 12.2261 34.5451C12.5733 34.1941 12.9113 34.505 12.5641 34.1541C12.2169 33.8031 12.4562 34.1941 12.572 33.8431C12.6877 33.4921 12.572 33.7261 12.4562 33.6091C12.3405 33.4921 13.3522 32.4392 13.3522 32.4392L12.4263 26.291L11.269 13.8896C12.6578 12.1347 15.4508 11.1002 15.4508 11.1002L16.1725 9.78702L19.781 10.0788L20.4119 11.5498Z" fill="#3F3D56"/>
<path d="M21.5755 3.599C21.8543 3.80924 22.0609 4.1026 22.1662 4.43777C22.2066 3.89003 22.2092 3.3401 22.1739 2.792C22.1316 2.40685 21.8633 2.32022 21.5527 2.21983C21.2722 2.12914 20.955 2.02669 20.8697 1.65279C19.7419 0.543715 17.7787 0.59964 16.4351 0.986503C15.6958 1.19939 15.2704 1.4729 15.2324 1.63313L15.2245 1.66611L15.1944 1.68128C14.6246 1.96933 14.5136 2.87892 14.521 3.59123C14.5348 4.93328 14.9932 6.4575 15.2515 6.58132C15.2651 6.58788 15.2686 6.58531 15.2745 6.58033C15.6633 6.26621 16.1377 6.6042 16.3462 6.78794C16.4691 5.95383 16.865 5.18544 17.4707 4.60548C18.0763 4.02552 18.8567 3.66745 19.6873 3.58846C19.9585 3.56196 20.2276 3.51635 20.4925 3.45196C20.6269 3.41681 20.7651 3.39848 20.9039 3.39738C21.1429 3.39371 21.3772 3.46407 21.5755 3.599Z" fill="#2F2E41"/>
<path d="M17.0548 29.6194L15.9573 29.0512C15.8985 29.0088 15.8568 28.9465 15.8397 28.8756C15.8226 28.8047 15.8313 28.7299 15.8642 28.6649C15.8971 28.6 15.952 28.5491 16.0189 28.5217C16.0859 28.4943 16.1603 28.4922 16.2287 28.5156L17.3261 29.0838C17.3849 29.1262 17.4267 29.1885 17.4438 29.2594C17.4609 29.3303 17.4522 29.4051 17.4193 29.4701C17.3864 29.535 17.3315 29.5859 17.2646 29.6133C17.1976 29.6407 17.1232 29.6429 17.0548 29.6194Z" fill="#6C63FF"/>
<path d="M13.3612 28.0971L11.5558 21.3027L16.3803 20.3795L16.1209 25.0431L22.4598 31.6413C22.7954 31.6274 23.1277 31.7125 23.4163 31.8863C23.7048 32.0601 23.9371 32.3149 24.0849 32.6199C24.2326 32.9248 24.2894 33.2666 24.2483 33.6036C24.2072 33.9405 24.07 34.2581 23.8534 34.5176C23.6368 34.7772 23.3502 34.9674 23.0285 35.0651C22.7069 35.1628 22.3641 35.1638 22.0418 35.0679C21.7196 34.972 21.432 34.7835 21.214 34.5252C20.9959 34.2669 20.857 33.9501 20.814 33.6134L13.3612 28.0971Z" fill="#A0616A"/>
<path d="M11.0622 13.6848C9.42459 14.9917 11.5264 22.3019 11.5264 22.3019C11.8519 21.9408 12.23 27.2765 12.6278 27.0949C13.7583 26.5785 15.8303 24.7979 16.6291 24.9431C17.0859 25.0261 16.6073 21.4137 16.6073 21.4137C16.6073 21.4137 16.5193 19.3425 16.3539 16.6799C16.3209 15.9263 16.0998 15.1933 15.7113 14.5492C15.3227 13.9052 14.7793 13.371 14.1316 12.9964C14.1316 12.9964 12.6998 12.3779 11.0622 13.6848Z" fill="#3F3D56"/>
<path d="M67.8218 32.3982L2.28348 32.3229C1.91518 31.5335 1.58817 30.7251 1.30383 29.901L66.2666 29.9705C66.8918 30.7045 67.4151 31.5213 67.8218 32.3982Z" fill="#3F3D56"/>
<path d="M46.9476 49.963C46.6089 50.1288 46.2672 50.2887 45.9224 50.4427C45.3494 50.1137 44.783 49.7697 44.2198 49.4181L46.3083 48.4905L46.9476 49.963Z" fill="#FFB6B6"/>
<path d="M62.1749 38.4273C61.8354 38.8877 61.4851 39.3389 61.1241 39.7809C60.7912 40.1886 60.4494 40.5885 60.0989 40.9806C59.9539 41.143 59.8074 41.3045 59.6575 41.4644C59.3817 41.7633 59.0999 42.0571 58.812 42.3459C58.2936 42.5108 57.2435 42.8013 56.1181 43.0726C55.2991 43.2693 54.4404 43.456 53.7166 43.5748C53.3114 43.6484 52.9016 43.6926 52.4902 43.7071C52.0016 43.7113 51.5056 43.6979 51.0079 43.6711C50.4464 43.641 49.8841 43.5941 49.3285 43.5338C47.8834 43.3806 46.4839 43.1421 45.2765 42.8968C44.8343 42.808 44.4186 42.7176 44.036 42.6297C43.3114 42.4648 42.7052 42.3108 42.2663 42.1936C41.7719 42.063 41.4904 41.9784 41.4904 41.9784L40.2524 44.0746L39.6098 45.1621L39.1377 45.9615L39.0119 46.1733C38.9589 46.144 38.9059 46.1139 38.8529 46.0846C38.016 45.6153 37.1558 45.1898 36.2758 44.8096C35.6978 44.5635 35.1123 44.3417 34.521 44.1525H34.5202C34.2941 44.0805 34.0672 44.0127 33.8395 43.9507C33.9107 43.7573 33.9827 43.5626 34.0556 43.3664C34.1914 43.0006 34.33 42.6314 34.4713 42.2589C34.7769 41.4519 35.0932 40.6332 35.4187 39.8186C35.6853 39.1497 35.957 38.4834 36.2319 37.8262C36.3586 37.5232 36.6161 37.257 36.9764 37.0234C37.1485 36.9137 37.3281 36.8163 37.5138 36.7321C38.5448 36.2574 40.0636 35.9485 41.7372 35.7501C41.8755 35.7342 42.0146 35.7183 42.1545 35.7033C43.54 35.5559 45.0099 35.4797 46.3845 35.4446C47.0727 35.427 47.7368 35.4203 48.3546 35.4195C48.5542 35.4195 48.7482 35.42 48.9368 35.4211H48.9376C49.4469 35.4236 49.9156 35.4312 50.328 35.4396C50.4083 35.4412 50.4862 35.4437 50.5624 35.4454H50.5632C50.6145 35.4462 50.665 35.4479 50.7147 35.4488C51.6165 35.4722 52.1697 35.5007 52.1697 35.5007L52.3842 33.7996L52.4281 33.4564L52.4695 33.1299V33.1291L52.4745 33.088L52.5084 33.0872L53.1047 33.0755L58.1164 32.9767L60.8541 32.9223L60.4202 34.8025L59.7039 37.9049C59.7767 38.3955 62.1998 38.0112 62.1749 38.4273Z" fill="#2F2E41"/>
<path d="M47.5654 49.6533C47.3608 49.7588 47.1547 49.8626 46.9476 49.963C46.6089 50.1288 46.2672 50.2887 45.9224 50.4427C45.3494 50.1137 44.7829 49.7697 44.2198 49.4181C43.3006 48.8438 42.3905 48.2494 41.478 47.6693C41.3413 47.5814 41.2055 47.4952 41.0689 47.4098H41.068C40.6921 46.8455 40.3087 46.2579 39.9219 45.6526C39.9161 45.6443 39.9112 45.6359 39.9062 45.6275C39.8068 45.4735 39.708 45.3183 39.6097 45.1621C38.9911 44.1826 38.3692 43.1613 37.7655 42.1182L39.2942 41.3966L42.1363 40.0555L42.6265 39.8245L44.036 42.6297L45.2931 45.1319L45.573 45.6886L47.5654 49.6533Z" fill="#2F2E41"/>
<path d="M47.9937 36.1852L55.2398 29.1212L57.2481 23.3726L54.2857 22.0704C52.7641 23.5439 51.1193 28.1333 51.1193 28.1333L46.133 34.5461C46.0942 34.5596 46.0554 34.5739 46.0172 34.5909C45.7926 34.6911 45.5973 34.848 45.4503 35.0467C45.3033 35.2454 45.2094 35.4791 45.1778 35.7251C45.1462 35.9712 45.178 36.2213 45.2699 36.4514C45.3619 36.6814 45.5111 36.8836 45.7029 37.0383C45.8948 37.1931 46.1229 37.2952 46.3652 37.3348C46.6075 37.3744 46.8558 37.3501 47.0861 37.2644C47.3165 37.1786 47.521 37.0342 47.68 36.8452C47.839 36.6561 47.947 36.4288 47.9937 36.1852Z" fill="#FFB8B8"/>
<path d="M53.4521 22.7122L57.2097 23.9181L57.2239 23.9157C58.6225 23.6789 59.783 21.3698 60.5102 19.4744C60.7495 18.8492 60.745 18.1555 60.4977 17.5335C60.2504 16.9115 59.7787 16.4077 59.178 16.1238C58.7334 15.9174 58.2407 15.8409 57.7553 15.9028C57.27 15.9647 56.8115 16.1626 56.4316 16.4741L54.502 18.0679L53.4521 22.7122Z" fill="#6C63FF"/>
<path d="M62.1598 38.5121L62.1818 38.4826C63.3542 36.9108 61.7507 33.0183 61.5083 32.4538L62.5984 32.1274L62.4084 30.0292L62.3169 29.0936L63.1644 28.2799L63.1673 28.2592L63.7502 24.0657L64.5129 21.2903C64.8003 20.2411 64.8064 19.1334 64.5305 18.081C64.2545 17.0286 63.7065 16.0694 62.9427 15.3019L61.3836 13.737L59.5157 10.7814L56.3838 10.6996L55.2576 12.7221C54.2103 12.9381 53.2711 13.5188 52.6038 14.3629C51.9364 15.2069 51.5831 16.2609 51.6054 17.3413L51.7114 22.7254L50.5876 29.3963L50.5561 30.608L49.4531 31.7846L49.6571 32.9742L48.832 33.3064L48.4283 34.9967C48.2741 35.1917 47.256 36.4927 47.2467 36.8553C47.2453 36.9098 47.2837 36.9635 47.3676 37.0241C48.0266 37.5007 51.71 38.5335 53.3677 37.9126C55.1335 37.2518 62.0542 38.4929 62.1239 38.5055L62.1598 38.5121Z" fill="#9EEDEF"/>
<path d="M57.6762 9.79359C59.9677 9.79359 61.8253 7.91571 61.8253 5.59923C61.8253 3.28275 59.9677 1.40487 57.6762 1.40487C55.3847 1.40487 53.5271 3.28275 53.5271 5.59923C53.5271 7.91571 55.3847 9.79359 57.6762 9.79359Z" fill="#FFB8B8"/>
<path d="M57.1701 9.84971C57.8126 9.85984 58.4548 9.81447 59.0897 9.71409C59.719 9.58472 61.1268 8.54183 61.5192 7.91426C61.8108 7.44799 61.9973 6.71986 62.1023 6.19118C62.2439 5.49157 62.2385 4.76971 62.0865 4.07235C61.9345 3.37498 61.6394 2.71766 61.2201 2.14294C61.059 1.90256 60.8366 1.71066 60.5764 1.58756C60.5533 1.57844 60.5296 1.57037 60.5056 1.56346C60.1265 1.46263 59.7859 1.24956 59.5275 0.951606C59.4774 0.891342 59.423 0.834803 59.3649 0.782431C59.0728 0.533249 58.7265 0.357481 58.3544 0.269495C57.7536 0.106972 56.8843 0.268297 55.7705 0.749453C55.2109 0.991196 54.599 0.903709 54.1282 0.800473C54.1018 0.795317 54.0745 0.79724 54.049 0.806052C54.0236 0.814865 54.0009 0.830258 53.9831 0.850702C53.7828 1.04079 53.5188 1.1472 53.2441 1.14853C53.0758 1.156 52.8992 1.39153 52.6858 1.69867C52.6374 1.76839 52.5809 1.84976 52.5402 1.89926L52.5347 1.80417L52.4395 1.91024C52.2899 2.07696 52.1845 2.27924 52.133 2.49825C52.0815 2.71726 52.0857 2.94587 52.1452 3.1628C52.2046 3.37972 52.3174 3.57791 52.4731 3.7389C52.6287 3.89989 52.8221 4.01846 53.0353 4.08354C53.2046 4.12907 53.378 4.15701 53.5529 4.16692C53.6588 4.17656 53.7684 4.18652 53.8734 4.20494C54.2104 4.27471 54.5237 4.43162 54.7829 4.66036C55.042 4.88911 55.238 5.18186 55.3518 5.51005C55.3787 5.58591 55.4225 5.65451 55.4798 5.71054C55.5371 5.76658 55.6063 5.80855 55.6822 5.83323C55.7581 5.85791 55.8386 5.86462 55.9175 5.85286C55.9963 5.8411 56.0715 5.81118 56.1371 5.7654C56.2465 5.6793 56.3748 5.62121 56.5112 5.59611C56.6476 5.571 56.788 5.57961 56.9204 5.62121C57.0348 5.68552 57.1238 5.78764 57.1726 5.91044C57.2319 6.04726 57.3301 6.16312 57.4548 6.24326C57.8813 6.46553 57.9107 7.45017 57.7575 8.27099C57.6099 9.06219 57.318 9.63455 57.0478 9.66284C56.8398 9.6846 56.816 9.69953 56.8009 9.73672L56.7875 9.77002L56.8109 9.80116C56.9257 9.84327 57.0483 9.85982 57.1701 9.84971Z" fill="#2F2E41"/>
<path d="M54.4825 21.4441L52.8827 18.2198C50.5606 18.3802 45.9519 21.0943 45.9519 21.0943L37.232 22.9633C36.9736 22.8629 36.6937 22.8331 36.4204 22.8768C36.147 22.9206 35.8899 23.0364 35.6749 23.2125C35.4599 23.3886 35.2946 23.6189 35.1956 23.8802C35.0966 24.1414 35.0674 24.4244 35.111 24.7007C35.1546 24.977 35.2695 25.2367 35.444 25.4539C35.6185 25.671 35.8464 25.8379 36.105 25.9376C36.3636 26.0374 36.6435 26.0665 36.9168 26.0221C37.19 25.9777 37.4469 25.8613 37.6615 25.6847L48.7537 24.8809L54.4825 21.4441Z" fill="#FFB8B8"/>
<path d="M53.8372 21.9735L58.0154 18.8347L58.7513 16.1536C58.8939 15.6267 58.8879 15.07 58.7339 14.5464C58.58 14.0229 58.2842 13.5532 57.8801 13.1906C57.329 12.7028 56.6152 12.4448 55.8831 12.4687C55.151 12.4926 54.4551 12.7966 53.9363 13.3193C52.364 14.9057 50.5707 17.119 50.9559 18.6538L50.9598 18.6693L53.8372 21.9735Z" fill="#9EEDEF"/>
<path d="M48.6651 30.369H37.4857V31.8759H48.6651V30.369Z" fill="white"/>
<path d="M20.0953 30.369H8.91583V31.8759H20.0953V30.369Z" fill="white"/>
<path d="M21.4008 23.1226V30.2972C21.4008 30.3886 21.4368 30.4763 21.5007 30.5409C21.5647 30.6056 21.6514 30.6419 21.7419 30.642H32.2592C32.3497 30.6419 32.4364 30.6056 32.5004 30.5409C32.5643 30.4763 32.6003 30.3886 32.6003 30.2972V23.1226C32.6001 23.0312 32.5641 22.9437 32.5002 22.8791C32.4362 22.8146 32.3496 22.7783 32.2592 22.7782H21.7419C21.6515 22.7783 21.5649 22.8146 21.5009 22.8791C21.437 22.9437 21.401 23.0312 21.4008 23.1226Z" fill="#3F3D56"/>
<path d="M21.6475 23.2119V30.2087C21.6476 30.2575 21.6668 30.3044 21.701 30.3389C21.7351 30.3735 21.7815 30.3929 21.8298 30.393H32.1717C32.22 30.3929 32.2663 30.3735 32.3005 30.3389C32.3347 30.3044 32.3539 30.2575 32.354 30.2087V23.2119C32.354 23.163 32.3348 23.116 32.3006 23.0814C32.2664 23.0468 32.2201 23.0273 32.1717 23.0272H21.8298C21.7814 23.0273 21.735 23.0468 21.7009 23.0814C21.6667 23.116 21.6475 23.163 21.6475 23.2119Z" fill="#F5F5F5"/>
<path d="M21.1808 31.6964C21.2 31.7209 21.2245 31.7406 21.2524 31.754C21.2803 31.7675 21.3108 31.7744 21.3417 31.7743H32.6034C32.6342 31.7742 32.6646 31.7673 32.6924 31.7539C32.7202 31.7404 32.7446 31.7209 32.764 31.6968C32.7834 31.6726 32.7973 31.6443 32.8045 31.6141C32.8118 31.5838 32.8122 31.5523 32.8059 31.5218L32.6311 30.6824C32.6239 30.6482 32.6083 30.6163 32.5857 30.5897C32.5632 30.5632 32.5344 30.5427 32.5021 30.5302C32.4787 30.5209 32.4537 30.5162 32.4285 30.5162H21.5158C21.4907 30.5162 21.4657 30.5209 21.4423 30.5302C21.4099 30.5427 21.3812 30.5632 21.3587 30.5897C21.3361 30.6163 21.3205 30.6482 21.3133 30.6824L21.1385 31.5218C21.1322 31.5523 21.1328 31.5838 21.1401 31.614C21.1475 31.6442 21.1613 31.6723 21.1808 31.6964Z" fill="#2F2E41"/>
<path d="M32.0421 30.8778H32.3081C32.3305 30.8778 32.3486 30.8595 32.3486 30.8369V30.7082C32.3486 30.6857 32.3305 30.6674 32.3081 30.6674H32.0421C32.0198 30.6674 32.0017 30.6857 32.0017 30.7082V30.8369C32.0017 30.8595 32.0198 30.8778 32.0421 30.8778Z" fill="#3F3D56"/>
<path d="M31.3484 30.8778H31.6144C31.6368 30.8778 31.6549 30.8595 31.6549 30.8369V30.7082C31.6549 30.6857 31.6368 30.6674 31.6144 30.6674H31.3484C31.3261 30.6674 31.308 30.6857 31.308 30.7082V30.8369C31.308 30.8595 31.3261 30.8778 31.3484 30.8778Z" fill="#3F3D56"/>
<path d="M30.6547 30.8778H30.9207C30.9431 30.8778 30.9612 30.8595 30.9612 30.8369V30.7082C30.9612 30.6857 30.9431 30.6674 30.9207 30.6674H30.6547C30.6324 30.6674 30.6143 30.6857 30.6143 30.7082V30.8369C30.6143 30.8595 30.6324 30.8778 30.6547 30.8778Z" fill="#3F3D56"/>
<path d="M29.961 30.8778H30.227C30.2494 30.8778 30.2675 30.8595 30.2675 30.8369V30.7082C30.2675 30.6857 30.2494 30.6674 30.227 30.6674H29.961C29.9387 30.6674 29.9206 30.6857 29.9206 30.7082V30.8369C29.9206 30.8595 29.9387 30.8778 29.961 30.8778Z" fill="#3F3D56"/>
<path d="M29.2673 30.8778H29.5333C29.5556 30.8778 29.5737 30.8595 29.5737 30.8369V30.7082C29.5737 30.6857 29.5556 30.6674 29.5333 30.6674H29.2673C29.245 30.6674 29.2269 30.6857 29.2269 30.7082V30.8369C29.2269 30.8595 29.245 30.8778 29.2673 30.8778Z" fill="#3F3D56"/>
<path d="M28.5736 30.8778H28.8396C28.8619 30.8778 28.88 30.8595 28.88 30.8369V30.7082C28.88 30.6857 28.8619 30.6674 28.8396 30.6674H28.5736C28.5513 30.6674 28.5332 30.6857 28.5332 30.7082V30.8369C28.5332 30.8595 28.5513 30.8778 28.5736 30.8778Z" fill="#3F3D56"/>
<path d="M27.8799 30.8778H28.1459C28.1682 30.8778 28.1863 30.8595 28.1863 30.8369V30.7082C28.1863 30.6857 28.1682 30.6674 28.1459 30.6674H27.8799C27.8576 30.6674 27.8395 30.6857 27.8395 30.7082V30.8369C27.8395 30.8595 27.8576 30.8778 27.8799 30.8778Z" fill="#3F3D56"/>
<path d="M27.1862 30.8778H27.4522C27.4745 30.8778 27.4926 30.8595 27.4926 30.8369V30.7082C27.4926 30.6857 27.4745 30.6674 27.4522 30.6674H27.1862C27.1639 30.6674 27.1458 30.6857 27.1458 30.7082V30.8369C27.1458 30.8595 27.1639 30.8778 27.1862 30.8778Z" fill="#3F3D56"/>
<path d="M26.4925 30.8778H26.7585C26.7808 30.8778 26.7989 30.8595 26.7989 30.8369V30.7082C26.7989 30.6857 26.7808 30.6674 26.7585 30.6674H26.4925C26.4702 30.6674 26.4521 30.6857 26.4521 30.7082V30.8369C26.4521 30.8595 26.4702 30.8778 26.4925 30.8778Z" fill="#3F3D56"/>
<path d="M25.7988 30.8778H26.0648C26.0871 30.8778 26.1052 30.8595 26.1052 30.8369V30.7082C26.1052 30.6857 26.0871 30.6674 26.0648 30.6674H25.7988C25.7764 30.6674 25.7583 30.6857 25.7583 30.7082V30.8369C25.7583 30.8595 25.7764 30.8778 25.7988 30.8778Z" fill="#3F3D56"/>
<path d="M25.1051 30.8778H25.3711C25.3934 30.8778 25.4115 30.8595 25.4115 30.8369V30.7082C25.4115 30.6857 25.3934 30.6674 25.3711 30.6674H25.1051C25.0827 30.6674 25.0646 30.6857 25.0646 30.7082V30.8369C25.0646 30.8595 25.0827 30.8778 25.1051 30.8778Z" fill="#3F3D56"/>
<path d="M24.4114 30.8778H24.6774C24.6997 30.8778 24.7178 30.8595 24.7178 30.8369V30.7082C24.7178 30.6857 24.6997 30.6674 24.6774 30.6674H24.4114C24.3891 30.6674 24.371 30.6857 24.371 30.7082V30.8369C24.371 30.8595 24.3891 30.8778 24.4114 30.8778Z" fill="#3F3D56"/>
<path d="M23.7177 30.8778H23.9837C24.006 30.8778 24.0241 30.8595 24.0241 30.8369V30.7082C24.0241 30.6857 24.006 30.6674 23.9837 30.6674H23.7177C23.6953 30.6674 23.6772 30.6857 23.6772 30.7082V30.8369C23.6772 30.8595 23.6953 30.8778 23.7177 30.8778Z" fill="#3F3D56"/>
<path d="M23.024 30.8778H23.29C23.3123 30.8778 23.3304 30.8595 23.3304 30.8369V30.7082C23.3304 30.6857 23.3123 30.6674 23.29 30.6674H23.024C23.0016 30.6674 22.9835 30.6857 22.9835 30.7082V30.8369C22.9835 30.8595 23.0016 30.8778 23.024 30.8778Z" fill="#3F3D56"/>
<path d="M22.3303 30.8778H22.5963C22.6186 30.8778 22.6367 30.8595 22.6367 30.8369V30.7082C22.6367 30.6857 22.6186 30.6674 22.5963 30.6674H22.3303C22.3079 30.6674 22.2898 30.6857 22.2898 30.7082V30.8369C22.2898 30.8595 22.3079 30.8778 22.3303 30.8778Z" fill="#3F3D56"/>
<path d="M21.6365 30.8778H21.9025C21.9249 30.8778 21.943 30.8595 21.943 30.8369V30.7082C21.943 30.6857 21.9249 30.6674 21.9025 30.6674H21.6365C21.6142 30.6674 21.5961 30.6857 21.5961 30.7082V30.8369C21.5961 30.8595 21.6142 30.8778 21.6365 30.8778Z" fill="#3F3D56"/>
<path d="M32.0504 31.2284H32.3164C32.3387 31.2284 32.3568 31.2101 32.3568 31.1875V31.0589C32.3568 31.0363 32.3387 31.018 32.3164 31.018H32.0504C32.028 31.018 32.0099 31.0363 32.0099 31.0589V31.1875C32.0099 31.2101 32.028 31.2284 32.0504 31.2284Z" fill="#3F3D56"/>
<path d="M31.3566 31.2284H31.6226C31.645 31.2284 31.6631 31.2101 31.6631 31.1875V31.0589C31.6631 31.0363 31.645 31.018 31.6226 31.018H31.3566C31.3343 31.018 31.3162 31.0363 31.3162 31.0589V31.1875C31.3162 31.2101 31.3343 31.2284 31.3566 31.2284Z" fill="#3F3D56"/>
<path d="M30.6629 31.2284H30.9289C30.9513 31.2284 30.9694 31.2101 30.9694 31.1875V31.0589C30.9694 31.0363 30.9513 31.018 30.9289 31.018H30.6629C30.6406 31.018 30.6225 31.0363 30.6225 31.0589V31.1875C30.6225 31.2101 30.6406 31.2284 30.6629 31.2284Z" fill="#3F3D56"/>
<path d="M29.9692 31.2284H30.2352C30.2575 31.2284 30.2756 31.2101 30.2756 31.1875V31.0589C30.2756 31.0363 30.2575 31.018 30.2352 31.018H29.9692C29.9469 31.018 29.9288 31.0363 29.9288 31.0589V31.1875C29.9288 31.2101 29.9469 31.2284 29.9692 31.2284Z" fill="#3F3D56"/>
<path d="M29.2755 31.2284H29.5415C29.5638 31.2284 29.5819 31.2101 29.5819 31.1875V31.0589C29.5819 31.0363 29.5638 31.018 29.5415 31.018H29.2755C29.2532 31.018 29.2351 31.0363 29.2351 31.0589V31.1875C29.2351 31.2101 29.2532 31.2284 29.2755 31.2284Z" fill="#3F3D56"/>
<path d="M28.5818 31.2284H28.8478C28.8701 31.2284 28.8882 31.2101 28.8882 31.1875V31.0589C28.8882 31.0363 28.8701 31.018 28.8478 31.018H28.5818C28.5595 31.018 28.5414 31.0363 28.5414 31.0589V31.1875C28.5414 31.2101 28.5595 31.2284 28.5818 31.2284Z" fill="#3F3D56"/>
<path d="M27.8881 31.2284H28.1541C28.1764 31.2284 28.1945 31.2101 28.1945 31.1875V31.0589C28.1945 31.0363 28.1764 31.018 28.1541 31.018H27.8881C27.8658 31.018 27.8477 31.0363 27.8477 31.0589V31.1875C27.8477 31.2101 27.8658 31.2284 27.8881 31.2284Z" fill="#3F3D56"/>
<path d="M27.1944 31.2284H27.4604C27.4827 31.2284 27.5008 31.2101 27.5008 31.1875V31.0589C27.5008 31.0363 27.4827 31.018 27.4604 31.018H27.1944C27.1721 31.018 27.154 31.0363 27.154 31.0589V31.1875C27.154 31.2101 27.1721 31.2284 27.1944 31.2284Z" fill="#3F3D56"/>
<path d="M26.5007 31.2284H26.7667C26.789 31.2284 26.8071 31.2101 26.8071 31.1875V31.0589C26.8071 31.0363 26.789 31.018 26.7667 31.018H26.5007C26.4783 31.018 26.4602 31.0363 26.4602 31.0589V31.1875C26.4602 31.2101 26.4783 31.2284 26.5007 31.2284Z" fill="#3F3D56"/>
<path d="M25.807 31.2284H26.073C26.0953 31.2284 26.1134 31.2101 26.1134 31.1875V31.0589C26.1134 31.0363 26.0953 31.018 26.073 31.018H25.807C25.7847 31.018 25.7666 31.0363 25.7666 31.0589V31.1875C25.7666 31.2101 25.7847 31.2284 25.807 31.2284Z" fill="#3F3D56"/>
<path d="M25.1133 31.2284H25.3793C25.4016 31.2284 25.4197 31.2101 25.4197 31.1875V31.0589C25.4197 31.0363 25.4016 31.018 25.3793 31.018H25.1133C25.091 31.018 25.0729 31.0363 25.0729 31.0589V31.1875C25.0729 31.2101 25.091 31.2284 25.1133 31.2284Z" fill="#3F3D56"/>
<path d="M24.4196 31.2284H24.6856C24.7079 31.2284 24.726 31.2101 24.726 31.1875V31.0589C24.726 31.0363 24.7079 31.018 24.6856 31.018H24.4196C24.3972 31.018 24.3791 31.0363 24.3791 31.0589V31.1875C24.3791 31.2101 24.3972 31.2284 24.4196 31.2284Z" fill="#3F3D56"/>
<path d="M23.7259 31.2284H23.9919C24.0142 31.2284 24.0323 31.2101 24.0323 31.1875V31.0589C24.0323 31.0363 24.0142 31.018 23.9919 31.018H23.7259C23.7035 31.018 23.6854 31.0363 23.6854 31.0589V31.1875C23.6854 31.2101 23.7035 31.2284 23.7259 31.2284Z" fill="#3F3D56"/>
<path d="M23.0321 31.2284H23.2981C23.3205 31.2284 23.3386 31.2101 23.3386 31.1875V31.0589C23.3386 31.0363 23.3205 31.018 23.2981 31.018H23.0321C23.0098 31.018 22.9917 31.0363 22.9917 31.0589V31.1875C22.9917 31.2101 23.0098 31.2284 23.0321 31.2284Z" fill="#3F3D56"/>
<path d="M22.3384 31.2284H22.6044C22.6268 31.2284 22.6449 31.2101 22.6449 31.1875V31.0589C22.6449 31.0363 22.6268 31.018 22.6044 31.018H22.3384C22.3161 31.018 22.298 31.0363 22.298 31.0589V31.1875C22.298 31.2101 22.3161 31.2284 22.3384 31.2284Z" fill="#3F3D56"/>
<path d="M21.6447 31.2284H21.9107C21.9331 31.2284 21.9512 31.2101 21.9512 31.1875V31.0589C21.9512 31.0363 21.9331 31.018 21.9107 31.018H21.6447C21.6224 31.018 21.6043 31.0363 21.6043 31.0589V31.1875C21.6043 31.2101 21.6224 31.2284 21.6447 31.2284Z" fill="#3F3D56"/>
<path d="M26.2926 31.6492H28.9866C29.0089 31.6492 29.027 31.6309 29.027 31.6083V31.4796C29.027 31.4571 29.0089 31.4388 28.9866 31.4388H26.2926C26.2703 31.4388 26.2522 31.4571 26.2522 31.4796V31.6083C26.2522 31.6309 26.2703 31.6492 26.2926 31.6492Z" fill="#3F3D56"/>
</g>
<defs>
<clipPath id="clip0_3_158">
<rect width="69" height="53" fill="white"/>
</clipPath>
</defs>
</svg>
