<svg width="33" height="28" viewBox="0 0 33 28" fill="none" xmlns="http://www.w3.org/2000/svg">
<g clip-path="url(#clip0_4_283)">
<path d="M10.6449 26.8468C10.6135 26.8482 10.5825 26.8401 10.5559 26.8238C10.5294 26.8074 10.5087 26.7835 10.4966 26.7553C10.4845 26.7271 10.4815 26.6959 10.4882 26.666C10.4949 26.6361 10.5108 26.609 10.5339 26.5882C10.5378 26.5732 10.5405 26.5625 10.5444 26.5476C10.543 26.5443 10.5416 26.5411 10.5402 26.5378C10.5086 26.4651 10.4557 26.4031 10.388 26.3596C10.3204 26.3161 10.241 26.2931 10.16 26.2934C10.0789 26.2937 9.99977 26.3173 9.93245 26.3613C9.86514 26.4052 9.81266 26.4676 9.78161 26.5406C9.65754 26.8316 9.49957 27.1232 9.46068 27.431C9.44355 27.567 9.45077 27.705 9.48204 27.8386C9.19062 27.2194 9.0393 26.5463 9.03832 25.8652C9.03826 25.6942 9.04801 25.5234 9.06753 25.3535C9.08365 25.2143 9.10603 25.076 9.13465 24.9387C9.29084 24.1939 9.6262 23.4957 10.1132 22.9016C10.3489 22.7763 10.5395 22.5837 10.6593 22.3497C10.7027 22.2655 10.7334 22.1757 10.7504 22.083C10.7238 22.0864 10.6968 22.0885 10.6702 22.0902C10.6619 22.0907 10.6532 22.0911 10.6449 22.0915L10.6418 22.0917C10.6126 22.0929 10.5836 22.086 10.5584 22.0716C10.5331 22.0572 10.5127 22.036 10.4995 22.0105C10.4863 21.9851 10.481 21.9565 10.4841 21.9282C10.4873 21.8998 10.4988 21.873 10.5172 21.8509C10.5287 21.8371 10.5402 21.8233 10.5516 21.8096C10.5691 21.7884 10.587 21.7676 10.6044 21.7463C10.6064 21.7443 10.6083 21.7422 10.6101 21.74C10.6301 21.7158 10.6501 21.692 10.6702 21.6678C10.6336 21.6125 10.5844 21.5661 10.5264 21.5324C10.3254 21.4177 10.0482 21.4971 9.90308 21.6742C9.7575 21.8512 9.73004 22.0996 9.7806 22.3208C9.83032 22.509 9.91256 22.6876 10.0238 22.849C10.0129 22.8625 10.0016 22.8757 9.99069 22.8893C9.79149 23.1388 9.61788 23.4067 9.47234 23.6892C9.50774 23.3727 9.4655 23.0526 9.34909 22.7551C9.23112 22.4779 9.01 22.2444 8.81527 22.0048C8.58137 21.7169 8.10174 21.8425 8.06054 22.2074C8.06014 22.211 8.05975 22.2145 8.05937 22.218C8.08829 22.2339 8.1166 22.2508 8.1443 22.2687C8.17911 22.2913 8.20607 22.3237 8.22167 22.3615C8.23726 22.3993 8.24077 22.4409 8.23171 22.4807C8.22266 22.5205 8.20148 22.5567 8.17093 22.5846C8.14039 22.6124 8.10192 22.6307 8.06056 22.6369L8.05632 22.6375C8.06662 22.7391 8.08484 22.8397 8.1108 22.9385C8.18604 23.2145 8.31899 23.4724 8.50133 23.6959C8.68366 23.9195 8.91144 24.104 9.17039 24.2378C9.18739 24.2462 9.20395 24.2547 9.22095 24.2628C9.07473 24.6665 8.98301 25.0869 8.9481 25.5136C8.92833 25.7653 8.9295 26.0182 8.95159 26.2698L8.95028 26.2609C8.89448 25.9811 8.7413 25.7287 8.51659 25.5463C8.18284 25.2792 7.71132 25.1809 7.35127 24.9662C7.31301 24.9423 7.26851 24.9295 7.22304 24.9294C7.17757 24.9293 7.13301 24.9419 7.09463 24.9656C7.05624 24.9894 7.02563 25.0233 7.0064 25.0635C6.98718 25.1036 6.98013 25.1483 6.98611 25.1922C6.98659 25.1953 6.98708 25.1984 6.98758 25.2015C7.04125 25.2228 7.09351 25.2474 7.14405 25.275C7.17298 25.2909 7.20129 25.3078 7.22899 25.3256C7.26379 25.3483 7.29075 25.3806 7.30635 25.4184C7.32195 25.4563 7.32545 25.4978 7.3164 25.5376C7.30734 25.5774 7.28616 25.6136 7.25562 25.6415C7.22508 25.6694 7.1866 25.6876 7.14524 25.6938L7.141 25.6945C7.13795 25.6949 7.13533 25.6953 7.13229 25.6958C7.224 25.9091 7.35271 26.1054 7.5128 26.2761C7.71055 26.4829 7.94957 26.648 8.21519 26.7616C8.48081 26.8751 8.76744 26.9346 9.0575 26.9364H9.05794C9.13668 27.2697 9.25076 27.5941 9.39835 27.9044H10.6144C10.6188 27.8912 10.6227 27.8776 10.6266 27.8645C10.5141 27.8714 10.401 27.8648 10.2901 27.845C10.3804 27.7371 10.4706 27.6284 10.5608 27.5206C10.5628 27.5186 10.5647 27.5164 10.5665 27.5142C10.6122 27.459 10.6584 27.4042 10.7042 27.3491L10.7042 27.349C10.7067 27.1798 10.6867 27.011 10.6449 26.8468Z" fill="#F2F2F2"/>
<path d="M14.7203 4.06838C14.7203 4.86644 14.3105 5.67853 13.4912 5.67853C12.6719 5.67853 11.5415 5.10053 11.7958 3.86194C11.9565 3.07938 12.4176 2.62336 13.2369 2.62336C13.6303 2.62336 14.0076 2.7756 14.2858 3.0466C14.564 3.31759 14.7203 3.68513 14.7203 4.06838Z" fill="#2F2E41"/>
<path d="M11.2836 15.4706C11.3282 15.4223 11.3614 15.3651 11.3809 15.303C11.4004 15.2409 11.4057 15.1754 11.3964 15.1111C11.3871 15.0468 11.3635 14.9852 11.3271 14.9308C11.2907 14.8763 11.2425 14.8303 11.186 14.796L11.5446 13.2563L10.7563 13.5452L10.5366 14.963C10.4837 15.0595 10.4689 15.1715 10.4951 15.2778C10.5213 15.3841 10.5866 15.4774 10.6786 15.54C10.7707 15.6025 10.8832 15.63 10.9946 15.6172C11.1061 15.6044 11.2089 15.5522 11.2836 15.4706Z" fill="#FFB8B8"/>
<path d="M12.9568 10.0132L12.4066 10.0678C12.4066 10.0678 12.5505 10.8617 12.3255 11.0406C12.1005 11.2194 12.1912 11.2185 12.1925 11.3511C12.1938 11.4836 12.1052 11.7054 11.9251 11.8396C11.745 11.9738 11.3704 14.3645 11.3704 14.3645L10.5541 14.3721C10.5784 14.1665 10.5764 13.9587 10.548 13.7536C10.4996 13.4448 10.2549 12.6668 10.3443 12.5334C10.4337 12.4001 10.3866 12.1548 10.384 11.8897C10.3814 11.6246 10.7707 11.9175 10.7664 11.4757C10.762 11.0339 11.2613 8.2617 11.212 7.86451C11.1628 7.46732 11.6582 7.10922 11.6582 7.10922L12.1117 7.10499L12.9568 10.0132Z" fill="#608080"/>
<path d="M18.7978 6.28483C18.8115 6.3449 18.8115 6.40717 18.7979 6.46725C18.7842 6.52734 18.7572 6.58378 18.7188 6.6326C18.6803 6.68141 18.6313 6.72142 18.5752 6.7498C18.5192 6.77818 18.4574 6.79424 18.3943 6.79685L17.9529 8.22964L17.4411 7.63323L17.9387 6.36406C17.9412 6.26048 17.9827 6.1614 18.0552 6.0856C18.1277 6.00979 18.2262 5.96252 18.3321 5.95276C18.438 5.94299 18.5439 5.9714 18.6297 6.0326C18.7155 6.09381 18.7753 6.18355 18.7978 6.28483Z" fill="#FFB8B8"/>
<path d="M14.1379 6.7515C14.1379 6.7515 15.2049 6.36178 15.7834 8.49602L16.5513 9.27077L17.1965 8.13515L17.1112 7.86575L17.6099 6.76461L18.4648 7.24254L18.2543 7.99854L18.2899 8.37226L18.0856 8.6047L17.7512 9.80604L17.542 10.1985C17.542 10.1985 17.2781 10.7011 16.8176 10.7839C16.6948 10.8063 16.5692 10.8097 16.4453 10.7941C16.2028 10.7633 15.937 10.6544 15.6639 10.4141C14.6506 9.52258 14.0513 8.83485 14.0513 8.83485L14.1379 6.7515Z" fill="#608080"/>
<path d="M19.2821 7.20543L17.3826 5.41971C17.3722 5.40997 17.3661 5.39674 17.3654 5.38273C17.3648 5.36873 17.3697 5.35502 17.3791 5.34443C17.3886 5.33385 17.4018 5.32719 17.4161 5.32583C17.4305 5.32447 17.4448 5.32851 17.4561 5.33713L19.4702 6.8656L19.2821 7.20543Z" fill="#3F3D56"/>
<path d="M20.0644 7.40336C19.9691 7.43596 19.8702 7.45748 19.7698 7.46748C19.7186 7.47237 19.6673 7.47413 19.6165 7.47472C19.5986 7.47533 19.5805 7.4754 19.5628 7.47562C19.5206 7.47623 19.4783 7.47683 19.4356 7.4773C19.3997 7.47798 19.3633 7.47851 19.3275 7.4788C19.2748 7.4796 19.2169 7.47853 19.1791 7.44244C19.1631 7.42424 19.1514 7.40282 19.145 7.3797C19.1385 7.35659 19.1374 7.33237 19.1417 7.30879C19.1502 7.25948 19.1655 7.21153 19.1873 7.1663C19.2329 7.05946 19.2789 6.95277 19.3244 6.84594L19.3173 6.78614C19.401 6.77435 19.4862 6.77689 19.5689 6.79367C19.6027 6.80208 19.6345 6.81707 19.6622 6.83773C19.6899 6.8584 19.7131 6.88431 19.7302 6.91392C19.7374 6.92723 19.7432 6.94125 19.7473 6.95574C19.7651 7.0194 19.7523 7.09006 19.76 7.15666C19.7617 7.17052 19.7644 7.18426 19.7679 7.1978C19.7776 7.23785 19.7964 7.27531 19.8227 7.30749C19.8491 7.33968 19.8824 7.3658 19.9203 7.38399C19.9656 7.40339 20.0155 7.4101 20.0644 7.40336Z" fill="#CCCCCC"/>
<path d="M20.198 7.35159C20.1583 7.37898 20.1125 7.39673 20.0644 7.40336C20.1098 7.3883 20.1544 7.37102 20.198 7.35159Z" fill="#E6E6E6"/>
<path d="M20.0644 7.40336C19.9691 7.43596 19.8702 7.45748 19.7697 7.46748C19.7186 7.47237 19.6673 7.47413 19.6165 7.47472C19.5986 7.47533 19.5805 7.4754 19.5628 7.47562C19.5206 7.47623 19.4783 7.47683 19.4356 7.4773C19.4377 7.45644 19.4409 7.4357 19.4452 7.41516C19.4851 7.2235 19.6008 7.06052 19.7302 6.91392C19.7374 6.92723 19.7431 6.94125 19.7473 6.95574C19.7651 7.0194 19.7523 7.09006 19.76 7.15666C19.7617 7.17052 19.7644 7.18426 19.7678 7.1978C19.7776 7.23785 19.7964 7.27531 19.8227 7.30749C19.8491 7.33967 19.8824 7.3658 19.9203 7.38399C19.9656 7.40339 20.0155 7.4101 20.0644 7.40336Z" fill="#608080"/>
<path d="M12.7066 10.3252L12.6312 10.6756L12.567 11.968L15.1454 11.6279L15.3434 10.1314L15.0697 9.69336L12.7066 10.3252Z" fill="#FFB6B6"/>
<path d="M14.6138 5.03911C14.9371 4.46305 14.7197 3.74078 14.1284 3.42588C13.537 3.11098 12.7955 3.32269 12.4722 3.89875C12.149 4.4748 12.3663 5.19707 12.9577 5.51197C13.5491 5.82687 14.2905 5.61517 14.6138 5.03911Z" fill="#FFB7B7"/>
<path d="M11.7045 8.71461L11.369 7.86535C11.3688 7.50981 11.4923 7.16471 11.7194 6.88634C11.9464 6.60797 12.2636 6.41277 12.6192 6.33257L12.6238 6.33151L12.8651 6.0148L13.8455 6.11034L14.0252 6.46807L14.7356 6.88011L15.5435 7.80166C15.798 7.97964 15.9491 8.20784 15.9928 8.48001C16.0857 9.05779 15.6704 9.63591 15.621 9.70219L15.4937 10.4005L12.5507 10.8113L12.5282 10.8141L11.7045 8.71461Z" fill="#608080"/>
<path d="M12.2659 4.78056C12.277 4.77885 12.288 4.77658 12.2991 4.77488C12.4894 4.742 12.6798 4.70968 12.8696 4.67622L12.887 4.25718L13.117 4.63255C13.6414 4.8021 14.1322 4.70627 14.5938 4.49477C14.746 4.42436 14.8938 4.34501 15.0362 4.25718C15.1355 3.66692 14.885 3.20176 14.2416 3.14238C14.2216 3.14053 14.2073 3.12424 14.1898 3.11572L14.1896 3.11568L14.1894 3.11556L14.1893 3.11537L14.1892 3.11515C14.1595 3.10155 14.1293 3.08851 14.099 3.0766C13.862 2.98639 13.6036 2.96354 13.3538 3.01072C13.104 3.05789 12.8731 3.17315 12.6879 3.34311C12.3154 3.68957 12.1477 4.26171 12.2659 4.78056Z" fill="#2F2E41"/>
<path d="M14.5041 24.9595L15.2042 25.2728L16.7781 22.7915L15.7449 22.329L14.5041 24.9595Z" fill="#FFB6B6"/>
<path d="M14.4892 24.5453L15.6262 24.9764L15.4083 25.4383L16.1266 26.6171C16.1621 26.6753 16.1775 26.7431 16.1707 26.8104C16.1638 26.8778 16.1351 26.9413 16.0886 26.9916C16.0421 27.0419 15.9803 27.0765 15.9122 27.0902C15.8441 27.1038 15.7733 27.096 15.7102 27.0677L14.3926 26.4779L14.381 25.9194L14.0768 26.3365L13.58 26.1142L14.4892 24.5453Z" fill="#2F2E41"/>
<path d="M11.4437 26.499H12.2142L12.5807 23.6041L11.4435 23.6042L11.4437 26.499Z" fill="#FFB6B6"/>
<path d="M11.0247 20.5588L11.0247 20.5511L11.3141 20.0653L11.0185 19.4329L10.9976 15.5895C10.8812 12.8122 12.5353 11.4771 12.5483 11.4639L12.5842 11.4276L15.237 11.3644C15.237 11.3644 16.6313 15.3515 17.7389 18.9441C17.8044 19.1564 17.9896 19.3659 17.932 19.576C17.4753 21.2434 16.9331 23.1305 16.5852 23.1838L15.4832 22.6058L15.688 19.7161L15.5621 19.4017C15.3365 19.3612 14.7501 17.1444 14.7501 17.1444C14.6518 17.0307 14.6569 16.7216 14.6569 16.7216L13.8888 15.9361L13.1809 19.5569L13.3559 20.6369L13.2111 21.0083L12.5906 24.0739L12.5841 24.1233L11.4144 24.0096L11.0247 20.5588Z" fill="#2F2E41"/>
<path d="M11.1827 26.1288L12.4007 26.058V26.5663L13.5587 27.3453C13.6159 27.3838 13.659 27.4391 13.6816 27.5031C13.7043 27.5671 13.7054 27.6365 13.6847 27.7011C13.664 27.7657 13.6226 27.8222 13.5666 27.8624C13.5107 27.9025 13.443 27.9241 13.3735 27.9241H11.9234L11.6735 27.4213L11.5759 27.9241H11.0292L11.1827 26.1288Z" fill="#2F2E41"/>
<path d="M12.7334 3.08563V3.08664C12.7336 3.14886 12.7254 3.21083 12.7092 3.27101C12.7066 3.28156 12.7035 3.29261 12.6999 3.30316V3.30366C12.6653 3.41112 12.6056 3.50932 12.5256 3.59055C12.4455 3.67178 12.3472 3.73384 12.2384 3.77187C12.2224 3.77789 12.2059 3.78292 12.1894 3.78744C12.1546 3.79726 12.1191 3.80432 12.0831 3.80854C12.0508 3.81299 12.0183 3.81518 11.9857 3.81507C11.9602 3.81517 11.9347 3.814 11.9093 3.81155C11.85 3.8057 11.7916 3.79271 11.7355 3.77287C11.7267 3.77038 11.7181 3.76736 11.7097 3.76383C11.7055 3.76237 11.7014 3.76069 11.6974 3.7588C11.6038 3.72066 11.5192 3.66438 11.4486 3.59341C11.3781 3.52243 11.3231 3.43822 11.2869 3.3459C11.2508 3.25359 11.2343 3.15508 11.2385 3.05636C11.2426 2.95765 11.2673 2.86078 11.3111 2.77165L11.3116 2.77115C11.3483 2.69637 11.398 2.62838 11.4586 2.5702C11.5937 2.43909 11.6532 2.11049 11.8585 2.11049C11.8683 2.11032 11.8781 2.11066 11.8879 2.11149C12.0256 2.11602 12.2801 2.40543 12.3884 2.47375C12.4689 2.52325 12.5386 2.58759 12.5937 2.66314C12.6512 2.74087 12.6922 2.82899 12.7144 2.92236C12.727 2.97591 12.7334 3.03068 12.7334 3.08563Z" fill="#2F2E41"/>
<path d="M11.8198 2.83198C11.7037 2.96369 11.5218 3.01488 11.3578 3.08342C11.0683 3.20712 10.8142 3.39775 10.6174 3.63876C10.4207 3.87977 10.2873 4.1639 10.2287 4.4665C10.1834 4.71298 10.1893 4.96813 10.1177 5.20841C10.0465 5.4487 9.87014 5.68444 9.61711 5.72614C9.44588 5.75463 9.27423 5.69022 9.11317 5.62664C9.02459 5.59196 8.93601 5.55714 8.84743 5.52219C8.93982 5.29635 9.03208 5.07052 9.12419 4.84468C8.97615 5.05781 8.80398 5.25405 8.61093 5.42971C8.29347 5.30502 7.97573 5.18034 7.65771 5.05565C8.44012 5.05854 8.30661 4.31869 8.48166 3.57637C8.57787 3.16847 9.39714 2.89226 9.55778 2.50417C9.64458 2.29367 9.79147 2.11181 9.98107 1.98009C10.1707 1.84837 10.395 1.77233 10.6276 1.76095C10.8602 1.74957 11.0913 1.80333 11.2934 1.91588C11.4956 2.02842 11.6605 2.19504 11.7685 2.396C11.9291 2.45834 11.9338 2.70193 11.8198 2.83198Z" fill="#2F2E41"/>
<path d="M15.1429 11.5463C15.323 11.5921 15.489 11.6795 15.6269 11.8011C15.7648 11.9228 15.8704 12.0751 15.9349 12.2451C15.9697 12.3429 15.9914 12.4588 15.9316 12.5518C15.9133 12.5851 15.8832 12.6109 15.8469 12.6243C15.8107 12.6377 15.7706 12.6378 15.7343 12.6247C15.6561 12.5933 15.6023 12.5155 15.5625 12.4465C15.5099 12.349 15.4647 12.2479 15.4272 12.144C15.3658 11.9872 15.2348 11.7255 15.4218 11.6029C15.579 11.4998 15.7872 11.5398 15.9642 11.5328C16.1554 11.5251 16.3679 11.4538 16.4358 11.2608C16.5019 11.073 16.347 10.8964 16.1801 10.8251C16.0797 10.7845 15.9706 10.7686 15.8624 10.7786C15.7543 10.7886 15.6503 10.8244 15.5596 10.8826C15.3803 11.0037 15.2522 11.1841 15.1993 11.3903C15.1955 11.4059 15.198 11.4223 15.2064 11.4362C15.2148 11.45 15.2284 11.4601 15.2443 11.4644C15.2602 11.4687 15.2772 11.4668 15.2916 11.4591C15.3061 11.4514 15.317 11.4385 15.3219 11.4232C15.3744 11.2365 15.488 11.0608 15.6652 10.9651C15.831 10.8756 16.0586 10.87 16.2134 10.986C16.2899 11.0434 16.35 11.1388 16.3108 11.2336C16.2749 11.3206 16.1812 11.3723 16.092 11.3933C15.8902 11.4408 15.6792 11.3793 15.4781 11.4421C15.2864 11.5019 15.1759 11.6547 15.2035 11.853C15.2245 11.9644 15.2584 12.0731 15.3046 12.177C15.3438 12.2838 15.3897 12.3882 15.4419 12.4896C15.5218 12.6366 15.6657 12.7957 15.8557 12.7526C16.0722 12.7035 16.1236 12.4572 16.0772 12.2761C15.9714 11.8632 15.5916 11.5324 15.1767 11.4269C15.1607 11.4232 15.1438 11.4256 15.1296 11.4338C15.1154 11.442 15.105 11.4552 15.1006 11.4707C15.0962 11.4862 15.0982 11.5027 15.1061 11.5168C15.114 11.5309 15.1272 11.5415 15.1429 11.5463Z" fill="#2F2E41"/>
<path d="M17.0457 22.8264C16.9558 22.7229 16.8276 22.6597 16.703 22.5992L15.6576 22.092L15.6279 22.2727C15.5884 22.1539 15.3943 22.1451 15.3157 22.2438C15.2371 22.3425 15.2622 22.4917 15.3389 22.5919C15.4156 22.692 15.5321 22.7545 15.6449 22.814C15.895 22.9458 16.1451 23.0777 16.3953 23.2096C16.5118 23.271 16.6321 23.3336 16.7638 23.3476C16.8955 23.3617 17.0431 23.3154 17.1087 23.2033C17.1776 23.0855 17.1356 22.93 17.0457 22.8264Z" fill="#2F2E41"/>
<path d="M12.9791 23.7709C12.8512 23.7174 12.7075 23.7166 12.5683 23.7167C12.179 23.717 11.7897 23.7173 11.4005 23.7176L11.4567 23.8923C11.3668 23.8031 11.1892 23.8797 11.1641 24.0022C11.139 24.1248 11.2299 24.2473 11.3445 24.3035C11.459 24.3598 11.5919 24.365 11.72 24.3691C12.0043 24.3783 12.2885 24.3875 12.5728 24.3967C12.7052 24.401 12.8415 24.4046 12.9658 24.3599C13.0901 24.3152 13.2009 24.2096 13.2082 24.0807C13.2159 23.9453 13.107 23.8245 12.9791 23.7709Z" fill="#2F2E41"/>
<path d="M19.5431 15.7834C17.8302 15.7834 15.9689 15.4509 14.1201 14.8116C11.8338 14.021 9.73751 12.8276 8.05786 11.3605L8.1076 11.2634C9.77916 12.7234 11.8662 13.9113 14.143 14.6986C16.2005 15.4101 18.2735 15.7398 20.137 15.6528L20.1403 15.7696C19.9435 15.7789 19.7444 15.7835 19.5431 15.7834Z" fill="#F0F0F0"/>
<path d="M4.19826 9.6945C2.82586 7.92976 3.37012 5.91561 2.56608 4.51049C-0.515502 -0.874848 3.27904 -0.378688 7.56914 0.668584L7.57937 0.784763C4.84888 1.19523 3.05315 2.56412 2.65261 4.5404C2.34132 6.0763 2.91255 7.87715 4.26107 9.61121L4.19826 9.6945Z" fill="#F0F0F0"/>
<path d="M17.4396 15.9588C15.7268 15.9588 13.7583 14.1073 12.0167 14.987C6.7435 17.6505 7.46938 13.1935 5.95444 11.5359L6.00417 11.4387C7.67574 12.8988 9.76274 14.0866 12.0396 14.8739C14.0971 15.5855 16.1701 15.9152 18.0336 15.8282L18.0369 15.945C17.8401 15.9542 17.641 15.9588 17.4396 15.9588Z" fill="#F0F0F0"/>
<path d="M21.3691 15.2236L21.3404 15.1128C22.8723 14.4363 22.7407 12.4212 24.1113 11.961C34.5518 8.45565 24.2458 8.06035 21.9277 6.20618C19.8547 4.54809 17.5955 2.62032 14.7243 1.62747L14.7472 1.51444C17.6309 2.51165 20.2016 4.14618 21.9855 6.11692C23.7784 8.09754 24.5641 10.1836 24.1978 11.9909C23.9089 13.4161 22.9308 14.5339 21.3691 15.2236Z" fill="#F0F0F0"/>
<path d="M7.30264 16.0077C5.45892 13.0713 3.00934 10.4484 0 8.88476L0.074557 8.82008C1.40881 11.4453 3.98867 13.9599 7.33892 15.9008L7.30264 16.0077Z" fill="#F0F0F0"/>
<path d="M19.136 19.3855C18.7888 19.3855 18.4357 19.3754 18.0767 19.3552L18.0806 19.2383C20.7285 20.7059 23.0907 20.3569 24.9171 18.027L24.9506 18.1355C23.386 18.9589 21.392 19.3855 19.136 19.3855Z" fill="#F0F0F0"/>
<path d="M19.6786 18.2677C19.8764 18.2677 20.0367 18.0583 20.0367 17.8C20.0367 17.5418 19.8764 17.3324 19.6786 17.3324C19.4809 17.3324 19.3206 17.5418 19.3206 17.8C19.3206 18.0583 19.4809 18.2677 19.6786 18.2677Z" fill="#FD6584"/>
<path d="M7.58339 9.71211C7.61306 9.52168 7.42461 9.33588 7.16246 9.29711C6.90031 9.25834 6.66374 9.38129 6.63406 9.57172C6.60438 9.76216 6.79283 9.94796 7.05498 9.98673C7.31713 10.0255 7.55371 9.90255 7.58339 9.71211Z" fill="#E6E6E6"/>
<path d="M5.93515 4.63775C6.13288 4.63775 6.29318 4.42837 6.29318 4.17008C6.29318 3.9118 6.13288 3.70242 5.93515 3.70242C5.73741 3.70242 5.57712 3.9118 5.57712 4.17008C5.57712 4.42837 5.73741 4.63775 5.93515 4.63775Z" fill="#E6E6E6"/>
<path d="M6.74874 7.31619C6.28181 6.68229 5.40052 6.35471 4.78033 6.58453C4.16014 6.81434 4.03589 7.51453 4.50283 8.14844C4.96976 8.78235 6.34422 9.77947 6.96441 9.54965C7.58461 9.31984 7.21567 7.9501 6.74874 7.31619ZM6.75161 9.26594C6.67527 9.37496 6.48797 9.38002 6.33327 9.27723C6.17856 9.17444 6.11504 9.00273 6.19138 8.89371C6.26773 8.78468 6.45502 8.77962 6.60973 8.88241C6.76443 8.9852 6.82795 9.15691 6.75161 9.26594Z" fill="#3F3D56"/>
<path d="M6.22162 7.93626C6.16347 7.98205 6.10532 8.02783 6.04717 8.07362C5.9758 8.13773 5.8913 8.18638 5.79923 8.21638C5.67283 8.24483 5.54069 8.23717 5.41864 8.1943C5.24072 8.13832 5.08479 8.03038 4.97199 7.88512L5.09768 7.91243C5.031 7.83723 4.97677 7.75235 4.93697 7.66086C4.9075 7.57594 4.92395 7.48976 5.00351 7.4665C5.09459 7.43988 5.24122 7.49973 5.31769 7.45671C5.44993 7.38231 5.23254 7.10526 5.35304 7.01979C5.42325 6.96999 5.56374 7.01926 5.68085 7.06812C5.82651 7.12217 5.96457 7.19398 6.09171 7.28182C6.29973 7.43831 6.4149 7.68497 6.32996 7.82774C6.30091 7.87002 6.2642 7.90679 6.22162 7.93626Z" fill="#608080"/>
<path d="M6.17878 8.4116C6.07709 8.42516 5.95944 8.34901 5.86131 8.27877L5.83633 8.24692C5.81589 8.18594 5.8073 8.1218 5.81098 8.05776C5.8133 8.02809 5.8259 8.00007 5.84671 7.97829C5.86752 7.95651 5.89531 7.94226 5.92553 7.93788C5.98518 7.93023 6.06479 7.95528 6.10418 7.92167C6.18036 7.85667 6.0037 7.67751 6.08448 7.61668C6.12981 7.58254 6.22613 7.62631 6.26767 7.68499C6.30159 7.73969 6.31724 7.8033 6.31248 7.86704C6.31383 7.96064 6.31517 8.05424 6.31652 8.14784C6.32081 8.2031 6.31507 8.25867 6.29955 8.31199C6.29103 8.33795 6.27519 8.36106 6.25383 8.37867C6.23248 8.39628 6.20647 8.40769 6.17878 8.4116Z" fill="#2F2E41"/>
<path d="M6.20426 8.7235C6.06331 8.68295 5.84836 8.54145 5.66527 8.4165L5.61077 8.3703C5.55369 8.30724 5.50531 8.23718 5.46686 8.16191C5.44574 8.10555 5.47293 8.07263 5.56653 8.09985C5.64937 8.12395 5.77986 8.19244 5.81845 8.17894C5.89305 8.15284 5.53366 7.87361 5.61733 7.85427C5.66429 7.84341 5.82979 7.94013 5.92364 8.02283C5.99275 8.08253 6.04983 8.15426 6.09197 8.23433C6.14682 8.33145 6.20167 8.42857 6.25652 8.52569C6.28964 8.57419 6.31273 8.62853 6.32447 8.68566C6.3256 8.72699 6.28979 8.74811 6.20426 8.7235Z" fill="#FF6584"/>
<path d="M26.1565 1.14518C26.2118 0.463254 26.6751 1.26791 27.3751 1.32178C27.5416 1.33453 27.7039 1.37911 27.8528 1.45297C28.0016 1.52683 28.134 1.62852 28.2425 1.75225C28.3509 1.87597 28.4333 2.0193 28.4849 2.17404C28.5365 2.32879 28.5562 2.49191 28.5431 2.6541C28.5299 2.81629 28.4841 2.97437 28.4082 3.1193C28.3323 3.26424 28.2279 3.39319 28.1008 3.49879C27.9738 3.60439 27.8266 3.68457 27.6677 3.73475C27.5088 3.78494 27.3414 3.80414 27.1749 3.79126C26.4748 3.73739 26.1012 1.82711 26.1565 1.14518Z" fill="#608080"/>
<path d="M30.5148 7.69277C30.528 7.53062 30.5738 7.37258 30.6496 7.22768C30.7255 7.08278 30.8299 6.95384 30.9569 6.84825C31.0839 6.74265 31.231 6.66245 31.3898 6.61223C31.5487 6.56202 31.7161 6.54276 31.8825 6.55557C32.5826 6.60944 33.0509 5.25525 32.9956 5.93717C32.9403 6.6191 32.3823 9.07891 31.6823 9.02504C31.5158 9.01224 31.3536 8.96761 31.2048 8.89373C31.0561 8.81984 30.9237 8.71814 30.8153 8.59443C30.7069 8.47071 30.6246 8.32741 30.573 8.17271C30.5215 8.018 30.5017 7.85492 30.5148 7.69277Z" fill="#608080"/>
<path d="M32.1106 9.18534C31.9192 9.27521 31.6981 9.22222 31.5329 9.10354C31.3449 8.96854 31.2523 8.75382 31.2217 8.53355C31.1922 8.29712 31.2125 8.05732 31.2812 7.82877C31.3465 7.6083 31.4866 7.37949 31.7367 7.33401C31.9034 7.3037 32.0813 7.37299 32.1275 7.54163C32.1451 7.60927 32.1445 7.68017 32.1257 7.74751C32.107 7.81484 32.0707 7.87634 32.0205 7.92606C31.8708 8.06609 31.6307 8.05543 31.4569 7.96643C31.2525 7.86176 31.1397 7.65233 31.1025 7.437C31.0583 7.18099 31.1201 6.92375 31.208 6.68291C31.3036 6.42115 31.4227 6.16722 31.532 5.91074C31.7452 5.41057 31.9455 4.89963 32.0305 4.36177C32.1602 3.54012 31.9582 2.56498 31.2187 2.062C30.8195 1.79048 30.3188 1.71356 29.8425 1.772C29.3403 1.83363 28.8787 2.04831 28.47 2.33258C28.2574 2.48311 28.0555 2.64746 27.8656 2.82453C27.8081 2.88217 27.7343 2.92184 27.6535 2.93851C27.5728 2.95517 27.4888 2.94808 27.4122 2.91813C27.0191 2.7623 27.1444 2.13929 27.5495 2.09287C27.7336 2.07177 27.9232 2.17182 28.0481 2.29683C28.1843 2.43871 28.2732 2.61746 28.3031 2.80953C28.3724 3.21379 28.2185 3.64112 27.9512 3.95013C27.6493 4.29924 27.1904 4.49577 26.7437 4.59929C26.2352 4.71715 25.7121 4.72316 25.1922 4.73436C24.6602 4.74582 24.1219 4.76552 23.6085 4.91419C23.1952 5.03509 22.8053 5.22174 22.4545 5.46657C21.7478 5.95555 21.219 6.65069 20.9444 7.45158C20.8798 7.64531 20.8321 7.84396 20.8016 8.04546C20.7895 8.12434 20.9164 8.13376 20.9283 8.05521C21.062 7.17688 21.5502 6.36917 22.2364 5.79096C22.5788 5.50118 22.9707 5.27217 23.3943 5.11433C23.9045 4.92577 24.4464 4.87796 24.988 4.86256C25.541 4.84684 26.099 4.8554 26.6438 4.74755C27.1255 4.6522 27.6132 4.46516 27.9641 4.11879C28.2735 3.81338 28.4649 3.37646 28.4444 2.94464C28.4253 2.54284 28.1981 2.11322 27.7772 1.99382C27.5798 1.93779 27.3678 1.97344 27.2211 2.12029C27.1396 2.20402 27.0834 2.30811 27.059 2.42101C27.0345 2.53392 27.0426 2.65123 27.0823 2.75993C27.1348 2.87804 27.2304 2.97291 27.3507 3.02609C27.471 3.07927 27.6073 3.08695 27.7331 3.04764C27.8255 3.01459 27.9089 2.96147 27.977 2.89232C28.3744 2.52985 28.8191 2.19722 29.3365 2.01672C29.8192 1.84837 30.3744 1.81383 30.8546 2.00799C31.7638 2.37557 32.0369 3.44235 31.9099 4.3113C31.8267 4.87998 31.6057 5.41844 31.3796 5.94522C31.2642 6.21421 31.1358 6.48148 31.0475 6.76045C30.9683 7.01023 30.9286 7.27826 30.9935 7.5356C31.0501 7.76021 31.1842 7.96664 31.3987 8.07544C31.5935 8.17427 31.8407 8.19132 32.0315 8.07379C32.3075 7.90386 32.3695 7.43466 32.0596 7.26367C31.854 7.15022 31.5906 7.20596 31.4201 7.35496C31.2289 7.52201 31.1508 7.77217 31.1114 8.01157C31.0369 8.46394 31.0954 9.021 31.5541 9.26301C31.7431 9.36272 31.9684 9.38964 32.1659 9.29688C32.1805 9.2894 32.1916 9.27668 32.1967 9.26142C32.2019 9.24615 32.2008 9.22954 32.1936 9.21507C32.1864 9.2006 32.1737 9.18941 32.1583 9.18386C32.1428 9.17832 32.1257 9.17885 32.1106 9.18534Z" fill="#3F3D56"/>
<path d="M20.7757 7.73021C20.8343 7.00706 19.8186 5.07352 20.2555 4.55012C20.3097 4.48471 20.3666 4.42144 20.4261 4.36031C20.6188 4.16019 20.8355 3.98344 21.0717 3.83391C21.1116 3.80799 21.1519 3.78334 21.1925 3.75955C21.3368 3.67569 21.487 3.60186 21.642 3.53861C21.6701 3.52752 21.6986 3.51646 21.7271 3.5054C22.5086 3.21086 23.372 3.19594 24.1637 3.4633C24.9554 3.73066 25.624 4.26297 26.0506 4.96549C26.4772 5.66801 26.6341 6.49518 26.4934 7.29981C26.3526 8.10443 25.9234 8.83432 25.282 9.35959C25.2483 9.38764 25.2138 9.4148 25.1784 9.44149C24.8279 9.70812 24.4287 9.90772 24.0019 10.0297C24.0015 10.0297 24.0015 10.0301 24.0011 10.0301C23.3611 10.2121 22.6815 10.2151 22.04 10.0386L22.0391 10.0386C22.025 10.0346 22.0109 10.0306 21.9968 10.0262C20.4276 9.57454 20.6417 9.3827 20.7757 7.73021Z" fill="#608080"/>
<path d="M21.6403 3.55421C21.6402 3.54897 21.6408 3.54373 21.642 3.53861C21.6701 3.52752 21.6986 3.51646 21.7271 3.50541C21.7391 3.51008 21.7493 3.51818 21.7564 3.52864C21.7636 3.5391 21.7673 3.55142 21.767 3.56397C21.7672 3.62656 21.7746 3.68894 21.7889 3.74995C21.9118 4.27958 22.4684 4.58829 22.9653 4.72054C23.5733 4.88287 24.2266 4.8851 24.7937 5.17848C25.0268 5.29246 25.2279 5.46003 25.3796 5.66669C25.5374 5.89362 25.6036 6.16936 25.5655 6.44096C25.4788 7.07994 24.9737 7.54634 24.7658 8.13954C24.68 8.38392 24.6589 8.64404 24.7565 8.88843C24.8391 9.09607 25.0023 9.28547 25.2369 9.32837C25.2464 9.32979 25.2555 9.33335 25.2633 9.33877C25.2711 9.34419 25.2775 9.35132 25.282 9.35959C25.2483 9.38764 25.2138 9.4148 25.1784 9.44149C25.1361 9.43196 25.0949 9.4181 25.0555 9.40014C24.831 9.29589 24.6859 9.088 24.6132 8.86167C24.5295 8.5997 24.5614 8.32716 24.6552 8.07222C24.8738 7.47777 25.4143 6.98884 25.448 6.33252C25.4771 5.76365 24.9971 5.37055 24.4963 5.18126C23.8767 4.94722 23.1822 4.98198 22.5717 4.71924C22.0915 4.51248 21.6425 4.09816 21.6403 3.55421Z" fill="#3F3D56"/>
<path d="M21.0717 3.83391C21.1116 3.80799 21.1519 3.78334 21.1925 3.75955C21.1972 3.76531 21.2006 3.77198 21.2025 3.77913C21.2043 3.78627 21.2045 3.79371 21.2032 3.80096C21.1389 4.33174 21.2852 4.86641 21.6121 5.29561C21.7535 5.48393 21.9265 5.64762 22.1239 5.77978C22.3304 5.91702 22.5626 5.99991 22.7919 6.09293C23.0175 6.18442 23.2456 6.29184 23.409 6.4738C23.5755 6.65931 23.6453 6.89868 23.6529 7.14113C23.6705 7.71566 23.3352 8.21666 23.2661 8.77582C23.2352 9.02525 23.2721 9.27284 23.4151 9.48636C23.5387 9.67065 23.7324 9.80482 23.9648 9.7962C24.0416 9.793 24.0365 9.90195 23.9689 9.91787C23.9643 9.91896 23.9595 9.91956 23.9548 9.91968C23.6844 9.92952 23.4531 9.7676 23.3101 9.55449C23.1435 9.30685 23.1023 9.01751 23.1445 8.72795C23.2265 8.16771 23.5746 7.64989 23.5222 7.07019C23.515 6.94854 23.4816 6.82972 23.4242 6.72143C23.3669 6.61314 23.2868 6.5178 23.1892 6.44157C22.9882 6.28902 22.7426 6.20841 22.5096 6.11428C22.2767 6.02495 22.0599 5.90007 21.8674 5.74431C21.6794 5.58669 21.5185 5.40079 21.3908 5.19368C21.1355 4.78626 21.0235 4.30891 21.0717 3.83391Z" fill="#3F3D56"/>
<path d="M20.2555 4.55012C20.3097 4.48471 20.3666 4.42144 20.4261 4.36031C20.3437 4.67573 20.3296 5.00441 20.3848 5.32541C20.4513 5.72929 20.6214 6.11031 20.8792 6.43319C21.0084 6.59398 21.1607 6.73583 21.3314 6.85439C21.5266 6.98952 21.7424 7.10759 21.8717 7.31136C22.1521 7.75372 21.8958 8.28315 21.7579 8.72479C21.6857 8.95529 21.6367 9.20291 21.7167 9.43768C21.7789 9.61972 21.9168 9.7964 22.1205 9.83237C22.2005 9.8464 22.1909 9.97032 22.1105 9.95584C22.0954 9.95303 22.0803 9.9498 22.0653 9.94616C21.8442 9.88938 21.6846 9.7131 21.6071 9.50503C21.5066 9.23349 21.5537 8.95218 21.6381 8.68243C21.7769 8.2388 22.0625 7.65902 21.6686 7.25763C21.5025 7.0883 21.2775 6.98443 21.096 6.83173C20.9333 6.69552 20.7904 6.53837 20.6713 6.3646C20.3064 5.83097 20.1582 5.18425 20.2555 4.55012Z" fill="#3F3D56"/>
<path d="M22.6848 13.3909V13.3114H21.3161V11.4561H21.2346V13.3114H19.666V11.8786C19.6386 11.8996 19.6115 11.9212 19.5848 11.9434V13.3114H18.5487C18.5372 13.3377 18.5261 13.3642 18.5156 13.3909H19.5848V14.9499H18.2573C18.2585 14.9766 18.2604 15.003 18.2627 15.0295H19.5848V16.2732H18.5943C18.6065 16.2999 18.6193 16.3262 18.6327 16.3523H19.5848V17.3979H19.666V16.3523H21.2346V17.3979H21.3161V16.3523H22.6848V16.2732H21.3161C21.316 16.1099 21.3491 15.9481 21.4132 15.7972C21.4774 15.6463 21.5714 15.5092 21.69 15.3937C21.8085 15.2782 21.9493 15.1866 22.1042 15.1241C22.2592 15.0616 22.4252 15.0294 22.5929 15.0295H22.6848V14.9499H21.3161V13.3909H22.6848ZM21.2346 16.2732H19.666V15.0295H21.2346V16.2732ZM21.2346 14.9499H19.666V14.9187C19.666 14.7181 19.7066 14.5194 19.7854 14.334C19.8643 14.1487 19.9798 13.9802 20.1255 13.8384C20.2711 13.6965 20.4441 13.584 20.6344 13.5072C20.8247 13.4304 21.0287 13.3909 21.2346 13.3909V14.9499Z" fill="#3F3D56"/>
<path d="M18.8128 27.9873L7.12551 28C7.11212 28 7.09929 27.9948 7.08982 27.9856C7.08036 27.9764 7.07504 27.9639 7.07504 27.9508C7.07504 27.9378 7.08036 27.9253 7.08982 27.9161C7.09929 27.9069 7.11212 27.9017 7.12551 27.9017L18.8128 27.889C18.8195 27.889 18.826 27.8902 18.8322 27.8927C18.8383 27.8952 18.8439 27.8988 18.8486 27.9033C18.8533 27.9079 18.857 27.9133 18.8596 27.9193C18.8621 27.9253 18.8634 27.9317 18.8634 27.9382C18.8634 27.9446 18.8621 27.951 18.8596 27.957C18.857 27.963 18.8533 27.9684 18.8486 27.973C18.8439 27.9775 18.8383 27.9811 18.8322 27.9836C18.826 27.9861 18.8195 27.9873 18.8128 27.9873Z" fill="#CACACA"/>
</g>
<defs>
<clipPath id="clip0_4_283">
<rect width="33" height="28" fill="white"/>
</clipPath>
</defs>
</svg>
