<svg width="70" height="70" viewBox="0 0 70 70" fill="none" xmlns="http://www.w3.org/2000/svg">
<path d="M22.3097 60.9877C22.2222 60.9877 22.1056 61.046 22.0181 61.046C16.3597 58.246 11.7514 53.6085 8.92225 47.9502C8.92225 47.8627 8.98058 47.746 8.98058 47.6585C12.5389 48.7085 16.2139 49.496 19.8597 50.1085C20.5014 53.7835 21.2597 57.4293 22.3097 60.9877ZM61.0752 47.9793C58.1877 53.7835 53.3752 58.4793 47.5127 61.3085C48.621 57.6043 49.5543 53.871 50.1668 50.1085C53.8418 49.496 57.4585 48.7085 61.0168 47.6585C60.9877 47.7752 61.0752 47.8918 61.0752 47.9793ZM61.3085 22.4877C57.6335 21.3793 53.9293 20.4752 50.1668 19.8335C49.5543 16.071 48.6502 12.3377 47.5127 8.69183C53.5502 11.5793 58.421 16.4502 61.3085 22.4877ZM22.3127 9.00975C21.2627 12.5681 20.5043 16.1847 19.8918 19.8597C16.1293 20.4431 12.396 21.3764 8.69183 22.4847C11.521 16.6222 16.2168 11.8097 22.021 8.92225C22.1085 8.92225 22.2252 9.00975 22.3127 9.00975ZM45.1852 19.221C38.4185 18.4627 31.5935 18.4627 24.8268 19.221C25.556 15.2252 26.4893 11.2293 27.8018 7.37933C27.8602 7.146 27.831 6.971 27.8602 6.73766C30.1643 6.1835 32.5268 5.8335 35.006 5.8335C37.456 5.8335 39.8477 6.1835 42.1227 6.73766C42.1518 6.971 42.1518 7.146 42.2102 7.37933C43.5227 11.2585 44.456 15.2252 45.1852 19.221ZM19.221 45.1852C15.196 44.456 11.2293 43.5227 7.37933 42.2102C7.146 42.1518 6.971 42.181 6.73766 42.1518C6.1835 39.8477 5.8335 37.4852 5.8335 35.006C5.8335 32.556 6.1835 30.1643 6.73766 27.8893C6.971 27.8602 7.146 27.8602 7.37933 27.8018C11.2585 26.5185 15.196 25.556 19.221 24.8268C18.4918 31.5935 18.4918 38.4185 19.221 45.1852ZM64.1668 35.006C64.1668 37.4852 63.8168 39.8477 63.2627 42.1518C63.0293 42.181 62.8543 42.1518 62.621 42.2102C58.7418 43.4935 54.7752 44.456 50.7793 45.1852C51.5377 38.4185 51.5377 31.5935 50.7793 24.8268C54.7752 25.556 58.771 26.4893 62.621 27.8018C62.8543 27.8602 63.0293 27.8893 63.2627 27.8893C63.8168 30.1935 64.1668 32.556 64.1668 35.006ZM45.1852 50.7793C44.456 54.8043 43.5227 58.771 42.2102 62.621C42.1518 62.8543 42.1518 63.0293 42.1227 63.2627C39.8477 63.8168 37.456 64.1668 35.006 64.1668C32.5268 64.1668 30.1643 63.8168 27.8602 63.2627C27.831 63.0293 27.8602 62.8543 27.8018 62.621C26.5335 58.7485 25.5394 54.7915 24.8268 50.7793C28.2102 51.1585 31.5935 51.421 35.006 51.421C38.4185 51.421 41.831 51.1585 45.1852 50.7793ZM45.9756 45.9756C38.6876 46.8959 31.3127 46.8959 24.0247 45.9756C23.1045 38.6876 23.1045 31.3128 24.0247 24.0247C31.3128 23.1045 38.6876 23.1045 45.9756 24.0247C46.8959 31.3127 46.8959 38.6876 45.9756 45.9756Z" fill="#324844"/>
</svg>
